<svg width="416" height="416" viewBox="0 0 416 416" fill="none" xmlns="http://www.w3.org/2000/svg">
<path d="M47.4256 389.119C46.319 388.171 43.8563 385.167 45.7616 381.681C46.4521 380.4 47.9331 379.768 49.2726 379.185C50.6504 378.718 51.9492 378.045 53.1248 377.188C55.2131 375.408 55.7872 372.463 57.1766 370.091C58.7657 367.371 61.736 365.332 64.8726 365.474C68.4668 365.64 71.462 368.569 72.8265 371.922C74.191 375.275 74.2326 378.977 74.2576 382.596C74.2576 384.593 74.1827 386.848 72.7184 388.196C71.254 389.543 69.3238 389.452 67.4934 389.402L47.8582 388.795" fill="#F5F5F5"/>
<path d="M84.9651 335.115H33.2812L42.583 390.585C42.7754 391.741 43.2918 392.819 44.0724 393.694C44.8529 394.569 45.8655 395.204 46.9926 395.527L47.1757 395.577C47.3258 395.624 47.4786 395.663 47.6333 395.693C47.9785 395.764 48.3292 395.806 48.6816 395.818V395.868L48.9312 395.826H72.0025C72.4272 395.827 72.8508 395.785 73.2672 395.701C74.61 395.493 75.8476 394.851 76.7911 393.873C77.7346 392.895 78.332 391.635 78.4921 390.285L82.9766 352.063L83.1763 350.541L84.9568 335.398L84.9651 335.115ZM75.2224 370.5H69.8893L70.455 354.434H76.5952L75.2224 370.5ZM77.111 354.434H82.1862L80.2976 370.533H75.7132L77.111 354.434ZM61.9686 388.38L61.6441 374.402H69.2736L68.816 388.388L61.9686 388.38ZM53.7152 374.402H61.1283L61.4528 388.388H54.7968L53.7152 374.402ZM54.2893 388.388H48.0742C47.4835 384.611 46.7097 379.702 45.8777 374.402H53.1993L54.2893 388.388ZM53.4573 370.542L52.1677 354.434H60.6707L61.0451 370.533L53.4573 370.542ZM61.5942 370.542L61.1865 354.434H69.9392L69.4067 370.533L61.5942 370.542ZM61.1366 350.574L60.7373 335.631H70.5632L70.0723 350.541L61.1366 350.574ZM60.6208 350.574H51.8598L50.7033 335.631H60.2381L60.6208 350.574ZM51.3939 350.574H42.1254C41.8009 348.51 41.4848 346.564 41.2102 344.808C40.2451 338.784 39.8873 336.488 39.6877 335.656H50.1875L51.3939 350.574ZM51.6934 354.434L52.9414 370.533H45.2704C45.0125 368.869 44.7545 367.247 44.4966 365.591C43.8976 361.789 43.2985 357.995 42.7328 354.434H51.6934ZM44.7961 370.533H39.8041L37.0668 354.434H42.2169C43.0073 359.376 43.8726 364.917 44.7545 370.5L44.7961 370.533ZM45.4035 374.394C46.1606 379.236 46.9094 384.004 47.5917 388.38H42.7661L40.4198 374.402L45.4035 374.394ZM69.3651 388.38L69.7894 374.402H74.8813L73.6832 388.388L69.3651 388.38ZM70.6214 350.574L71.1206 335.664H78.2093L76.9363 350.574H70.6214ZM39.1968 335.631C39.3965 336.704 40.3449 342.578 41.6012 350.541H36.4179L33.9219 335.631H39.1968ZM78.2093 388.347H74.2156L75.4054 374.402H79.8733L78.2093 388.347ZM82.6438 350.541H77.4355L78.7085 335.631H84.3827L82.6438 350.541Z" fill="#E0E0E0"/>
<path d="M125.74 37.3496H42.457V158.064H125.74V37.3496Z" fill="#E0E0E0"/>
<path d="M121.572 37.3496H38.2891V158.064H121.572V37.3496Z" fill="#F5F5F5"/>
<path d="M111.222 50.4219H48.6309V144.987H111.222V50.4219Z" fill="white"/>
<path d="M111.223 144.987C111.223 144.987 111.223 144.829 111.223 144.521C111.223 144.213 111.223 143.764 111.223 143.182C111.223 141.992 111.223 140.253 111.223 137.998C111.223 133.464 111.223 126.858 111.165 118.521C111.165 101.881 111.107 78.2276 111.065 50.4221L111.273 50.6301H48.6899L48.9229 50.4055C48.9229 86.0817 48.9229 118.971 48.873 144.971L48.6899 144.788L94.2502 144.887L106.838 144.929H110.166C110.907 144.929 111.306 144.929 111.306 144.929C111.306 144.929 110.94 144.929 110.2 144.929H106.93L94.3834 144.971L48.7149 145.07H48.5402V144.887C48.5402 118.887 48.5402 85.9985 48.4902 50.3223V50.0977H48.7232H111.306H111.514V50.3057C111.473 78.1693 111.439 101.831 111.414 118.53C111.414 126.85 111.364 133.439 111.356 137.965C111.356 140.203 111.356 141.925 111.356 143.107C111.356 143.681 111.356 144.122 111.356 144.422C111.356 144.721 111.223 144.987 111.223 144.987Z" fill="#E0E0E0"/>
<path d="M121.805 37.3496C121.366 38.1062 120.868 38.8268 120.316 39.5045C119.351 40.7941 117.978 42.5579 116.414 44.4965C114.849 46.4351 113.377 48.0824 112.295 49.2805C111.741 49.9544 111.129 50.5781 110.465 51.1442C110.934 50.4095 111.466 49.7164 112.054 49.0725C113.169 47.7163 114.55 46.044 116.064 44.2053L120.066 39.3381C120.587 38.6263 121.169 37.961 121.805 37.3496Z" fill="#E0E0E0"/>
<path d="M111.539 144.678C114.651 149.626 118.313 154.206 122.455 158.331L111.539 144.678Z" fill="white"/>
<path d="M122.455 158.331C121.764 157.823 121.128 157.243 120.559 156.6C119.089 155.129 117.7 153.579 116.399 151.958C115.102 150.342 113.891 148.659 112.771 146.916C112.269 146.217 111.843 145.466 111.498 144.678C112.06 145.328 112.574 146.017 113.037 146.741C113.952 148.031 115.242 149.786 116.748 151.675C118.254 153.563 119.693 155.203 120.75 156.384C121.364 156.992 121.934 157.642 122.455 158.331Z" fill="#E0E0E0"/>
<path d="M38.2734 157.964L49.181 144.502L38.2734 157.964Z" fill="white"/>
<path d="M49.1796 144.502C47.5468 146.886 45.7859 149.181 43.9047 151.374C42.1438 153.668 40.2637 155.867 38.2721 157.964C38.1806 157.889 40.5435 154.81 43.5553 151.091C45.3179 148.802 47.1951 146.602 49.1796 144.502Z" fill="#E0E0E0"/>
<path d="M38.2734 37.3496C40.1494 39.361 41.9157 41.4717 43.565 43.6728C45.3317 45.7858 46.9815 47.9939 48.507 50.2872C46.6452 48.2743 44.8954 46.1606 43.2654 43.9557C41.4819 41.8466 39.8154 39.6412 38.2734 37.3496Z" fill="#E0E0E0"/>
<path d="M91.7217 69.623H70.7637V129.128H91.7217V69.623Z" fill="#E0E0E0"/>
<path d="M378.454 29.2617H299.838V111.214H378.454V29.2617Z" fill="#E0E0E0"/>
<path d="M373.129 29.2617H294.514V111.214H373.129V29.2617Z" fill="#FAFAFA"/>
<path d="M373.153 111.24H294.529V29.2383H373.153V111.24ZM294.529 111.19H373.095V29.2882H294.529V111.19Z" fill="#E0E0E0"/>
<path d="M362.561 40.2793H305.078V100.2H362.561V40.2793Z" fill="white"/>
<path d="M305.079 100.598C304.673 101.205 304.199 101.763 303.665 102.262C302.741 103.227 301.452 104.541 300.013 105.964C298.573 107.387 297.234 108.66 296.252 109.558C295.754 110.083 295.195 110.546 294.588 110.939C294.996 110.334 295.47 109.776 296.002 109.275C296.917 108.31 298.215 106.996 299.663 105.565C301.111 104.134 302.45 102.861 303.424 101.962C303.919 101.442 304.474 100.984 305.079 100.598Z" fill="#E0E0E0"/>
<path d="M362.561 100.449C363.17 100.853 363.728 101.327 364.225 101.864C365.198 102.787 366.504 104.077 367.927 105.524C369.35 106.972 370.623 108.295 371.53 109.277C372.054 109.775 372.518 110.333 372.911 110.941C372.304 110.535 371.745 110.06 371.247 109.526C370.282 108.611 368.967 107.313 367.536 105.866C366.105 104.418 364.84 103.078 363.933 102.105C363.414 101.608 362.953 101.052 362.561 100.449Z" fill="#E0E0E0"/>
<path d="M362.404 40.436C362.813 39.8284 363.29 39.27 363.827 38.772C364.742 37.7986 366.032 36.4923 367.48 35.0696C368.927 33.6469 370.25 32.3739 371.232 31.4754C371.729 30.9472 372.287 30.4807 372.896 30.0859C372.493 30.6955 372.018 31.2542 371.481 31.7499C370.566 32.7151 369.268 34.0296 367.821 35.4607C366.373 36.8917 365.042 38.1563 364.06 39.0632C363.565 39.5853 363.009 40.0462 362.404 40.436Z" fill="#E0E0E0"/>
<path d="M304.922 40.5853C304.315 40.1767 303.756 39.6993 303.258 39.1626C302.293 38.2474 300.979 36.9578 299.556 35.5101C298.133 34.0624 296.86 32.7312 295.962 31.7578C295.434 31.2608 294.967 30.7021 294.572 30.0938C295.182 30.4965 295.741 30.9714 296.236 31.5082C297.201 32.4234 298.516 33.713 299.947 35.169C301.378 36.625 302.643 37.9478 303.55 38.9296C304.075 39.4218 304.536 39.978 304.922 40.5853Z" fill="#E0E0E0"/>
<path d="M362.403 100.2C362.403 100.2 362.403 100.092 362.403 99.9088C362.403 99.7258 362.403 99.4263 362.403 99.0768C362.403 98.328 362.403 97.2464 362.403 95.8404C362.403 93.0032 362.403 88.8765 362.345 83.6349C362.345 73.1351 362.278 58.184 362.229 40.2877L362.453 40.504H305.137L305.395 40.2544C305.395 62.2442 305.395 82.8196 305.353 100.158L305.137 99.9338L346.645 100.05L358.293 100.109H361.38H362.212C362.303 100.102 362.395 100.102 362.486 100.109H362.237H361.463H358.418L346.812 100.167L305.162 100.275H304.945V100.059C304.945 82.7031 304.945 62.1277 304.945 40.1546V40.0215H305.203H362.52H362.744V40.2461C362.694 58.2007 362.653 73.2016 362.628 83.7348C362.628 88.9514 362.628 93.0698 362.57 95.8903C362.57 97.277 362.57 98.3419 362.57 99.0852C362.57 99.4346 362.57 99.7008 362.57 99.9172C362.524 100.017 362.468 100.111 362.403 100.2Z" fill="#E0E0E0"/>
<path d="M343.408 60.6465H324.23V79.8241H343.408V60.6465Z" fill="#EBEBEB"/>
<path d="M253.236 369.559V394.61H289.869H330.28V369.559H253.236Z" fill="#F5F5F5"/>
<path d="M250.002 362.553V369.558H332.969V362.553H289.871H250.002Z" fill="#E0E0E0"/>
<path d="M291.485 394.61H330.281V369.558H332.969V362.553H289.871V368.909L291.485 394.61Z" fill="#E0E0E0"/>
<path d="M279.637 373.596H264.012V377.365H279.637V373.596Z" fill="#E0E0E0"/>
<path d="M282.058 382.08H261.998V390.042H282.058V382.08Z" fill="white"/>
<path d="M265.084 337.537V362.589H301.725H342.127V337.537H265.084Z" fill="#F5F5F5"/>
<path d="M262.223 330.531V337.537H345.198V330.531H302.092H262.223Z" fill="#EBEBEB"/>
<path d="M303.341 362.588H342.503V337.537H344.824V330.531H301.727V336.888L303.341 362.588Z" fill="#EBEBEB"/>
<path d="M291.484 341.572H275.859V345.341H291.484V341.572Z" fill="#E0E0E0"/>
<path d="M293.913 350.057H273.854V358.019H293.913V350.057Z" fill="white"/>
<path d="M401.198 395.434C401.198 395.551 313.946 395.65 206.344 395.65C98.7411 395.65 11.4727 395.551 11.4727 395.434C11.4727 395.318 98.7079 395.201 206.335 395.201C313.963 395.201 401.198 395.309 401.198 395.434Z" fill="#263238"/>
<path d="M204.455 186.694V187.526H201.127V186.868L203.041 184.605H201.177V183.773H204.413V184.431L202.5 186.694H204.455Z" fill="#263238"/>
<path d="M198.356 183.04V185.003H190.527V183.464L195.004 178.173H190.644V176.209H198.223V177.748L193.731 183.04H198.356Z" fill="#263238"/>
<path d="M187.14 178.539V182.491H171.332V179.396L180.359 168.722H171.565V164.736H186.841V167.831L177.822 178.506L187.14 178.539Z" fill="#263238"/>
<path d="M113.57 318.947H103.303V368.26H113.57V318.947Z" fill="#E0E0E0"/>
<path d="M71.7129 312.6C71.8793 312.6 103.329 322.459 103.329 322.459H113.587L149.605 312.6H71.7129Z" fill="#E0E0E0"/>
<path d="M43.0162 147.206C38.4652 148.229 34.3967 152.431 35.0789 160.818C35.0789 160.818 31.4514 161.5 31.676 168.081C31.9007 174.662 31.2268 215.505 39.3887 237.719C46.1029 255.982 57.6927 295.044 61.6364 308.381C62.0261 309.701 62.8323 310.858 63.9345 311.682C65.0368 312.505 66.3758 312.95 67.7516 312.949H156.543C158.107 312.943 159.653 312.623 161.091 312.007C162.528 311.39 163.827 310.491 164.909 309.362C165.992 308.233 166.836 306.898 167.391 305.436C167.946 303.973 168.201 302.414 168.141 300.852C168.005 297.841 166.708 295 164.522 292.926C162.336 290.852 159.431 289.705 156.418 289.728L91.6716 290.402C91.6716 290.402 87.7029 269.019 83.6178 268.77C83.6178 268.77 85.4316 255.383 78.6258 251.531C78.6258 251.531 79.982 235.007 72.7269 233.518C72.7269 233.518 73.8584 219.69 67.7349 217.236C67.7349 217.236 71.1378 204.797 64.7896 198.449C64.7896 198.449 66.6034 183.931 64.7896 173.04C62.9759 162.149 62.3103 142.905 43.0162 147.206Z" fill="#455A64"/>
<path d="M161.092 302.2C161.092 302.2 160.943 302.2 160.643 302.2H159.328L154.228 302.242L135.217 302.3L70.163 302.375H70.0133L69.9634 302.233L60.8113 275.693C55.4949 260.142 50.4613 245.316 46.0267 231.788C44.9202 228.402 43.8552 225.132 42.8568 221.87C42.3396 220.287 41.9118 218.676 41.5755 217.045C41.404 216.248 41.2763 215.443 41.1928 214.632C41.1013 213.8 40.9598 213.035 40.9099 212.244C40.3358 205.929 40.2027 200.022 40.0779 194.639C39.9365 183.873 40.0779 175.154 40.2277 169.138C40.3109 166.135 40.3774 163.805 40.419 162.208L40.4939 160.402C40.4939 159.995 40.5355 159.795 40.5355 159.795C40.5355 159.795 40.5355 160.003 40.5355 160.402C40.5355 160.802 40.5355 161.426 40.5355 162.208C40.5355 163.805 40.469 166.143 40.419 169.138C40.3358 175.162 40.2277 183.873 40.419 194.639C40.5355 200.014 40.6853 205.913 41.251 212.211C41.3093 213.043 41.4424 213.783 41.5339 214.582C41.6196 215.385 41.7502 216.182 41.925 216.97C42.2785 218.603 42.7257 220.214 43.2645 221.796C44.2629 225.015 45.3362 228.31 46.451 231.696C50.9022 245.216 55.9525 260.034 61.2606 275.584C64.4222 284.736 67.484 293.705 70.4126 302.133L70.213 301.992L135.267 302.067L154.278 302.125H159.378H160.693C160.943 302.183 161.092 302.2 161.092 302.2Z" fill="#263238"/>
<path d="M82.0129 290.502C81.7607 290.771 81.4819 291.013 81.1809 291.226C80.6235 291.667 79.8331 292.332 78.8846 293.164C76.4089 295.346 74.1057 297.716 71.9956 300.253C69.8875 302.791 67.9687 305.48 66.2548 308.298C65.5976 309.38 65.0817 310.27 64.7406 310.894C64.5785 311.226 64.3834 311.541 64.1582 311.834C64.2671 311.482 64.4121 311.142 64.5908 310.819C64.8904 310.17 65.3646 309.255 65.9886 308.149C67.6367 305.261 69.5354 302.525 71.6628 299.97C73.7824 297.413 76.1331 295.057 78.6849 292.931C79.6667 292.099 80.4904 291.492 81.0728 291.093C81.3641 290.863 81.6793 290.665 82.0129 290.502Z" fill="#263238"/>
<path d="M91.6732 290.368C91.6732 290.368 91.4568 290.368 91.0325 290.368L89.1688 290.418L82.0136 290.535H81.9221V290.443L81.7724 289.561C81.6825 289.277 81.5741 288.999 81.4479 288.729C81.1541 288.146 80.6433 287.701 80.0252 287.49C78.5762 287.177 77.0627 287.417 75.782 288.164L75.4824 288.305L75.5906 287.997C76.5947 285.062 76.7391 281.901 76.0066 278.887C75.1816 275.33 73.1972 272.148 70.3656 269.843L70.2575 269.76L70.3074 269.635C71.2008 267.096 71.322 264.349 70.6557 261.742C69.9893 259.134 68.5653 256.782 66.5634 254.983L66.4552 254.9L66.5051 254.767C67.5866 251.261 67.5246 247.502 66.328 244.033C65.1314 240.565 62.8624 237.567 59.8491 235.473L59.7493 235.406V235.29C59.8161 232.994 59.7439 230.696 59.533 228.409C59.3348 226.07 58.9028 223.757 58.2434 221.504C57.5611 219.324 56.5295 217.144 54.7074 215.879L54.5743 215.788L54.6242 215.638C55.5893 212.295 55.9693 208.81 55.7474 205.338C55.6161 203.69 55.2635 202.067 54.6991 200.512C54.119 199.017 53.2734 197.639 52.2031 196.444L52.1032 196.327L52.1781 196.203C54.0028 193.306 55.0038 189.966 55.0735 186.543C55.087 183.452 54.081 180.443 52.2114 177.982V177.932V177.874C52.3136 173.765 51.486 169.686 49.7903 165.943C49.0635 164.427 48.0193 163.085 46.7285 162.007C45.6274 161.121 44.3383 160.498 42.9596 160.185C41.8505 159.947 40.713 159.868 39.5816 159.952L38.2255 160.102L37.1106 160.327C36.445 160.452 35.9541 160.635 35.6213 160.709C35.2885 160.784 35.1055 160.834 35.1055 160.834C35.7547 160.601 36.4157 160.401 37.0856 160.235L38.2005 159.986L39.5733 159.811C40.7168 159.71 41.8688 159.778 42.9928 160.011C44.4095 160.308 45.7371 160.932 46.87 161.833C48.1971 162.921 49.2729 164.283 50.0232 165.826C51.759 169.603 52.6126 173.726 52.5192 177.882V177.782C54.4456 180.296 55.4869 183.376 55.4811 186.543C55.4209 190.04 54.4084 193.454 52.5525 196.419V196.178C53.6553 197.4 54.5315 198.808 55.14 200.338C55.727 201.944 56.091 203.624 56.2216 205.33C56.4599 208.857 56.0798 212.399 55.0984 215.796L54.9154 215.488C56.8872 216.861 57.9272 219.124 58.6261 221.312C59.3042 223.59 59.7448 225.932 59.9407 228.301C60.1531 230.608 60.2226 232.925 60.1487 235.24L60.0571 235.049C63.1519 237.191 65.4827 240.265 66.7111 243.823C67.9395 247.381 68.0014 251.238 66.8879 254.834L66.8296 254.609C68.8913 256.469 70.3518 258.902 71.0246 261.596C71.6974 264.29 71.552 267.124 70.6069 269.735L70.5487 269.527C73.4395 271.882 75.4553 275.14 76.2728 278.779C77.0088 281.852 76.8442 285.073 75.7986 288.055L75.6155 287.889C76.3243 287.539 77.0772 287.288 77.8536 287.14C78.5867 286.978 79.3496 287.009 80.0668 287.232C80.4143 287.357 80.7323 287.553 81.0014 287.806C81.2704 288.059 81.4846 288.365 81.6309 288.704C81.7637 289.001 81.875 289.307 81.9637 289.62L82.1135 290.535L82.0136 290.443H89.1688H91.0325L91.6732 290.368Z" fill="#263238"/>
<g opacity="0.3">
<path d="M79.7898 251.264L50.0957 255.091C50.5426 255.88 51.1653 256.556 51.9157 257.065C52.666 257.574 53.5237 257.904 54.4221 258.028C56.2177 258.254 58.0367 258.217 59.8218 257.92C67.5099 257.085 75.2482 256.807 82.9763 257.088C82.1105 255.045 81.043 253.094 79.7898 251.264Z" fill="black"/>
</g>
<path d="M65.113 196.843C63.0665 197.11 61.0033 197.23 58.9396 197.2C56.8794 197.311 54.8142 197.283 52.7578 197.117C54.8043 196.849 56.8675 196.73 58.9313 196.759C60.9914 196.649 63.0566 196.677 65.113 196.843Z" fill="#263238"/>
<path d="M64.8379 387.711C64.8379 387.711 69.5886 373.218 76.1365 369.707C86.6529 364.074 110.906 361.387 110.906 361.387L113.56 368.242C113.56 368.242 81.22 369.515 76.1198 376.038C73.2117 379.777 70.5012 383.665 67.9995 387.686L64.8379 387.711Z" fill="#E0E0E0"/>
<path d="M68.9831 395.408C72.774 395.408 75.8471 392.335 75.8471 388.544C75.8471 384.753 72.774 381.68 68.9831 381.68C65.1923 381.68 62.1191 384.753 62.1191 388.544C62.1191 392.335 65.1923 395.408 68.9831 395.408Z" fill="#263238"/>
<path d="M152.491 387.455C152.491 387.455 147.741 372.962 141.193 369.451C130.676 363.818 106.432 361.131 106.432 361.131L103.77 367.987C103.77 367.987 136.109 369.26 141.21 375.791C144.119 379.528 146.829 383.416 149.33 387.439L152.491 387.455Z" fill="#E0E0E0"/>
<path d="M150.069 395.408C153.86 395.408 156.933 392.335 156.933 388.544C156.933 384.753 153.86 381.68 150.069 381.68C146.278 381.68 143.205 384.753 143.205 388.544C143.205 392.335 146.278 395.408 150.069 395.408Z" fill="#263238"/>
<path d="M104.893 365.082L106.398 383.735L110.642 384.576V365.082" fill="#E0E0E0"/>
<path d="M108.428 395.408C112.219 395.408 115.292 392.335 115.292 388.544C115.292 384.753 112.219 381.68 108.428 381.68C104.638 381.68 101.564 384.753 101.564 388.544C101.564 392.335 104.638 395.408 108.428 395.408Z" fill="#263238"/>
<path d="M57.4102 219.017C59.059 218.458 60.7509 218.035 62.4687 217.752C64.1594 217.333 65.882 217.054 67.6188 216.92C65.9703 217.48 64.2784 217.903 62.5602 218.185C60.8693 218.603 59.1468 218.881 57.4102 219.017Z" fill="#263238"/>
<path d="M72.1185 233.535C71.5762 233.791 71.0028 233.976 70.4129 234.084C69.3397 234.359 67.8504 234.675 66.1864 234.916C64.5224 235.158 63.0081 235.332 61.9099 235.399C61.3163 235.478 60.7147 235.478 60.1211 235.399C60.1211 235.274 62.8168 235.016 66.1198 234.492C69.4229 233.968 72.0853 233.419 72.1185 233.535Z" fill="#263238"/>
<path d="M84.384 269.493C83.7386 269.673 83.0736 269.774 82.4039 269.793C81.1725 269.918 79.4669 270.026 77.5783 270.084C75.6896 270.142 73.984 270.084 72.7443 270.084C72.0762 270.101 71.4085 270.037 70.7559 269.893C71.4159 269.788 72.0848 269.749 72.7527 269.776L77.5699 269.668L82.3789 269.502C83.0453 269.432 83.717 269.429 84.384 269.493Z" fill="#263238"/>
<path d="M87.836 282.523C87.836 282.657 85.0738 283.256 81.8539 284.628C78.6341 286.001 76.2546 287.565 76.1797 287.457C76.6192 287.007 77.1241 286.626 77.6773 286.326C78.9543 285.518 80.2956 284.817 81.6875 284.229C83.0762 283.637 84.5123 283.164 85.9806 282.815C86.5836 282.636 87.2074 282.539 87.836 282.523Z" fill="#263238"/>
<path d="M143.346 313.108C143.346 313.224 126.981 313.291 106.796 313.241C86.612 313.191 70.2383 313.074 70.2383 312.95C70.2383 312.825 86.6037 312.767 106.796 312.808C126.989 312.85 143.346 312.983 143.346 313.108Z" fill="#263238"/>
<path d="M113.053 322.816C111.435 323.035 109.801 323.108 108.17 323.033C106.536 323.108 104.898 323.035 103.277 322.816C104.899 322.602 106.536 322.53 108.17 322.6C109.801 322.53 111.435 322.603 113.053 322.816Z" fill="#263238"/>
<path d="M113.519 362.568C112.017 363.414 110.332 363.88 108.609 363.925C106.886 363.97 105.178 363.593 103.635 362.826C105.267 363.242 106.943 363.465 108.627 363.492C110.288 363.373 111.929 363.063 113.519 362.568Z" fill="#263238"/>
<path d="M214.59 208.442C214.59 208.442 210.68 202.443 208.417 200.396C206.67 198.824 198.192 195.704 194.381 194.348C193.16 193.916 191.874 193.691 190.579 193.682C185.587 193.632 172.391 193.682 165.669 194.88C157.291 196.411 212.876 240.124 212.876 240.124L259.177 240.233L262.206 228.801L231.297 222.419L214.241 208.891" fill="#E0E0E0"/>
<g opacity="0.3">
<path d="M178.465 196.461C178.465 196.461 181.527 196.611 185.795 197.293C190.063 197.975 194.747 198.191 197.093 200.271C198.666 201.661 208.284 201.935 208.284 201.935L194.972 201.445L178.465 196.461Z" fill="black"/>
</g>
<path d="M174.072 195.364C174.353 195.36 174.633 195.393 174.904 195.463C175.445 195.563 176.235 195.721 177.192 195.963C179.114 196.437 181.743 197.169 184.63 198.034L187.817 199.024H187.767C189.938 199.121 192.094 199.425 194.207 199.931C194.383 200.257 194.517 200.604 194.606 200.963C194.384 200.668 194.194 200.35 194.04 200.014L194.09 200.064C191.973 199.708 189.837 199.483 187.692 199.39H187.642L184.447 198.425L177.059 196.237L174.813 195.597C174.557 195.55 174.309 195.472 174.072 195.364Z" fill="#263238"/>
<path d="M295.029 239.799C295.095 239.449 294.114 235.464 294.014 235.065C293.914 234.665 290.869 230.073 290.869 230.073L289.205 229.565C289.205 229.565 281.467 227.727 279.903 227.835L278.813 227.951C278.813 227.951 276.783 228.101 275.984 228.242C275.186 228.384 270.235 230.123 270.235 230.123C269.022 230.38 267.779 230.472 266.541 230.397C264.834 230.121 263.143 229.754 261.474 229.299L259.494 240.198L263.238 240.082C264.407 240.496 265.613 240.794 266.841 240.972C268.189 241.063 272.007 241.479 272.007 241.479C272.007 241.479 277.906 243.975 279.387 240.498C280.868 237.02 275.177 236.662 275.177 236.662L276.941 235.414L281.459 234.948L282.632 235.323L283.922 237.319C283.922 237.319 283.572 241.729 286.418 241.43L287.166 241.346L287.566 236.82L286.218 232.244L289.197 236.762C289.197 236.762 289.454 240.672 290.744 241.18C290.843 241.225 290.952 241.245 291.06 241.238C292.624 241.188 292.932 240.747 292.932 240.747L293.257 239.957C293.257 239.957 294.804 240.989 295.029 239.799Z" fill="#FFBF9D"/>
<path d="M278.113 227.968C278.584 227.899 279.064 227.919 279.528 228.026C280.671 228.18 281.789 228.48 282.856 228.916C283.944 229.335 284.908 230.022 285.66 230.913C285.991 231.27 286.206 231.72 286.275 232.203C286.201 232.203 285.993 231.728 285.443 231.113C284.667 230.325 283.731 229.712 282.698 229.316C280.252 228.342 278.089 228.126 278.113 227.968Z" fill="#FF9A6C"/>
<path d="M281.026 232.729C281.143 232.729 281.226 233.203 281.284 233.769C281.342 234.334 281.359 234.817 281.242 234.85C281.126 234.883 280.918 234.418 280.851 233.819C280.785 233.219 280.901 232.72 281.026 232.729Z" fill="#FF9A6C"/>
<path d="M278.115 232.878C278.207 232.795 279.03 233.71 280.345 234.343C281.66 234.975 282.841 235.175 282.841 235.275C281.903 235.409 280.948 235.215 280.137 234.725C279.267 234.366 278.552 233.712 278.115 232.878Z" fill="#FF9A6C"/>
<path d="M268.68 233.285C269.097 233.321 269.499 233.464 269.844 233.701C270.731 234.188 271.491 234.875 272.066 235.706C272.244 235.973 272.405 236.251 272.548 236.538L272.324 236.422C273.407 236.205 274.529 236.3 275.56 236.696C274.502 236.68 273.443 236.728 272.39 236.838H272.241L272.166 236.705C272.029 236.438 271.876 236.179 271.708 235.931C270.875 234.865 269.848 233.967 268.68 233.285Z" fill="#FF9A6C"/>
<path d="M289.371 229.525C289.813 229.879 290.193 230.303 290.494 230.782C291.29 231.889 291.934 233.098 292.408 234.376C292.886 235.654 293.186 236.993 293.298 238.353C293.394 238.903 293.394 239.466 293.298 240.017C293.042 238.147 292.619 236.303 292.034 234.509C291.296 232.772 290.405 231.104 289.371 229.525Z" fill="#FF9A6C"/>
<path d="M215.672 360.073L214.84 382.587C214.84 382.587 237.413 391.04 237.662 395.2L193.949 395.109L193.857 359.965L215.672 360.073Z" fill="#455A64"/>
<path d="M201.345 380.664C200.925 380.79 200.566 381.068 200.339 381.442C200.112 381.817 200.031 382.263 200.114 382.694C200.222 383.121 200.491 383.489 200.865 383.721C201.239 383.954 201.688 384.033 202.119 383.942C202.565 383.807 202.944 383.51 203.184 383.111C203.424 382.711 203.507 382.236 203.417 381.779C203.253 381.349 202.93 380.998 202.515 380.8C202.1 380.601 201.624 380.571 201.187 380.714" fill="#E0E0E0"/>
<path d="M193.949 395.101L194.082 391.557L235.94 392.971C235.94 392.971 237.879 393.803 237.662 395.192L193.949 395.101Z" fill="#263238"/>
<path d="M215.531 382.363C215.531 382.579 214.45 382.67 213.401 383.353C212.353 384.035 211.787 384.933 211.588 384.85C211.388 384.767 211.712 383.536 213.002 382.729C214.292 381.922 215.573 382.171 215.531 382.363Z" fill="white"/>
<path d="M220.108 384.266C220.158 384.474 219.234 384.832 218.502 385.739C217.77 386.646 217.57 387.594 217.354 387.586C217.138 387.578 217.005 386.363 217.937 385.265C218.868 384.167 220.108 384.067 220.108 384.266Z" fill="white"/>
<path d="M222.703 389.76C222.504 389.81 222.213 388.745 222.762 387.572C223.311 386.398 224.309 385.908 224.426 386.124C224.542 386.34 223.893 386.956 223.461 387.888C223.028 388.82 222.911 389.743 222.703 389.76Z" fill="white"/>
<path d="M215.158 377.211C215.067 377.403 214.085 377.111 212.879 377.211C211.672 377.311 210.732 377.669 210.624 377.486C210.516 377.303 211.414 376.546 212.837 376.471C214.26 376.396 215.258 377.045 215.158 377.211Z" fill="white"/>
<path d="M180.637 357.76L166.493 375.232C166.493 375.232 179.489 395.533 177.217 399.028L142.273 372.736L163.248 344.557L180.637 357.76Z" fill="#455A64"/>
<path d="M156.801 365.599C156.387 365.451 155.933 365.46 155.525 365.624C155.117 365.788 154.784 366.096 154.588 366.489C154.42 366.892 154.414 367.344 154.568 367.752C154.723 368.161 155.027 368.494 155.42 368.686C155.858 368.844 156.339 368.834 156.77 368.659C157.202 368.484 157.553 368.156 157.757 367.737C157.886 367.295 157.839 366.82 157.625 366.412C157.411 366.003 157.047 365.694 156.609 365.549" fill="#E0E0E0"/>
<path d="M142.273 372.736L144.495 369.982L177.151 396.207C177.151 396.207 178.199 398.054 177.201 399.019L142.273 372.736Z" fill="#263238"/>
<path d="M167.158 375.491C167.025 375.657 166.11 375.092 164.862 375.008C163.614 374.925 162.624 375.308 162.516 375.117C162.408 374.925 163.406 374.143 164.92 374.285C166.435 374.426 167.316 375.358 167.158 375.491Z" fill="white"/>
<path d="M169.681 379.759C169.597 379.958 168.641 379.692 167.517 379.975C166.394 380.258 165.654 380.899 165.487 380.765C165.321 380.632 165.945 379.584 167.343 379.251C168.74 378.918 169.805 379.592 169.681 379.759Z" fill="white"/>
<path d="M168.464 385.708C168.281 385.633 168.681 384.601 169.829 383.994C170.977 383.387 172.042 383.62 172.009 383.819C171.975 384.019 171.102 384.135 170.178 384.651C169.255 385.167 168.647 385.824 168.464 385.708Z" fill="white"/>
<path d="M169.946 371.138C169.763 371.238 169.155 370.414 168.14 369.757C167.125 369.099 166.143 368.833 166.168 368.625C166.193 368.417 167.367 368.342 168.556 369.141C169.746 369.94 170.129 371.071 169.946 371.138Z" fill="white"/>
<path d="M213.418 202.401C217.654 201.272 221.98 200.512 226.347 200.13C230.737 199.755 235.151 200.475 239.193 202.226C239.792 202.501 243.803 204.814 243.678 205.463C243.595 205.929 239.809 204.406 239.385 204.631C235.291 206.586 230.549 206.827 226.073 206.095C221.732 205.344 217.487 204.113 213.418 202.426" fill="#263238"/>
<path d="M190.796 200.736L230.117 203.324C241.099 203.865 249.935 210.695 249.095 221.628L248.962 222.635C248.298 227.528 245.817 231.992 242.013 235.14C238.208 238.287 233.359 239.888 228.428 239.624C218.91 239.1 208.402 238.409 203.368 237.66C192.926 236.146 192.727 225.472 192.727 225.472C192.727 225.472 191.795 225.355 188.716 225.072L178.732 217.876L190.796 200.736Z" fill="#FFBF9D"/>
<path d="M192.726 225.473C193.389 220.646 195.425 216.112 198.592 212.41C198.592 212.41 190.272 214.623 189.814 225.173L192.726 225.473Z" fill="#FF9A6C"/>
<path d="M221.024 230.165C221.24 230.332 220.541 231.571 220.749 233.177C220.957 234.783 221.914 235.856 221.739 236.056C221.564 236.255 221.29 236.014 220.849 235.548C220.279 234.912 219.919 234.116 219.817 233.268C219.707 232.431 219.867 231.579 220.275 230.839C220.591 230.298 220.924 230.09 221.024 230.165Z" fill="#263238"/>
<path d="M222.186 215.805C222.377 215.997 221.52 217.128 221.495 218.751C221.47 220.373 222.269 221.571 222.061 221.737C221.978 221.829 221.628 221.629 221.229 221.105C220.756 220.397 220.512 219.56 220.53 218.709C220.55 217.861 220.842 217.041 221.362 216.371C221.745 215.88 222.144 215.714 222.186 215.805Z" fill="#263238"/>
<path d="M212.752 225.098C212.899 225.98 212.938 226.877 212.868 227.768C212.868 228.184 212.868 228.6 213.151 228.692C213.571 228.786 214.01 228.748 214.408 228.584L217.694 227.793C222.37 226.712 226.189 225.988 226.23 226.179C226.272 226.371 222.52 227.394 217.844 228.476L214.516 229.216C213.979 229.413 213.389 229.413 212.852 229.216C212.715 229.137 212.598 229.028 212.51 228.897C212.422 228.765 212.365 228.616 212.344 228.459C212.315 228.224 212.315 227.987 212.344 227.752C212.366 226.853 212.503 225.961 212.752 225.098Z" fill="#263238"/>
<path d="M230.823 222.212C230.449 221.937 231.089 220.44 231.389 218.543C231.688 216.646 231.605 215.032 232.055 214.898C232.263 214.84 232.595 215.215 232.837 215.922C233.114 216.861 233.174 217.852 233.011 218.818C232.848 219.784 232.467 220.7 231.896 221.496C231.439 222.095 231.006 222.337 230.823 222.212Z" fill="#263238"/>
<path d="M228.802 237.52C228.478 237.137 229.019 235.856 229.227 234.3C229.435 232.744 229.327 231.363 229.751 231.105C229.951 230.989 230.292 231.247 230.583 231.871C230.917 232.725 231.014 233.653 230.866 234.558C230.755 235.47 230.396 236.334 229.826 237.054C229.385 237.553 228.985 237.686 228.802 237.52Z" fill="#263238"/>
<path d="M222.263 203.133C222.362 202.967 225.358 196.236 218.186 195.495C211.014 194.755 211.746 202.151 211.946 202.151C212.145 202.151 222.263 203.133 222.263 203.133Z" fill="#FFBF9D"/>
<path d="M214.891 200.239C214.891 200.239 214.816 200.105 214.741 199.881C214.649 199.571 214.679 199.238 214.824 198.949C215.182 198.217 216.447 197.701 217.745 197.801C218.362 197.845 218.962 198.027 219.5 198.333C219.711 198.429 219.896 198.573 220.041 198.754C220.185 198.935 220.285 199.147 220.332 199.373C220.355 199.522 220.324 199.674 220.247 199.803C220.17 199.932 220.05 200.03 219.908 200.08C219.7 200.155 219.559 200.08 219.542 200.13C219.525 200.18 219.65 200.297 219.95 200.272C220.133 200.247 220.303 200.162 220.432 200.031C220.601 199.847 220.69 199.605 220.682 199.357C220.655 199.057 220.551 198.769 220.381 198.522C220.21 198.274 219.979 198.074 219.708 197.942C219.121 197.568 218.448 197.348 217.753 197.302C216.297 197.193 214.866 197.792 214.467 198.799C214.39 198.986 214.356 199.188 214.367 199.389C214.379 199.591 214.436 199.787 214.533 199.964C214.725 200.205 214.883 200.264 214.891 200.239Z" fill="#FF9A6C"/>
<path d="M240.757 236.13C241.29 237.353 245.383 234.217 246.956 231.488C249.319 227.328 251.116 220.871 250.392 216.786C249.485 211.861 247.48 207.634 243.345 204.839C239.116 202.099 234.234 200.534 229.201 200.304C227.679 200.101 226.131 200.308 224.716 200.903C223.052 201.735 221.854 203.591 219.666 203.3C219.272 203.234 218.869 203.248 218.48 203.341C218.091 203.434 217.725 203.604 217.403 203.84C215.881 205.022 217.045 206.752 218.293 207.618C220.956 209.456 224.3 209.956 227.512 210.397C229.777 210.834 232.098 210.898 234.384 210.588C235.616 210.347 236.797 209.889 238.037 209.756C238.652 209.629 239.288 209.638 239.9 209.782C240.512 209.925 241.086 210.2 241.581 210.588C241.776 210.786 241.955 211 242.113 211.229C242.892 212.313 243.369 213.584 243.495 214.913C243.621 216.242 243.391 217.581 242.829 218.791C241.015 222.702 238.228 229.408 239.426 231.346C241.157 234.125 242.388 234.866 242.388 234.866L240.757 236.13Z" fill="#263238"/>
<path d="M222.388 199.63C222.254 198.781 221.883 197.986 221.318 197.337C220.753 196.688 220.017 196.211 219.193 195.961C219.193 195.903 219.518 195.87 220.025 196.003C220.671 196.182 221.249 196.546 221.689 197.051C222.131 197.55 222.42 198.165 222.521 198.823C222.521 199.322 222.446 199.63 222.388 199.63Z" fill="white"/>
<path d="M209.233 221.371C209.072 220.993 208.778 220.689 208.406 220.515C208.035 220.342 207.612 220.311 207.22 220.43L207.428 220.339C207.062 220.289 206.69 220.367 206.374 220.56C206.059 220.752 205.82 221.047 205.697 221.396C205.591 221.749 205.591 222.126 205.697 222.48C205.804 222.834 206.012 223.148 206.296 223.384C206.613 223.641 207.002 223.792 207.409 223.817C207.816 223.843 208.221 223.741 208.567 223.525C208.904 223.293 209.153 222.954 209.274 222.563C209.394 222.172 209.38 221.752 209.233 221.371Z" fill="#FF9A6C"/>
<path d="M208.833 223.225C209.073 222.942 209.206 222.582 209.207 222.21C209.24 221.822 209.162 221.433 208.983 221.087C208.657 220.75 208.212 220.553 207.743 220.538C207.274 220.466 206.795 220.566 206.395 220.821C206.234 220.922 206.095 221.056 205.988 221.213C205.88 221.371 205.807 221.549 205.771 221.736C205.739 222.103 205.817 222.471 205.996 222.793C205.996 222.793 205.863 222.793 205.721 222.593C205.535 222.335 205.444 222.02 205.463 221.703C205.486 221.463 205.56 221.231 205.68 221.023C205.801 220.815 205.966 220.635 206.162 220.496C206.645 220.154 207.242 220.014 207.826 220.105C208.119 220.117 208.405 220.192 208.666 220.324C208.928 220.456 209.158 220.642 209.341 220.871C209.56 221.29 209.63 221.771 209.54 222.235C209.513 222.545 209.384 222.838 209.174 223.067C208.95 223.234 208.833 223.25 208.833 223.225Z" fill="#263238"/>
<g opacity="0.1">
<path d="M249.55 214.864C248.408 211.175 246.181 207.916 243.16 205.512C240.138 203.107 236.462 201.669 232.611 201.386L229.715 201.252C229.212 201.185 228.7 201.233 228.218 201.394C227.978 201.48 227.774 201.644 227.638 201.86C227.502 202.075 227.443 202.33 227.469 202.584C227.594 203.149 228.218 203.416 228.775 203.565C232.103 204.456 235.598 204.289 238.817 205.421C241.898 206.505 244.457 208.71 245.983 211.597C247.51 214.483 247.892 217.84 247.054 220.996C246.889 221.465 246.815 221.963 246.838 222.46C246.853 222.71 246.951 222.947 247.117 223.134C247.283 223.322 247.507 223.447 247.753 223.492C247.983 223.473 248.206 223.399 248.402 223.276C248.597 223.153 248.76 222.984 248.876 222.785C250.532 220.58 250.366 217.493 249.55 214.864Z" fill="white"/>
</g>
<path d="M220.432 221.902C220.432 221.952 220.058 221.961 219.533 221.719C218.842 221.393 218.293 220.827 217.987 220.126C217.681 219.426 217.639 218.638 217.869 217.909C218.052 217.36 218.31 217.077 218.352 217.127C218.394 217.177 218.26 217.468 218.169 217.959C218.039 218.622 218.114 219.31 218.385 219.93C218.655 220.55 219.108 221.072 219.683 221.428C220.124 221.736 220.482 221.836 220.432 221.902Z" fill="#FF9A6C"/>
<path d="M218.36 235.574C218.004 234.886 217.884 234.1 218.019 233.338C218.154 232.575 218.538 231.878 219.109 231.355C219.217 231.439 218.643 232.246 218.444 233.419C218.244 234.592 218.485 235.54 218.36 235.574Z" fill="#FF9A6C"/>
<path d="M142.273 263.17C142.773 262.987 178.049 264.709 189.498 265.716C200.946 266.722 220.789 272.122 221.771 285.6C222.603 296.416 222.412 371.796 222.412 371.796H191.628L190.896 292.132L143.08 280.068L142.273 263.17Z" fill="#263238"/>
<g opacity="0.3">
<path d="M167.559 268.244C167.559 268.244 184.698 271.339 198.384 275.225C212.071 279.11 218.111 287.422 220.108 292.372C222.104 297.323 223.053 304.719 218.851 311.658C216.197 316.051 202.894 331.509 202.894 331.509C202.894 331.509 200.148 287.147 200.015 286.473C199.882 285.799 167.559 268.244 167.559 268.244Z" fill="black"/>
</g>
<path d="M218.6 297.416C217.153 288.863 207.468 282.881 195.596 278.43C183.898 274.029 153.288 263.155 153.288 263.155L145.958 261.349H142.68L141.599 258.104C141.599 258.104 120.799 252.089 90.7553 263.171L89.7319 264.003C89.7319 264.003 88.8251 285.918 93.0599 290.627C93.0599 290.627 140.917 289.953 143.429 290.161C145.942 290.369 181.036 306.294 181.036 306.294L150.992 352.378L175.836 369.734C175.836 369.734 190.812 348.385 199.964 335.622C213.034 317.301 220.314 307.517 218.6 297.416Z" fill="#263238"/>
<path d="M218.601 297.415C218.601 297.415 218.676 297.931 218.801 298.938C218.928 300.428 218.872 301.928 218.634 303.405C218.216 305.797 217.48 308.122 216.446 310.319C215.059 313.303 213.46 316.183 211.662 318.939C207.685 325.204 202.294 332.459 196.312 341.012L175.978 369.832L175.878 369.974L175.737 369.874L150.885 352.535L150.735 352.427L150.835 352.269C160.028 338.166 170.171 322.583 180.862 306.176L180.945 306.484C174.289 303.466 167.461 300.416 160.461 297.332C156.967 295.809 153.447 294.278 149.878 292.789C148.089 292.065 146.3 291.3 144.47 290.667C144.25 290.587 144.025 290.52 143.796 290.468C143.574 290.392 143.34 290.358 143.106 290.368C142.631 290.368 142.14 290.368 141.658 290.368H138.721C123.038 290.451 107.746 290.667 93.0691 290.859H92.9692L92.9027 290.792C92.1694 289.852 91.6267 288.778 91.3052 287.631C90.9523 286.522 90.6744 285.391 90.4732 284.244C90.0743 281.99 89.7966 279.715 89.6412 277.43C89.35 272.896 89.3251 268.436 89.4665 264.043V263.952L89.5414 263.894L90.5647 263.062C99.0523 259.926 107.894 257.847 116.889 256.872C121.1 256.42 125.338 256.281 129.569 256.456C133.635 256.53 137.683 257.021 141.65 257.92H141.741V258.011C142.115 259.151 142.465 260.216 142.814 261.265L142.648 261.148H145.976L153.314 262.962L183.066 273.736L195.297 278.171C198.723 279.434 202.059 280.93 205.281 282.647C211.105 285.742 214.982 289.378 216.704 292.431C217.092 293.091 217.437 293.774 217.736 294.478C217.938 294.995 218.113 295.523 218.26 296.059C218.46 296.932 218.543 297.373 218.543 297.373C218.543 297.373 218.426 296.932 218.218 296.067C218.119 295.634 217.886 295.127 217.669 294.511C217.561 294.195 217.37 293.887 217.212 293.546C217.042 293.177 216.845 292.821 216.621 292.481C214.882 289.461 211.005 285.875 205.189 282.805C201.966 281.107 198.63 279.631 195.205 278.387L183.042 274.027L153.273 263.311L145.943 261.506H142.615V261.389L141.442 258.153L141.566 258.269C137.668 257.359 133.687 256.846 129.685 256.738C125.473 256.57 121.255 256.714 117.064 257.171C108.102 258.151 99.2938 260.23 90.8393 263.361H90.8975L89.8742 264.193L89.9491 264.043C89.8076 268.411 89.8409 272.879 90.1321 277.355C90.2736 279.625 90.5346 281.886 90.9142 284.128C91.1244 285.253 91.4022 286.364 91.7462 287.456C92.0533 288.548 92.5674 289.57 93.2604 290.468L93.1023 290.393C107.787 290.202 123.054 289.977 138.762 289.894H141.699C142.19 289.894 142.681 289.894 143.172 289.894C143.426 289.892 143.679 289.931 143.921 290.01C144.17 290.063 144.415 290.136 144.653 290.226C146.508 290.867 148.289 291.624 150.086 292.356C153.655 293.846 157.183 295.377 160.669 296.907C167.647 299.969 174.477 303.02 181.161 306.059L181.386 306.159L181.253 306.367L151.201 352.443L151.151 352.177L175.978 369.549H175.737L196.129 340.762C202.128 332.226 207.544 324.954 211.538 318.756C213.329 316.037 214.928 313.195 216.322 310.253C217.361 308.072 218.108 305.764 218.543 303.389C218.788 301.918 218.86 300.425 218.759 298.938C218.643 297.939 218.601 297.415 218.601 297.415Z" fill="#455A64"/>
<path d="M195.947 300.675C195.162 300.86 194.368 301.001 193.567 301.1C189.756 301.795 186.12 303.237 182.868 305.343C181.62 306.175 180.888 306.707 180.838 306.658C181.382 306.054 182.007 305.528 182.693 305.093C184.292 303.956 186.024 303.02 187.852 302.306C189.677 301.59 191.582 301.095 193.526 300.834C194.324 300.684 195.137 300.631 195.947 300.675Z" fill="#455A64"/>
<path d="M190.547 224.948V227.586L184.116 228.185L183.75 226.837L185.481 222.818L190.547 224.948Z" fill="#3FBCFC"/>
<path d="M185.52 227.028L177.216 243.651L179.055 273.487L174.887 279.993L170.502 272.488L171.259 244.1L184.188 225.805L185.52 227.028Z" fill="#3FBCFC"/>
<path d="M188.034 199.291C188.034 199.291 176.319 194.848 164.995 194.107C153.672 193.367 139.669 200.963 132.98 203.933C126.291 206.903 100.715 232.221 95.1823 240.641C92.0124 245.483 87.7859 256.449 87.7859 256.449C87.0703 260.276 89.7411 264.003 89.7411 264.003L141.234 264.386H150.893L154.978 255.659C154.978 255.659 162.774 255.101 165.004 250.833C167.234 246.565 175.404 240.25 175.404 240.25L184.706 224.858L190.829 226.156L194.224 200.006L188.034 199.291Z" fill="#E0E0E0"/>
<path d="M149.862 210.994C149.819 211.302 149.74 211.603 149.629 211.893C149.437 212.558 149.196 213.357 148.905 214.305C148.138 216.958 147.511 219.649 147.024 222.368C146.552 225.091 146.227 227.838 146.051 230.596C146.001 231.578 145.951 232.418 145.918 233.092C145.92 233.402 145.89 233.712 145.826 234.016C145.759 233.713 145.731 233.402 145.743 233.092C145.743 232.501 145.743 231.636 145.743 230.596C145.82 227.806 146.098 225.026 146.575 222.276C147.058 219.54 147.731 216.84 148.589 214.197C148.921 213.182 149.221 212.375 149.421 211.826C149.535 211.533 149.683 211.253 149.862 210.994Z" fill="#263238"/>
<path d="M172.435 313.59C172.435 313.59 175.962 317.7 177.052 319.189C178.034 320.52 179.007 325.396 179.382 330.155C179.408 330.438 179.364 330.723 179.253 330.984C179.142 331.246 178.967 331.476 178.745 331.653C178.523 331.83 178.261 331.95 177.981 332.001C177.702 332.051 177.414 332.032 177.144 331.944C176.908 331.854 176.7 331.703 176.541 331.507C176.382 331.312 176.277 331.078 176.237 330.829C175.48 327.384 175.28 325.92 175.28 325.92C175.18 324.256 175.006 324.489 174.956 325.612C174.906 326.735 175.788 332.95 175.788 332.95C175.788 332.95 178.167 341.428 177.526 342.377C177.39 342.566 177.212 342.721 177.007 342.832C176.802 342.942 176.575 343.005 176.342 343.015C176.109 343.026 175.877 342.983 175.663 342.892C175.449 342.8 175.258 342.661 175.105 342.485C174.781 342.044 172.102 334.997 172.102 334.997L171.395 331.137C171.395 331.137 172.776 343.334 172.002 344.29C171.887 344.465 171.733 344.61 171.552 344.713C171.37 344.816 171.167 344.875 170.958 344.885C170.75 344.895 170.542 344.855 170.352 344.769C170.161 344.683 169.994 344.553 169.864 344.39C169.323 343.908 168.774 338.516 168.774 338.516L167.518 331.32L167.742 345.039C167.742 345.039 167.601 346.337 166.577 346.387C165.554 346.437 164.913 344.931 164.913 344.931L163.441 330.787C163.441 330.787 163.915 338.65 163.382 339.066C162.675 339.615 162.035 339.432 161.802 338.824C161.327 337.601 160.637 330.504 160.637 330.504L159.988 317.042L159.514 312.591L171.295 308.373L172.435 313.59Z" fill="#FFBF9D"/>
<g opacity="0.3">
<path d="M146.907 229.514C143.247 240.846 140.668 252.498 139.203 264.316C139.347 268.595 139.837 272.855 140.667 277.054C142.024 283.785 153.064 312.972 153.064 312.972L160.627 313.629L154.254 261.779L160.627 237.542L146.907 229.514Z" fill="black"/>
</g>
<path d="M180.813 207.41C185.996 209.008 186.97 219.516 185.855 222.511C182.286 232.121 170.879 241.148 171.045 240.624L163.632 270.11L174.14 310.046L157.151 316.128C157.151 316.128 141.651 275.127 141.343 268.704C141.035 262.281 145.653 245.541 146.335 235.532C146.776 229.1 150.037 216.055 157.983 208.375" fill="#E0E0E0"/>
<path d="M157.991 208.316C157.991 208.316 157.866 208.466 157.608 208.749C157.35 209.032 156.951 209.439 156.46 210.005C155.061 211.674 153.813 213.464 152.733 215.355C151.042 218.372 149.676 221.56 148.656 224.865C147.999 226.926 147.474 229.027 147.083 231.154C146.884 232.286 146.701 233.451 146.592 234.657C146.484 235.864 146.409 237.153 146.235 238.393C145.636 243.485 144.521 249.001 143.398 254.941C142.848 257.903 142.266 260.982 141.85 264.168C141.613 265.776 141.537 267.404 141.625 269.027L141.8 270.242L142.083 271.457C142.258 272.289 142.491 273.121 142.724 273.953C143.631 277.231 144.712 280.559 145.844 283.937C146.975 287.314 148.173 290.784 149.413 294.303C151.909 301.334 154.555 308.605 157.35 316.043L157.076 315.919L164.971 313.09L174.065 309.837L173.932 310.095C170.196 295.892 166.66 282.431 163.44 270.159V270.059C166.194 259.176 168.699 249.259 170.887 240.581L171.195 240.664C171.202 240.642 171.203 240.618 171.199 240.595C171.194 240.572 171.184 240.55 171.169 240.532C171.154 240.514 171.135 240.5 171.114 240.491C171.092 240.482 171.068 240.479 171.045 240.481H171.095L171.211 240.415L171.444 240.257L171.91 239.907L172.809 239.183C173.391 238.684 173.957 238.185 174.473 237.677C175.571 236.671 176.603 235.639 177.568 234.607C179.394 232.674 181.064 230.599 182.56 228.401C183.885 226.499 184.961 224.435 185.763 222.26C186.175 220.359 186.226 218.398 185.913 216.478C185.447 212.992 184.299 210.396 183.051 208.99C182.417 208.289 181.632 207.743 180.754 207.393C180.754 207.393 180.987 207.476 181.428 207.659C181.704 207.774 181.962 207.928 182.194 208.116C182.537 208.352 182.848 208.631 183.117 208.948C184.407 210.313 185.613 212.925 186.087 216.436C186.222 217.362 186.294 218.296 186.304 219.232C186.333 220.268 186.221 221.304 185.971 222.31C185.178 224.512 184.101 226.602 182.768 228.525C181.273 230.743 179.604 232.838 177.776 234.79C176.802 235.83 175.771 236.87 174.672 237.885C174.123 238.401 173.558 238.909 173.008 239.408C172.717 239.649 172.418 239.899 172.11 240.14L171.636 240.498L171.386 240.664L171.253 240.747H171.17H171.095C171.066 240.751 171.036 240.747 171.008 240.737C170.981 240.726 170.956 240.709 170.936 240.687C170.917 240.665 170.903 240.639 170.896 240.61C170.888 240.581 170.888 240.552 170.895 240.523L171.211 240.606L163.831 270.1V270.001L174.356 309.937L174.406 310.128L174.223 310.194L165.129 313.448L157.225 316.276L157.026 316.351L156.951 316.152C154.155 308.705 151.51 301.425 149.022 294.395C147.791 290.875 146.584 287.414 145.461 284.02C144.338 280.625 143.264 277.281 142.349 273.986C142.116 273.154 141.892 272.322 141.717 271.49C141.617 271.074 141.526 270.658 141.434 270.258C141.343 269.859 141.309 269.426 141.251 268.994C141.163 267.348 141.244 265.698 141.492 264.068C141.917 260.857 142.499 257.787 143.065 254.817C144.205 248.876 145.336 243.377 145.952 238.293C146.127 237.028 146.193 235.797 146.318 234.574C146.443 233.351 146.626 232.178 146.834 231.046C147.234 228.912 147.77 226.806 148.439 224.74C149.476 221.425 150.871 218.234 152.599 215.222C153.692 213.326 154.966 211.54 156.402 209.889C157.417 208.832 157.991 208.316 157.991 208.316Z" fill="#263238"/>
<path d="M185.538 214.232C185.453 213.497 185.453 212.754 185.538 212.019C185.619 210.242 185.791 208.47 186.054 206.711C186.316 204.951 186.671 203.207 187.119 201.486C187.263 200.759 187.495 200.052 187.81 199.381C187.739 200.114 187.608 200.84 187.419 201.552C187.144 202.884 186.795 204.731 186.487 206.777C186.179 208.824 185.979 210.688 185.846 212.044C185.81 212.781 185.707 213.513 185.538 214.232Z" fill="#263238"/>
<g opacity="0.3">
<path d="M187.418 199.998C187.243 199.923 187.06 200.098 186.944 200.256C185.857 201.518 184.988 202.952 184.373 204.499C183.449 207.262 184.431 210.323 185.271 213.152C186.054 215.852 186.336 218.671 186.103 221.472L185.895 222.446C186.79 220.693 187.043 218.683 186.611 216.763C186.174 214.863 185.835 212.941 185.596 211.006C185.404 207.436 186.844 204.009 187.559 200.514C187.601 200.348 187.609 200.073 187.418 199.998Z" fill="black"/>
</g>
<path d="M129.37 278.172H124.07V316.094H129.37V278.172Z" fill="#E0E0E0"/>
<path d="M48.2998 253.393C48.7732 254.514 49.6399 255.424 50.7369 255.951C51.834 256.478 53.0858 256.586 54.2569 256.255C66.6777 252.834 79.7742 252.7 92.2627 255.864C109.793 260.215 116.191 269.659 118.571 275.599C119.154 277.021 120.15 278.237 121.429 279.089C122.708 279.941 124.213 280.392 125.751 280.383H126.466C127.206 280.378 127.935 280.208 128.601 279.887C129.266 279.566 129.853 279.1 130.317 278.525C130.781 277.949 131.111 277.278 131.284 276.559C131.457 275.84 131.468 275.091 131.317 274.368C129.503 266.131 118.546 251.82 98.9603 246.529C75.3897 240.156 59.0243 244.399 51.4115 246.77C50.7572 246.979 50.1531 247.321 49.6368 247.774C49.1206 248.227 48.7034 248.781 48.4114 249.403C48.1193 250.025 47.9586 250.7 47.9394 251.386C47.9203 252.073 48.0429 252.756 48.2998 253.393Z" fill="#455A64"/>
<path d="M48.2999 253.395C48.2999 253.395 48.2251 253.237 48.1086 252.912C47.9079 252.274 47.8377 251.602 47.902 250.936C47.9663 250.27 48.1639 249.624 48.483 249.035C49.0351 248.03 49.9165 247.246 50.979 246.814C57.7674 244.569 64.8412 243.302 71.987 243.053C76.9145 242.878 81.8479 243.137 86.73 243.827C88.0446 244.035 89.3841 244.226 90.7319 244.459L94.8337 245.291L98.9937 246.323C100.375 246.772 101.814 247.155 103.212 247.663C104.61 248.17 106.041 248.703 107.422 249.376C108.112 249.709 108.828 249.992 109.51 250.367L111.574 251.473C114.356 253.055 116.987 254.887 119.436 256.948C121.969 259.089 124.264 261.496 126.283 264.128L127.049 265.135L127.756 266.2C127.981 266.549 128.23 266.898 128.447 267.264L129.079 268.379C129.941 269.877 130.635 271.464 131.151 273.113C131.259 273.538 131.383 273.945 131.492 274.378C131.576 274.816 131.607 275.263 131.583 275.709C131.504 277.047 130.907 278.302 129.92 279.209C128.933 280.115 127.632 280.603 126.292 280.568C124.576 280.663 122.873 280.224 121.416 279.312C119.985 278.404 118.885 277.059 118.279 275.476C117.679 273.997 116.938 272.579 116.066 271.241C115.659 270.559 115.168 269.944 114.71 269.311C114.253 268.679 113.745 268.08 113.204 267.522C111.145 265.285 108.788 263.342 106.199 261.748C103.732 260.237 101.127 258.964 98.4196 257.946C95.8529 257.006 93.2262 256.239 90.5572 255.65C85.7768 254.549 80.9004 253.916 75.9972 253.761C68.8906 253.52 61.7871 254.325 54.9143 256.149C54.3431 256.338 53.7506 256.455 53.1505 256.498C52.4695 256.528 51.7897 256.418 51.1529 256.174C50.5162 255.931 49.936 255.56 49.4481 255.084C48.9605 254.618 48.5826 254.05 48.3415 253.42C48.633 254.026 49.0303 254.576 49.5147 255.042C50.1031 255.586 50.8137 255.98 51.5863 256.191C52.0863 256.317 52.602 256.37 53.1172 256.349C53.7059 256.296 54.2865 256.176 54.8478 255.991C61.7405 254.1 68.8787 253.259 76.0222 253.495C80.9548 253.616 85.863 254.229 90.6737 255.325C93.3587 255.913 96.0018 256.677 98.586 257.613C101.323 258.634 103.956 259.916 106.448 261.44C109.071 263.045 111.46 265.005 113.545 267.264C114.094 267.822 114.56 268.463 115.076 269.07C115.592 269.677 116.033 270.343 116.449 271.033C117.341 272.389 118.096 273.83 118.704 275.335C119.281 276.835 120.325 278.11 121.682 278.971C123.07 279.836 124.692 280.252 126.325 280.16C127.556 280.195 128.752 279.749 129.659 278.916C130.566 278.083 131.113 276.93 131.184 275.701C131.206 275.291 131.178 274.881 131.101 274.478C131.001 274.07 130.876 273.646 130.768 273.255C130.262 271.636 129.581 270.076 128.738 268.604L128.13 267.489C127.914 267.131 127.673 266.782 127.44 266.432L126.716 265.409L125.959 264.411C123.958 261.806 121.684 259.421 119.178 257.297C116.75 255.252 114.141 253.434 111.382 251.864L109.344 250.758C108.67 250.383 107.954 250.109 107.272 249.776C105.899 249.102 104.485 248.603 103.112 248.07C101.739 247.538 100.3 247.172 98.9521 246.731L94.7921 245.691L90.707 244.859C89.3591 244.617 88.0279 244.426 86.7217 244.21C81.86 243.509 76.9467 243.231 72.0369 243.378C64.9195 243.599 57.868 244.815 51.0871 246.989C50.0506 247.392 49.1881 248.146 48.6494 249.119C48.2458 249.824 48.0255 250.619 48.0087 251.432C47.9888 252.098 48.0874 252.763 48.2999 253.395Z" fill="#263238"/>
<path d="M56.9922 251.39C56.9922 252.184 56.7565 252.961 56.3149 253.622C55.8734 254.283 55.2458 254.798 54.5115 255.102C53.7772 255.406 52.9692 255.486 52.1897 255.331C51.4101 255.176 50.6941 254.793 50.1321 254.231C49.5701 253.669 49.1874 252.953 49.0323 252.174C48.8772 251.394 48.9568 250.586 49.261 249.852C49.5651 249.118 50.0802 248.49 50.741 248.048C51.4019 247.607 52.1788 247.371 52.9736 247.371C53.5017 247.37 54.0247 247.473 54.5128 247.675C55.0008 247.876 55.4443 248.172 55.8176 248.546C56.191 248.919 56.487 249.362 56.6885 249.851C56.8901 250.339 56.9933 250.862 56.9922 251.39Z" fill="white"/>
<path d="M295.361 224.514H314.314L312.833 234.939C312.833 234.939 311.602 240.064 308.673 240.064H300.461C299.452 239.445 298.578 238.628 297.892 237.663C297.205 236.698 296.721 235.605 296.468 234.448L295.361 224.514Z" fill="#455A64"/>
<path d="M295.361 224.513C295.389 224.623 295.408 224.734 295.42 224.846C295.42 225.079 295.494 225.387 295.553 225.77C295.661 226.602 295.819 227.775 296.019 229.239C296.218 230.703 296.451 232.517 296.717 234.556C296.976 235.67 297.456 236.721 298.129 237.646C298.802 238.571 299.655 239.35 300.636 239.939H300.561H307.126C307.708 239.939 308.299 239.939 308.873 239.939C309.441 239.906 309.979 239.677 310.396 239.29C311.265 238.455 311.919 237.421 312.301 236.278C312.469 235.839 312.613 235.392 312.733 234.938C313.241 231.253 313.724 227.75 314.165 224.513L314.314 224.688L300.711 224.613L296.792 224.572H295.736H295.361C295.475 224.558 295.589 224.558 295.702 224.572H296.726L300.611 224.53L314.314 224.455H314.481V224.621C314.04 227.858 313.565 231.369 313.075 235.046C312.957 235.516 312.809 235.977 312.634 236.428C312.228 237.622 311.54 238.701 310.629 239.573C310.159 240.005 309.552 240.258 308.915 240.288C308.316 240.288 307.733 240.288 307.151 240.288H300.586H300.545C299.532 239.675 298.654 238.863 297.964 237.9C297.275 236.938 296.789 235.845 296.534 234.689C296.26 232.6 296.077 230.778 295.902 229.281C295.727 227.783 295.611 226.643 295.528 225.811L295.428 224.904C295.39 224.777 295.368 224.646 295.361 224.513Z" fill="#263238"/>
<path d="M312.833 229.889L313.116 229.822C312.941 229.822 313.166 229.822 313.199 229.822C313.404 229.81 313.61 229.81 313.815 229.822C313.615 229.822 313.815 229.822 313.89 229.822L314.214 229.905L314.48 229.988C314.605 230.03 314.48 229.988 314.43 229.988L314.605 230.072C314.786 230.17 314.961 230.278 315.129 230.396C315.237 230.471 315.129 230.396 315.088 230.396L315.196 230.488C315.278 230.561 315.355 230.639 315.429 230.721C315.487 230.787 315.603 230.945 315.495 230.787C315.562 230.879 315.62 230.97 315.678 231.062C315.737 231.153 315.77 231.236 315.811 231.32C315.853 231.403 315.811 231.32 315.811 231.27C315.839 231.329 315.861 231.39 315.878 231.453C315.916 231.559 315.947 231.667 315.97 231.777C315.97 231.819 316.028 232.093 316.011 231.96C315.994 231.827 316.011 232.102 316.011 232.143C316.019 232.257 316.019 232.371 316.011 232.484C316.011 232.551 316.011 232.618 316.011 232.684C316.011 232.751 316.011 232.859 316.011 232.684C316.001 232.746 315.987 232.807 315.97 232.867C315.953 232.964 315.928 233.058 315.895 233.15C315.895 233.225 315.77 233.483 315.895 233.283C315.805 233.476 315.702 233.662 315.587 233.841L315.504 233.957C315.504 233.957 315.62 233.824 315.504 233.915C315.387 234.007 315.329 234.098 315.237 234.19C315.146 234.282 314.996 234.381 315.096 234.315C315.196 234.248 314.971 234.39 314.938 234.406L314.688 234.548L314.563 234.614C314.63 234.614 314.705 234.539 314.563 234.614C314.497 234.614 314.131 234.731 313.914 234.789C313.698 234.847 313.973 234.789 313.989 234.789H313.798H313.149H312.966L312.6 234.673C312.758 234.739 312.475 234.606 312.475 234.606C312.346 234.53 312.202 234.48 312.054 234.46C311.905 234.439 311.754 234.448 311.609 234.486C311.463 234.524 311.327 234.59 311.207 234.68C311.088 234.771 310.987 234.884 310.911 235.014C310.835 235.143 310.785 235.286 310.765 235.435C310.744 235.584 310.753 235.735 310.791 235.88C310.829 236.025 310.895 236.162 310.985 236.282C311.076 236.401 311.189 236.502 311.319 236.578C312.412 237.146 313.679 237.282 314.868 236.958C316.056 236.635 317.08 235.875 317.733 234.831C318.35 233.737 318.539 232.453 318.266 231.228C318.127 230.632 317.872 230.07 317.515 229.573C317.158 229.076 316.706 228.654 316.186 228.333C315.612 227.972 314.97 227.734 314.3 227.632C313.631 227.53 312.947 227.568 312.292 227.742C312 227.823 311.751 228.016 311.602 228.28C311.452 228.543 311.413 228.856 311.493 229.148C311.574 229.44 311.767 229.689 312.031 229.839C312.295 229.988 312.607 230.027 312.899 229.947L312.833 229.889Z" fill="#455A64"/>
<path d="M312.833 229.888C312.714 229.946 312.582 229.969 312.45 229.955C312.254 229.945 312.063 229.887 311.894 229.785C311.726 229.684 311.585 229.542 311.485 229.373C311.403 229.235 311.349 229.083 311.326 228.925C311.304 228.766 311.313 228.605 311.353 228.45C311.393 228.295 311.464 228.15 311.561 228.023C311.658 227.895 311.779 227.789 311.918 227.709C312.267 227.549 312.642 227.454 313.024 227.426C313.447 227.372 313.875 227.372 314.297 227.426C315.268 227.571 316.173 228 316.902 228.657C317.751 229.411 318.295 230.45 318.432 231.577C318.601 232.824 318.305 234.088 317.6 235.13C317.213 235.674 316.717 236.132 316.144 236.475C315.572 236.819 314.935 237.041 314.272 237.127C313.68 237.21 313.078 237.194 312.492 237.077C312.21 237.011 311.932 236.928 311.66 236.827L311.261 236.644C311.114 236.579 310.984 236.482 310.878 236.361C310.681 236.117 310.574 235.814 310.574 235.5C310.574 235.187 310.681 234.883 310.878 234.639C311.084 234.412 311.361 234.262 311.663 234.214C311.966 234.166 312.276 234.222 312.542 234.373L312.326 234.506C312.327 234.47 312.341 234.435 312.365 234.407C312.39 234.38 312.423 234.362 312.459 234.356C312.542 234.356 312.55 234.356 312.542 234.356H312.6C312.6 234.265 312.717 234.589 312.534 234.623H312.442H312.375V234.581C312.292 234.248 312.608 234.34 312.517 234.331H312.567L312.683 234.373C312.839 234.423 312.997 234.461 313.158 234.489C313.158 234.489 313.158 234.489 313.241 234.531C313.324 234.573 313.291 234.531 313.282 234.672C313.274 234.814 313.166 234.789 313.158 234.789H313.083H313.016H312.958C312.958 234.789 312.875 234.747 312.916 234.606C312.958 234.464 313.024 234.539 313.041 234.531H313.415C313.573 234.539 313.732 234.539 313.89 234.531V234.814H313.84H313.765C313.727 234.814 313.692 234.799 313.665 234.772C313.648 234.749 313.639 234.722 313.639 234.693C313.639 234.665 313.648 234.637 313.665 234.614C313.665 234.556 313.665 234.573 313.665 234.564L313.732 234.523H313.865L314.106 234.456L314.356 234.39H314.464C314.406 234.331 314.464 234.672 314.547 234.631H314.605H314.555L314.422 234.381L314.747 234.207L314.896 234.115C314.926 234.106 314.958 234.106 314.988 234.115C315.015 234.124 315.041 234.138 315.063 234.157C315.085 234.184 315.097 234.217 315.097 234.252C315.097 234.287 315.085 234.321 315.063 234.348H315.013C314.986 234.358 314.956 234.358 314.93 234.348C314.906 234.344 314.884 234.334 314.866 234.319C314.847 234.305 314.832 234.286 314.822 234.265C314.772 234.19 314.871 234.082 314.822 234.107C314.918 234.038 315.007 233.96 315.088 233.874L315.204 233.749C315.204 233.749 315.346 233.749 315.379 233.84C315.412 233.932 315.379 233.907 315.379 233.924L315.329 233.982L315.113 233.824C315.263 233.616 315.371 233.391 315.495 233.183L315.728 233.291V233.333C315.728 233.333 315.728 233.333 315.629 233.333C315.612 233.332 315.596 233.328 315.581 233.32C315.567 233.313 315.554 233.303 315.543 233.291C315.532 233.278 315.524 233.264 315.518 233.248C315.513 233.233 315.511 233.216 315.512 233.2V233.108C315.535 233.057 315.555 233.004 315.57 232.95C315.57 232.842 315.629 232.734 315.654 232.626V232.543C315.654 232.543 315.654 232.543 315.703 232.468C315.721 232.457 315.741 232.452 315.762 232.452C315.782 232.452 315.802 232.457 315.82 232.468H315.87C315.879 232.5 315.879 232.535 315.87 232.567V232.651C315.953 232.742 315.52 232.701 315.637 232.651V232.576C315.633 232.551 315.633 232.526 315.637 232.501C315.637 232.393 315.637 232.285 315.637 232.185C315.645 232.082 315.645 231.979 315.637 231.877V231.785C315.639 231.766 315.645 231.746 315.655 231.729C315.665 231.712 315.679 231.697 315.695 231.686C315.712 231.673 315.733 231.667 315.753 231.667C315.774 231.667 315.795 231.673 315.812 231.686C315.821 231.689 315.83 231.694 315.837 231.702C315.844 231.709 315.85 231.718 315.853 231.727C315.853 231.769 315.853 231.769 315.853 231.769V231.819C315.857 231.835 315.857 231.852 315.853 231.869C315.853 231.869 315.853 231.869 315.787 231.91C315.761 231.917 315.734 231.915 315.71 231.904C315.686 231.894 315.666 231.875 315.654 231.852L315.612 231.669C315.571 231.48 315.518 231.294 315.454 231.111L315.654 231.037V231.078C315.656 231.091 315.656 231.104 315.653 231.116C315.65 231.129 315.644 231.141 315.636 231.151C315.628 231.161 315.618 231.17 315.607 231.176C315.596 231.182 315.583 231.185 315.57 231.186C315.487 231.186 315.487 231.186 315.479 231.186C315.479 231.186 315.479 231.12 315.421 231.087L315.337 230.912L315.138 230.604L315.304 230.496V230.537C315.312 230.551 315.316 230.567 315.316 230.583C315.316 230.599 315.312 230.615 315.304 230.629C315.295 230.643 315.283 230.654 315.268 230.662C315.254 230.67 315.237 230.674 315.221 230.674C315.204 230.674 315.188 230.67 315.174 230.662C315.159 230.654 315.147 230.643 315.138 230.629L315.079 230.554C315.042 230.506 315 230.461 314.955 230.421L314.713 230.188L314.83 230.055H314.88C314.68 230.329 314.797 230.121 314.755 230.18L314.647 230.113L314.439 229.98C314.318 229.897 314.19 229.824 314.056 229.764L314.123 229.622H314.189H314.239C314.239 229.622 314.281 229.722 314.239 229.739H314.198H314.497L314.364 229.689L314.114 229.614L313.881 229.556H313.773C313.823 229.556 313.673 229.614 313.773 229.439H313.865V229.556H313.316H313.108C313.108 229.556 313.108 229.556 313.108 229.506H313.232C313.232 229.506 313.232 229.506 313.232 229.547H313.166C313.062 229.571 312.956 229.585 312.85 229.589C312.947 229.541 313.051 229.507 313.158 229.489H313.199H313.108H313.865V229.606H313.773C313.873 229.423 313.715 229.506 313.773 229.489H313.906L314.156 229.539L314.414 229.614L314.547 229.655C314.497 229.855 314.497 229.78 314.489 229.789H314.406L314.472 229.647C314.61 229.71 314.744 229.782 314.871 229.863L315.088 229.988L315.204 230.055L315.163 230.121L315.104 230.071L315.221 229.938C315.311 230.011 315.397 230.089 315.479 230.171C315.479 230.221 315.57 230.255 315.62 230.313L315.679 230.388C315.679 230.388 315.637 230.388 315.62 230.388V230.346L315.787 230.238C315.853 230.338 315.928 230.438 315.995 230.554L316.086 230.729C316.086 230.729 316.144 230.779 316.086 230.82L316.028 230.87C316.006 230.863 315.983 230.863 315.961 230.87H315.92V230.812L316.119 230.737C316.194 230.929 316.255 231.127 316.303 231.328V231.403V231.461C316.303 231.461 316.303 231.461 316.236 231.461C316.169 231.461 316.236 231.461 316.194 231.461C316.185 231.457 316.175 231.455 316.165 231.455C316.155 231.455 316.145 231.457 316.136 231.461H316.086H316.153H316.194C316.194 231.461 316.236 231.461 316.244 231.461H316.161V231.519C316.161 231.619 316.161 231.744 316.161 231.852C316.174 231.963 316.174 232.074 316.161 232.185C316.166 232.215 316.166 232.246 316.161 232.276C316.161 232.276 316.119 232.276 316.061 232.276H315.92V232.201C315.92 232.201 316.003 232.201 315.986 232.201C316.169 232.201 316.095 232.201 316.111 232.201V232.285C316.111 232.393 316.053 232.518 316.02 232.634C316.007 232.694 315.987 232.753 315.961 232.809V232.884C315.637 232.751 315.753 232.784 315.745 232.767V232.726L315.978 232.834C315.845 233.058 315.737 233.3 315.579 233.524L315.362 233.366L315.421 233.3H315.471C315.471 233.3 315.529 233.3 315.545 233.358V233.399C315.545 233.399 315.595 233.466 315.587 233.449L315.462 233.583C315.377 233.672 315.285 233.755 315.188 233.832C315.129 233.782 315.129 233.741 315.113 233.749C315.096 233.757 315.113 233.749 315.113 233.707L315.071 233.632C315.071 233.632 315.113 233.682 315.071 233.691C315.03 233.699 315.071 233.766 315.071 233.766C315.07 233.783 315.074 233.8 315.083 233.815C315.092 233.83 315.105 233.842 315.121 233.849H315.079L314.921 233.949L314.589 234.132L314.455 233.882H314.514H314.614C314.738 233.882 314.763 234.19 314.697 234.123H314.655L314.522 234.173L314.272 234.24L314.015 234.306H313.89C313.89 234.306 313.89 234.373 313.84 234.182C313.84 234.182 313.84 234.015 313.84 234.032H313.956V234.315C313.787 234.327 313.618 234.327 313.449 234.315C313.363 234.323 313.277 234.323 313.191 234.315H313.099V234.173C313.099 234.173 313.099 234.09 313.099 234.048H313.191C313.191 234.048 313.191 234.115 313.191 234.123C313.191 234.132 313.191 234.123 313.191 234.173C313.191 234.173 313.191 234.173 313.191 234.231C313.198 234.256 313.198 234.282 313.191 234.306C313.02 234.274 312.85 234.232 312.683 234.182L312.559 234.14H312.484V234.09C312.486 234.062 312.486 234.035 312.484 234.007C312.592 233.791 312.534 233.89 312.55 233.865H312.6C312.6 233.865 312.6 233.965 312.559 233.982L312.492 234.098H312.434C312.464 234.107 312.495 234.107 312.525 234.098C312.548 234.093 312.57 234.083 312.589 234.069C312.607 234.055 312.623 234.036 312.633 234.015V233.974C312.633 233.974 312.633 233.974 312.517 233.974L312.417 234.115C312.215 234.006 311.982 233.966 311.755 234.003C311.528 234.039 311.319 234.148 311.161 234.315C311.016 234.502 310.937 234.731 310.937 234.968C310.937 235.204 311.016 235.434 311.161 235.621C311.354 235.787 311.577 235.914 311.818 235.995C312.075 236.092 312.339 236.167 312.608 236.22C313.156 236.335 313.719 236.355 314.272 236.278C314.895 236.202 315.494 235.996 316.033 235.676C316.571 235.355 317.037 234.925 317.401 234.415C318.08 233.446 318.376 232.261 318.233 231.087C318.112 230.025 317.61 229.043 316.818 228.324C316.123 227.685 315.255 227.265 314.322 227.118C313.571 226.977 312.795 227.041 312.076 227.301C311.947 227.377 311.834 227.478 311.744 227.598C311.654 227.718 311.589 227.855 311.552 228C311.493 228.25 311.535 228.513 311.668 228.732C311.751 228.888 311.87 229.021 312.015 229.123C312.159 229.224 312.326 229.289 312.5 229.314C312.582 229.521 312.694 229.715 312.833 229.888Z" fill="#263238"/>
<path d="M308.15 220.829C308.369 220.622 308.567 220.393 308.74 220.147C308.954 219.802 309.096 219.419 309.159 219.019C309.222 218.619 309.204 218.21 309.107 217.817C308.963 217.279 308.651 216.801 308.216 216.452C307.759 216.053 307.176 215.737 306.635 215.263C306.358 215.015 306.127 214.719 305.953 214.389C305.765 214.034 305.712 213.624 305.803 213.233C305.908 212.836 306.121 212.475 306.419 212.193C306.694 211.901 307.002 211.652 307.251 211.361C307.533 211.111 307.755 210.801 307.9 210.454C308.008 210.11 308.008 209.741 307.9 209.397C307.677 208.722 307.301 208.107 306.802 207.6C306.331 207.117 305.95 206.553 305.679 205.936C305.474 205.381 305.411 204.783 305.496 204.197C305.616 203.351 306.025 202.573 306.652 201.992C306.823 201.842 307.01 201.71 307.21 201.601L307.426 201.51C307.18 201.682 306.944 201.868 306.719 202.067C306.144 202.651 305.778 203.409 305.679 204.222C305.606 204.785 305.674 205.357 305.878 205.886C306.154 206.47 306.528 207.002 306.985 207.459C307.516 207.988 307.915 208.635 308.15 209.347C308.274 209.74 308.274 210.161 308.15 210.554C307.995 210.942 307.753 211.289 307.443 211.569C306.877 212.134 306.203 212.6 306.036 213.299C305.992 213.638 306.037 213.983 306.169 214.299C306.3 214.614 306.513 214.889 306.785 215.096C307.284 215.546 307.867 215.87 308.341 216.294C308.576 216.495 308.778 216.731 308.94 216.993C309.088 217.236 309.198 217.499 309.265 217.775C309.365 218.19 309.375 218.62 309.297 219.039C309.218 219.458 309.051 219.855 308.807 220.205C308.642 220.463 308.416 220.678 308.15 220.829Z" fill="#263238"/>
<path d="M304.513 220.829C304.728 220.62 304.923 220.392 305.095 220.147C305.312 219.804 305.457 219.42 305.52 219.02C305.583 218.619 305.563 218.21 305.461 217.817C305.325 217.275 305.012 216.795 304.571 216.452C304.113 216.053 303.531 215.737 302.998 215.263C302.718 215.017 302.487 214.72 302.316 214.389C302.125 214.035 302.069 213.625 302.158 213.233C302.27 212.838 302.482 212.48 302.774 212.193C303.057 211.901 303.356 211.652 303.606 211.361C303.882 211.108 304.101 210.799 304.246 210.454C304.361 210.111 304.361 209.74 304.246 209.397C304.023 208.722 303.647 208.107 303.148 207.6C302.677 207.115 302.294 206.552 302.017 205.936C301.812 205.381 301.749 204.783 301.834 204.197C301.953 203.349 302.365 202.569 302.998 201.992C303.166 201.838 303.353 201.706 303.556 201.601C303.622 201.559 303.695 201.528 303.772 201.51C303.526 201.682 303.29 201.868 303.065 202.067C302.49 202.652 302.122 203.409 302.017 204.222C301.943 204.785 302.014 205.358 302.225 205.886C302.5 206.47 302.874 207.002 303.331 207.459C303.859 207.99 304.258 208.636 304.496 209.347C304.62 209.74 304.62 210.161 304.496 210.554C304.338 210.94 304.096 211.287 303.789 211.569C303.223 212.134 302.541 212.6 302.374 213.299C302.331 213.638 302.378 213.982 302.509 214.298C302.641 214.613 302.852 214.888 303.123 215.096C303.622 215.546 304.213 215.87 304.679 216.294C304.916 216.495 305.121 216.73 305.286 216.993C305.427 217.239 305.536 217.502 305.611 217.775C305.707 218.19 305.715 218.62 305.637 219.038C305.558 219.456 305.393 219.853 305.153 220.205C304.991 220.46 304.771 220.673 304.513 220.829Z" fill="#263238"/>
<path d="M331.226 170.813L329.389 172.352L352.666 200.141L354.503 198.603L331.226 170.813Z" fill="#263238"/>
<path d="M333.938 166.915L332.102 168.453L355.379 196.243L357.215 194.704L333.938 166.915Z" fill="#263238"/>
<path d="M355.763 199.677L353.736 198.398L330.47 235.258L332.497 236.537L355.763 199.677Z" fill="#263238"/>
<path d="M361.009 200.697L358.982 199.418L336.17 235.56L338.196 236.839L361.009 200.697Z" fill="#263238"/>
<path d="M355.881 195.053L352.228 199.995C351.781 200.597 351.571 201.342 351.637 202.089C351.703 202.836 352.04 203.532 352.586 204.047C353.045 204.478 353.626 204.758 354.249 204.848C354.873 204.939 355.509 204.836 356.072 204.554L360.989 202.058C361.418 201.847 361.792 201.539 362.081 201.157C362.37 200.776 362.566 200.332 362.653 199.862L362.703 199.562C362.8 199.016 362.747 198.453 362.55 197.934C362.352 197.415 362.016 196.96 361.58 196.617L359.084 194.628C358.85 194.436 358.578 194.295 358.287 194.212C357.996 194.129 357.69 194.106 357.39 194.146C357.09 194.186 356.801 194.287 356.541 194.443C356.282 194.599 356.057 194.806 355.881 195.053Z" fill="#263238"/>
<path d="M355.881 195.053C355.881 195.053 355.923 194.937 356.073 194.77C356.301 194.518 356.586 194.323 356.905 194.205C357.407 194.018 357.959 194.018 358.461 194.205C358.766 194.315 359.048 194.481 359.293 194.695L360.125 195.344L361.057 196.06C361.413 196.308 361.747 196.586 362.055 196.892C362.39 197.261 362.635 197.702 362.773 198.181C362.91 198.66 362.934 199.164 362.845 199.654C362.791 200.204 362.6 200.731 362.291 201.189C361.981 201.646 361.563 202.019 361.073 202.275L358.095 203.781L356.589 204.546C356.095 204.842 355.545 205.032 354.975 205.104C354.45 205.152 353.921 205.072 353.433 204.872C352.946 204.671 352.514 204.355 352.176 203.951C351.837 203.547 351.602 203.067 351.489 202.552C351.377 202.037 351.391 201.502 351.53 200.994C351.655 200.563 351.865 200.162 352.146 199.812L352.853 198.88L355.016 196.068C355.269 195.718 355.547 195.387 355.848 195.078C355.649 195.462 355.415 195.827 355.149 196.168L353.094 199.063C352.575 199.663 352.161 200.347 351.871 201.085C351.762 201.513 351.751 201.959 351.839 202.391C351.926 202.824 352.111 203.231 352.379 203.581C352.677 203.963 353.066 204.264 353.511 204.456C353.956 204.648 354.442 204.725 354.925 204.679C355.443 204.611 355.942 204.435 356.389 204.164L357.895 203.398L360.865 201.892C361.267 201.665 361.614 201.353 361.884 200.978C362.153 200.603 362.338 200.173 362.425 199.72C362.512 199.267 362.499 198.8 362.388 198.352C362.277 197.904 362.069 197.485 361.78 197.125C361.489 196.823 361.175 196.545 360.84 196.293C360.524 196.035 360.225 195.785 359.925 195.552L359.093 194.878C358.868 194.674 358.609 194.511 358.328 194.396C357.864 194.239 357.361 194.239 356.897 194.396C356.52 194.549 356.175 194.772 355.881 195.053Z" fill="#455A64"/>
<path d="M318.898 240.231C318.898 240.231 321.744 234.19 332.918 234.207H338.059C338.059 234.207 348.102 236.37 349.308 240.247L318.898 240.231Z" fill="#263238"/>
<path d="M325.829 165.367L328.142 174.519C328.167 174.618 328.218 174.708 328.291 174.779C328.364 174.85 328.455 174.9 328.554 174.922C328.653 174.945 328.757 174.939 328.853 174.906C328.949 174.873 329.034 174.814 329.099 174.736L335.996 167.672C336.06 167.598 336.102 167.508 336.119 167.412C336.136 167.316 336.127 167.217 336.093 167.125C336.059 167.034 336.002 166.953 335.926 166.891C335.851 166.829 335.76 166.789 335.664 166.773L326.445 164.735C326.36 164.722 326.272 164.729 326.19 164.756C326.108 164.784 326.034 164.83 325.974 164.892C325.913 164.954 325.869 165.029 325.844 165.112C325.819 165.195 325.814 165.282 325.829 165.367Z" fill="#263238"/>
<path d="M325.828 165.367C325.828 165.367 325.77 165.3 325.778 165.142C325.79 165.021 325.838 164.907 325.917 164.815C325.996 164.722 326.102 164.657 326.219 164.626C326.384 164.593 326.554 164.593 326.718 164.626L327.276 164.735L328.64 165.009L332.259 165.766L334.439 166.232L335.612 166.482C335.746 166.497 335.874 166.544 335.986 166.619C336.098 166.695 336.189 166.796 336.253 166.914C336.319 167.048 336.345 167.198 336.327 167.345C336.309 167.493 336.249 167.632 336.153 167.746L333.083 170.9L329.248 174.81C329.163 174.91 329.054 174.986 328.932 175.031C328.809 175.077 328.677 175.09 328.548 175.069C328.419 175.048 328.298 174.994 328.196 174.912C328.094 174.83 328.015 174.723 327.966 174.602C327.858 174.194 327.783 173.87 327.692 173.521C327.525 172.83 327.367 172.164 327.209 171.54C326.918 170.309 326.652 169.219 326.427 168.279C326.202 167.339 326.078 166.706 325.945 166.141C325.869 165.887 325.827 165.624 325.82 165.359C325.928 165.6 326.015 165.85 326.078 166.107C326.236 166.665 326.435 167.364 326.668 168.212C326.901 169.061 327.218 170.234 327.542 171.457L328.066 173.421L328.341 174.461C328.364 174.516 328.4 174.565 328.448 174.602C328.495 174.639 328.551 174.664 328.61 174.673C328.67 174.682 328.73 174.676 328.787 174.655C328.843 174.634 328.893 174.598 328.931 174.552L332.75 170.625L335.829 167.48C335.872 167.426 335.9 167.361 335.907 167.292C335.914 167.223 335.901 167.153 335.869 167.091C335.837 167.03 335.788 166.978 335.728 166.944C335.668 166.91 335.598 166.894 335.529 166.898L334.364 166.632L332.185 166.132L328.582 165.3L327.226 164.968L326.677 164.834C326.539 164.78 326.391 164.757 326.244 164.768C326.148 164.787 326.059 164.833 325.989 164.901C325.918 164.969 325.868 165.055 325.845 165.151C325.82 165.284 325.845 165.367 325.828 165.367Z" fill="#455A64"/>
<path d="M319.006 191.46C323.574 185.344 326.161 179.121 325.729 172.756L317.151 164.494C308.831 161.724 297.391 170.452 297.391 170.452C297.391 170.452 300.228 185.844 319.006 191.46Z" fill="#263238"/>
<path d="M330.376 158.44L330.643 158.69C331.854 159.825 332.564 161.395 332.617 163.053C332.67 164.712 332.063 166.324 330.928 167.534L323.182 175.794L313.787 166.984L321.538 158.718C322.1 158.119 322.775 157.636 323.523 157.298C324.271 156.96 325.079 156.773 325.9 156.747C326.721 156.721 327.538 156.857 328.307 157.148C329.075 157.438 329.778 157.877 330.376 158.44Z" fill="#263238"/>
<path d="M325.146 172.465C324.527 172.486 323.911 172.384 323.332 172.166C321.908 171.724 320.595 170.984 319.48 169.994C318.357 169.007 317.456 167.793 316.834 166.433C316.55 165.887 316.375 165.291 316.318 164.678C316.623 165.204 316.901 165.745 317.15 166.3C317.821 167.574 318.718 168.716 319.796 169.67C320.879 170.618 322.121 171.367 323.465 171.883C324.48 172.266 325.154 172.39 325.146 172.465Z" fill="#455A64"/>
<path d="M358.85 198.014C358.85 198.167 358.805 198.317 358.72 198.444C358.635 198.571 358.514 198.67 358.373 198.729C358.231 198.787 358.076 198.803 357.926 198.773C357.775 198.743 357.638 198.669 357.529 198.561C357.421 198.453 357.347 198.315 357.318 198.165C357.288 198.015 357.303 197.859 357.362 197.718C357.42 197.576 357.519 197.456 357.647 197.371C357.774 197.286 357.923 197.24 358.077 197.24C358.178 197.24 358.279 197.26 358.373 197.299C358.466 197.338 358.552 197.395 358.624 197.467C358.695 197.539 358.752 197.624 358.791 197.718C358.83 197.812 358.85 197.912 358.85 198.014Z" fill="#455A64"/>
<path d="M330.196 171.225C330.196 171.378 330.151 171.528 330.066 171.655C329.981 171.782 329.86 171.881 329.718 171.94C329.577 171.998 329.421 172.014 329.271 171.984C329.121 171.954 328.983 171.88 328.875 171.772C328.767 171.664 328.693 171.526 328.663 171.376C328.633 171.226 328.649 171.07 328.707 170.929C328.766 170.787 328.865 170.667 328.992 170.582C329.12 170.497 329.269 170.451 329.422 170.451C329.627 170.451 329.824 170.533 329.969 170.678C330.114 170.823 330.196 171.02 330.196 171.225Z" fill="#455A64"/>
<path d="M333.133 168.221C333.133 168.374 333.088 168.524 333.003 168.651C332.918 168.778 332.797 168.877 332.656 168.936C332.514 168.994 332.359 169.01 332.209 168.98C332.059 168.95 331.921 168.876 331.813 168.768C331.704 168.66 331.631 168.522 331.601 168.372C331.571 168.222 331.586 168.066 331.645 167.925C331.703 167.784 331.803 167.663 331.93 167.578C332.057 167.493 332.207 167.447 332.36 167.447C332.461 167.447 332.562 167.467 332.656 167.506C332.75 167.545 332.835 167.602 332.907 167.674C332.979 167.746 333.036 167.831 333.075 167.925C333.113 168.019 333.133 168.119 333.133 168.221Z" fill="#455A64"/>
<path d="M355.714 200.827C355.714 200.98 355.668 201.129 355.583 201.256C355.498 201.384 355.377 201.483 355.236 201.541C355.094 201.6 354.939 201.615 354.789 201.585C354.639 201.556 354.501 201.482 354.393 201.374C354.284 201.265 354.211 201.128 354.181 200.977C354.151 200.827 354.166 200.672 354.225 200.53C354.283 200.389 354.383 200.268 354.51 200.183C354.637 200.098 354.787 200.053 354.94 200.053C355.145 200.053 355.342 200.134 355.487 200.279C355.632 200.424 355.714 200.621 355.714 200.827Z" fill="#455A64"/>
<path d="M325.039 253.725L324.806 387.969H199.607V253.359H191.578V387.969V395.432H199.607H324.806H332.835V387.969L333.068 253.725H325.039Z" fill="#E0E0E0"/>
<path d="M325.039 253.759H333.068H333.109C333.109 271.655 333.051 322.898 333.001 395.465V395.631H332.801H191.544H191.361V395.423C191.361 356.086 191.361 313.28 191.361 268.86V253.135H199.823V253.351C199.823 300.842 199.823 346.177 199.823 387.96L199.623 387.761L324.822 387.802L324.664 387.96C324.906 305.126 325.055 254.973 325.055 253.717C325.055 254.973 325.055 305.126 324.989 387.96V388.118H324.822L199.623 388.16H199.423V387.96C199.423 346.177 199.423 300.842 199.423 253.351L199.64 253.567H191.611L191.827 253.351V268.86C191.827 313.28 191.827 356.086 191.827 395.423L191.619 395.215L332.876 395.257L332.71 395.423C332.893 322.856 333.018 271.613 333.068 253.717L333.109 253.759H325.039Z" fill="#263238"/>
<path d="M357.245 240.23H175.836V254.707H357.245V240.23Z" fill="#AE7461"/>
<path d="M221.313 239.965L220.847 240.073C220.548 240.131 220.098 240.198 219.524 240.331C218.376 240.564 216.729 240.963 214.724 241.554C212.718 242.145 210.347 242.943 207.735 243.875C205.122 244.807 202.26 245.855 199.19 246.796C196.309 247.688 193.355 248.329 190.363 248.709C187.933 249.019 185.475 249.039 183.041 248.767C181.388 248.581 179.761 248.21 178.19 247.661C177.764 247.516 177.344 247.349 176.934 247.162C176.651 247.045 176.51 246.97 176.51 246.97C176.51 246.97 176.668 247.012 176.959 247.12C177.25 247.228 177.666 247.411 178.224 247.569C179.798 248.076 181.421 248.416 183.066 248.584C185.502 248.831 187.959 248.797 190.388 248.485C193.362 248.088 196.298 247.442 199.165 246.554C202.227 245.614 205.089 244.574 207.71 243.659C210.331 242.744 212.702 241.953 214.715 241.388C216.309 240.923 217.925 240.54 219.557 240.239C220.132 240.123 220.589 240.073 220.889 240.023C221.188 239.973 221.313 239.965 221.313 239.965Z" fill="#6F4439"/>
<path d="M313.84 253.335C313.774 253.273 313.713 253.206 313.657 253.135C313.492 252.932 313.317 252.738 313.132 252.553C312.425 251.828 311.615 251.211 310.728 250.722C309.323 249.956 307.793 249.443 306.21 249.208C304.111 248.916 301.978 248.969 299.895 249.366C297.364 249.858 294.863 250.5 292.407 251.288C289.591 252.216 286.681 252.83 283.73 253.119C282.122 253.233 280.506 253.124 278.929 252.794C277.29 252.433 275.695 251.897 274.17 251.197C271.05 249.824 268.038 247.96 264.71 246.612C258.012 243.917 250.932 243.709 244.784 244.499C239.306 245.286 233.941 246.719 228.801 248.767C224.391 250.431 220.922 252.095 218.517 253.144L215.747 254.4C215.115 254.691 214.773 254.833 214.773 254.833C214.773 254.833 215.098 254.658 215.722 254.358L218.467 253.052C220.864 251.937 224.333 250.315 228.734 248.601C233.878 246.524 239.252 245.074 244.742 244.283C250.916 243.451 258.054 243.675 264.793 246.388C268.121 247.752 271.158 249.616 274.253 250.98C275.762 251.675 277.341 252.208 278.962 252.569C280.517 252.9 282.111 253.009 283.696 252.894C286.631 252.611 289.527 252.011 292.332 251.105C294.788 250.324 297.289 249.691 299.82 249.208C301.924 248.817 304.077 248.775 306.194 249.083C307.788 249.334 309.326 249.863 310.736 250.648C311.622 251.151 312.427 251.785 313.124 252.528C313.383 252.778 313.622 253.048 313.84 253.335Z" fill="#6F4439"/>
<path d="M356.188 244.708C354.271 245.457 352.299 246.058 350.289 246.505C349.357 246.721 348.334 246.946 347.227 247.104C346.121 247.262 344.923 247.428 343.666 247.57C338.199 248.06 332.688 247.655 327.351 246.372C326.128 246.055 324.963 245.773 323.906 245.406C322.85 245.04 321.851 244.708 320.961 244.366C319.037 243.631 317.173 242.747 315.387 241.721C315.522 241.767 315.653 241.825 315.778 241.895L316.884 242.42C317.359 242.661 317.949 242.944 318.648 243.252C319.347 243.559 320.129 243.909 321.028 244.217C321.926 244.525 322.891 244.907 323.965 245.223C325.038 245.54 326.194 245.856 327.409 246.164C332.716 247.406 338.186 247.799 343.616 247.328C344.864 247.195 346.054 247.095 347.161 246.896C348.267 246.696 349.282 246.53 350.214 246.33C351.146 246.13 351.978 245.906 352.71 245.714C353.442 245.523 354.066 245.348 354.566 245.182L355.739 244.816C355.885 244.765 356.035 244.729 356.188 244.708Z" fill="#6F4439"/>
<path d="M252.297 236.586H196.628C195.59 236.586 194.748 237.428 194.748 238.466V238.574C194.748 239.613 195.59 240.455 196.628 240.455H252.297C253.336 240.455 254.178 239.613 254.178 238.574V238.466C254.178 237.428 253.336 236.586 252.297 236.586Z" fill="#455A64"/>
<path d="M268.137 188.863L254.226 238.866C254.08 239.383 253.736 239.822 253.269 240.086C252.801 240.351 252.248 240.421 251.73 240.28C251.213 240.135 250.774 239.791 250.509 239.323C250.244 238.856 250.175 238.303 250.315 237.784L264.235 187.739C264.378 187.221 264.722 186.781 265.19 186.516C265.658 186.251 266.212 186.182 266.731 186.325C266.991 186.398 267.233 186.521 267.445 186.689C267.657 186.856 267.833 187.064 267.964 187.3C268.095 187.536 268.177 187.796 268.207 188.064C268.237 188.332 268.213 188.604 268.137 188.863Z" fill="#455A64"/>
<path d="M256.815 192.731C256.732 192.823 252.838 189.179 248.12 184.611C243.403 180.043 239.651 176.291 239.734 176.175C239.817 176.058 243.702 179.719 248.42 184.295C253.137 188.871 256.898 192.648 256.815 192.731Z" fill="#263238"/>
<path d="M254.916 198.714C254.44 198.577 253.975 198.401 253.527 198.19L249.824 196.634C246.688 195.32 242.336 193.531 237.536 191.642C232.735 189.754 228.309 188.123 225.122 186.958L221.312 185.535C220.843 185.39 220.387 185.206 219.947 184.986C220.432 185.074 220.908 185.205 221.37 185.377C222.277 185.66 223.583 186.085 225.189 186.634C228.409 187.724 232.827 189.313 237.669 191.21C242.511 193.107 246.821 194.945 249.916 196.326C251.472 197.025 252.72 197.599 253.577 197.99C254.039 198.2 254.487 198.442 254.916 198.714Z" fill="#263238"/>
<path d="M254.152 204.67C253.017 204.845 251.865 204.87 250.724 204.745C249.576 204.769 248.43 204.649 247.312 204.387C249.595 204.193 251.893 204.288 254.152 204.67Z" fill="#263238"/>
<path d="M355.446 371.771C355.446 371.771 351.993 347.984 352.276 334.148C352.559 320.311 352.276 304.736 352.276 304.736H353.874C353.874 304.736 352.792 332.192 353.965 348.774C355.138 365.356 358.233 371.771 358.233 371.771H355.463" fill="#263238"/>
<path d="M365.754 277.971C365.505 277.131 364.999 276.389 364.306 275.85C363.291 275.209 361.969 275.475 360.837 275.85C356.02 277.555 351.752 286.533 349.805 291.259L356.194 312.807C367.743 302.124 369.739 288.072 365.754 277.971Z" fill="#455A64"/>
<path d="M363.932 276.725C363.91 276.82 363.877 276.912 363.832 276.999C363.757 277.207 363.649 277.473 363.524 277.79C363.241 278.463 362.85 279.454 362.376 280.677C361.436 283.123 360.238 286.501 359.165 290.394C358.091 294.288 357.359 297.807 356.91 300.378C356.677 301.668 356.511 302.716 356.402 303.44C356.344 303.781 356.303 304.056 356.261 304.272C356.25 304.369 356.228 304.464 356.194 304.555C356.185 304.458 356.185 304.361 356.194 304.264C356.194 304.039 356.244 303.765 356.278 303.432C356.361 302.7 356.502 301.643 356.71 300.345C357.259 296.981 357.995 293.651 358.915 290.369C359.84 287.07 360.951 283.825 362.243 280.652C362.734 279.429 363.15 278.455 363.466 277.79C363.608 277.482 363.724 277.224 363.824 277.024C363.843 276.919 363.88 276.818 363.932 276.725Z" fill="#263238"/>
<path d="M353.358 317.999C350.446 316.343 348.009 313.965 346.282 311.095C344.555 308.224 343.597 304.957 343.499 301.608C343.266 296.833 344.739 292.14 346.403 287.647C346.503 287.244 346.742 286.888 347.077 286.641C347.352 286.536 347.65 286.505 347.941 286.548C348.232 286.592 348.508 286.71 348.741 286.89C353.092 289.386 355.738 294.104 357.135 298.913C358.147 302.103 358.485 305.469 358.126 308.797C357.576 312.295 355.913 315.522 353.383 317.999" fill="#455A64"/>
<path d="M353.358 317.999C353.348 317.903 353.348 317.805 353.358 317.708V316.876C353.358 316.152 353.358 315.112 353.267 313.831C353.098 310.483 352.726 307.149 352.152 303.847C351.495 299.987 350.688 296.534 350.089 294.038L349.381 291.076L349.198 290.244C349.171 290.152 349.154 290.057 349.148 289.961C349.192 290.045 349.226 290.135 349.248 290.227C349.307 290.443 349.381 290.701 349.481 291.059C349.673 291.75 349.947 292.723 350.272 293.996C350.912 296.492 351.753 299.945 352.418 303.814C352.988 307.115 353.335 310.45 353.458 313.798C353.458 315.079 353.458 316.119 353.458 316.843C353.458 317.176 353.458 317.45 353.458 317.675C353.439 317.787 353.405 317.896 353.358 317.999Z" fill="#263238"/>
<g opacity="0.3">
<path d="M353.358 317.999C350.446 316.343 348.009 313.965 346.282 311.095C344.555 308.224 343.597 304.957 343.499 301.608C343.266 296.833 344.739 292.14 346.403 287.647C346.503 287.244 346.742 286.888 347.077 286.641C347.352 286.536 347.65 286.505 347.941 286.548C348.232 286.592 348.508 286.71 348.741 286.89C353.092 289.386 355.738 294.104 357.135 298.913C358.147 302.103 358.485 305.469 358.126 308.797C357.576 312.295 355.913 315.522 353.383 317.999" fill="black"/>
</g>
<path d="M360.121 354.431C366.02 355.729 370.871 359.889 376.57 361.919C380.33 363.258 384.59 363.733 387.594 366.362C386.878 364.54 385.164 363.325 383.5 362.293C378.812 359.346 373.805 356.94 368.574 355.121C365.903 354.198 362.991 353.457 360.254 354.19" fill="#455A64"/>
<path d="M351.586 359.648C344.198 359.523 336.419 353.233 329.072 352.859C336.76 350.363 347.784 352.401 351.586 359.648Z" fill="#455A64"/>
<path d="M354.473 341.953C358.28 340.696 362.341 340.41 366.287 341.121C370.212 341.84 374.069 342.886 377.819 344.249C377.436 341.687 375.364 339.765 373.409 338.059C371.985 336.726 370.436 335.533 368.783 334.498C367.12 333.46 365.195 332.917 363.234 332.934C362.056 333.007 360.905 333.319 359.851 333.849C358.798 334.38 357.862 335.118 357.102 336.021C355.609 337.65 354.686 339.72 354.473 341.92" fill="#455A64"/>
<path d="M339.313 333.765C334.662 329.796 327.615 330.179 321.5 330.32C331.326 335.001 340.592 340.775 349.122 347.534C349.372 343.208 345.187 338.782 339.313 333.765Z" fill="#455A64"/>
<g opacity="0.3">
<path d="M339.313 333.765C334.662 329.796 327.615 330.179 321.5 330.32C331.326 335.001 340.592 340.775 349.122 347.534C349.372 343.208 345.187 338.782 339.313 333.765Z" fill="black"/>
</g>
<path d="M356.568 328.282C358.837 326.709 361.227 325.318 363.715 324.122C366.17 323.015 368.449 321.243 370.812 319.962C373.882 318.298 376.536 315.993 379.349 313.938C382.161 311.883 385.256 310.02 388.7 309.479C385.864 308.97 382.948 309.138 380.189 309.97C377.443 310.796 374.767 311.836 372.185 313.081C368.557 314.745 364.863 316.409 361.901 319.047C358.94 321.684 356.252 324.313 356.568 328.282Z" fill="#455A64"/>
<path d="M376.429 359.65L376.196 359.542L375.555 359.209C374.998 358.918 374.199 358.477 373.192 357.969C372.693 357.711 372.144 357.437 371.528 357.137C370.913 356.838 370.289 356.555 369.606 356.255C368.138 355.597 366.615 355.068 365.055 354.674C363.511 354.245 361.886 354.202 360.321 354.55C359.636 354.699 358.963 354.899 358.308 355.149C357.746 355.377 357.206 355.655 356.694 355.981C355.945 356.445 355.26 357.004 354.655 357.645C354.223 358.102 354.015 358.377 353.998 358.368C354.031 358.29 354.076 358.217 354.131 358.152C354.268 357.948 354.418 357.754 354.58 357.57C355.165 356.89 355.839 356.294 356.586 355.798C357.113 355.457 357.67 355.164 358.25 354.924C358.912 354.661 359.593 354.45 360.288 354.292C361.891 353.919 363.561 353.953 365.147 354.392C366.721 354.789 368.255 355.329 369.731 356.006C370.413 356.313 371.054 356.613 371.645 356.912C372.235 357.212 372.793 357.487 373.309 357.744C374.307 358.277 375.098 358.743 375.638 359.067L376.254 359.442C376.362 359.591 376.437 359.641 376.429 359.65Z" fill="#263238"/>
<path d="M346.11 355.98C346.272 356.005 346.429 356.052 346.576 356.122C346.987 356.27 347.387 356.445 347.774 356.646C349.071 357.297 350.263 358.138 351.31 359.142C352.357 360.142 353.246 361.295 353.948 362.562C354.162 362.944 354.354 363.338 354.522 363.743C354.594 363.888 354.644 364.042 354.671 364.201C354.63 364.201 354.355 363.593 353.79 362.661C352.303 360.218 350.2 358.21 347.691 356.837C346.693 356.28 346.06 356.03 346.11 355.98Z" fill="#263238"/>
<path d="M329.73 333.391C329.839 333.41 329.945 333.44 330.047 333.482L330.937 333.798L332.335 334.314C332.875 334.522 333.466 334.822 334.14 335.146C337.606 336.751 340.841 338.813 343.758 341.278C345.354 342.645 346.852 344.121 348.242 345.696C349.375 346.981 350.438 348.326 351.429 349.723C352.261 350.921 352.91 351.919 353.351 352.602L353.85 353.434C353.918 353.52 353.974 353.615 354.017 353.716C353.938 353.638 353.868 353.552 353.809 353.458C353.684 353.292 353.492 353.034 353.259 352.693C352.794 352.019 352.136 351.029 351.271 349.864C350.406 348.699 349.332 347.368 348.059 345.887C346.665 344.332 345.169 342.87 343.583 341.511C340.683 339.045 337.482 336.957 334.057 335.296C333.4 334.996 332.817 334.689 332.276 334.464L330.895 333.906L330.063 333.54C329.947 333.503 329.835 333.453 329.73 333.391Z" fill="#263238"/>
<path d="M365.564 337.791C365.365 337.79 365.167 337.765 364.973 337.716L364.291 337.592C364.033 337.542 363.725 337.542 363.384 337.508C361.632 337.352 359.871 337.698 358.309 338.507C357.454 338.956 356.674 339.534 355.996 340.221C355.437 340.778 354.94 341.395 354.515 342.06C354.129 342.679 353.789 343.327 353.5 343.998C353.519 343.8 353.57 343.606 353.65 343.424C353.833 342.912 354.07 342.422 354.357 341.96C354.764 341.264 355.259 340.623 355.83 340.054C356.509 339.333 357.305 338.731 358.184 338.274C359.788 337.44 361.605 337.107 363.401 337.317C363.742 337.367 364.058 337.384 364.316 337.45L364.998 337.617C365.192 337.657 365.381 337.716 365.564 337.791Z" fill="#263238"/>
<path d="M372.985 314.729C372.903 314.8 372.81 314.859 372.71 314.903L371.878 315.353C371.154 315.735 370.123 316.309 368.875 317.017C367.627 317.724 366.154 318.681 364.59 319.795C362.885 320.991 361.287 322.333 359.814 323.806C359.054 324.546 358.396 325.386 357.859 326.302C357.377 327.225 356.911 328.124 356.486 328.989C355.723 330.511 355.04 332.072 354.44 333.665C354.039 334.739 353.703 335.837 353.433 336.951C353.359 337.366 353.265 337.777 353.15 338.183C353.143 338.075 353.143 337.966 353.15 337.858C353.15 337.642 353.2 337.334 353.3 336.935C353.533 335.806 353.842 334.694 354.223 333.607C354.803 331.997 355.475 330.422 356.237 328.889C356.661 328.057 357.119 327.117 357.601 326.185C358.145 325.237 358.814 324.367 359.59 323.598C361.072 322.114 362.688 320.769 364.415 319.579C365.996 318.464 367.485 317.557 368.75 316.825C370.015 316.093 371.063 315.561 371.795 315.203L372.627 314.795L372.985 314.729Z" fill="#263238"/>
<path d="M352.268 337.101C352.198 336.899 352.151 336.69 352.126 336.477C352.035 336.028 351.927 335.454 351.802 334.772C351.112 331.014 349.932 327.364 348.291 323.914L347.575 322.333C347.471 322.144 347.39 321.943 347.334 321.734C347.463 321.906 347.574 322.09 347.667 322.283C347.858 322.65 348.133 323.174 348.499 323.831C349.356 325.548 350.087 327.325 350.687 329.147C351.27 330.975 351.715 332.844 352.018 334.739C352.135 335.471 352.218 336.053 352.259 336.469C352.283 336.679 352.285 336.891 352.268 337.101Z" fill="#263238"/>
<path d="M351.735 320.32C351.502 317.521 350.683 314.803 349.331 312.341C347.51 308.953 344.969 306.004 341.885 303.704C338.802 301.404 335.251 299.808 331.484 299.029L348.008 323.648L350.146 328.049C351.482 325.707 352.039 323 351.735 320.32Z" fill="#455A64"/>
<path d="M379.524 363.217H332.99V371.462H379.524V363.217Z" fill="#3FBCFC"/>
<path d="M336.469 369.824L342.709 395.417H371.321L376.047 369.824H336.469Z" fill="#3FBCFC"/>
<path d="M379.498 371.471C379.498 371.563 368.999 371.637 356.061 371.637C343.123 371.637 332.615 371.563 332.615 371.471C332.615 371.38 343.107 371.305 356.061 371.305C369.015 371.305 379.498 371.38 379.498 371.471Z" fill="#263238"/>
</svg>
