<svg width="448" height="383" viewBox="0 0 448 383" fill="none" xmlns="http://www.w3.org/2000/svg">
<path d="M0 382.33H419.598" stroke="#263238" stroke-width="0.919183" stroke-miterlimit="10"/>
<path d="M434.59 235.071C421.06 271.315 393.411 310.545 354.502 322.155C295.674 339.711 288.689 387.104 183.387 382.71C168.011 382.137 152.743 379.896 137.851 376.028C130.569 374.117 123.418 371.737 116.443 368.904C54.9221 343.995 22.8702 289.156 20.1678 231.772C16.6474 156.307 69.3073 120.339 103.528 99.2714C137.75 78.2037 178.993 -3.40133 282.548 0.10995C298.361 0.577373 314.067 2.86906 329.353 6.93948C364.199 16.3703 399.616 37.2725 420.196 67.725C421.74 70.0107 423.217 72.3516 424.627 74.7476C452.174 121.479 453.048 185.656 434.59 235.071Z" fill="#3FBCFC"/>
<path opacity="0.7" d="M434.59 235.071C421.06 271.315 393.411 310.545 354.502 322.155C295.674 339.711 288.689 387.104 183.387 382.71C168.011 382.137 152.743 379.896 137.851 376.028C130.569 374.117 123.418 371.737 116.443 368.904C54.9221 343.995 22.8702 289.156 20.1678 231.772C16.6474 156.307 69.3073 120.339 103.528 99.2714C137.75 78.2037 178.993 -3.40133 282.548 0.10995C298.361 0.577373 314.067 2.86906 329.353 6.93948C364.199 16.3703 399.616 37.2725 420.196 67.725C421.74 70.0107 423.217 72.3516 424.627 74.7476C452.174 121.479 453.048 185.656 434.59 235.071Z" fill="white"/>
<path d="M329.169 127.315C329.169 127.315 329.454 116.937 335.438 113.996C341.422 111.055 341.762 120.77 341.762 120.77C341.762 120.77 355.449 112.075 358.418 118.665C361.387 125.256 357.241 128.446 357.241 128.446C357.241 128.446 369.393 128.023 370.238 134.687C371.084 141.351 364.806 144.614 364.806 144.614C364.806 144.614 372.316 150.745 369.678 153.576C367.04 156.407 361.267 156.609 361.267 156.609C361.267 156.609 364.539 163.182 358.831 165.516C353.123 167.851 346.597 163.503 346.597 163.503C346.597 163.503 347.608 166.518 343.325 165.755C339.041 164.992 334.712 162.998 332.056 156.71C329.399 150.423 325.971 132.619 329.169 127.315Z" fill="#263238" stroke="#263238" stroke-width="0.919183" stroke-linecap="round" stroke-linejoin="round"/>
<path d="M265.984 327.742C265.984 327.742 262.574 340.758 262.629 342.201C262.684 343.644 261.498 346.916 262.5 347.845C264.376 349.374 266.364 350.76 268.447 351.99C269.297 351.979 270.125 351.727 270.837 351.264C271.068 351.057 271.253 350.805 271.381 350.524C271.509 350.242 271.577 349.937 271.582 349.628C271.582 349.141 270.212 347.1 270.028 346.622C269.845 346.144 272.538 339.921 273.558 336.824C274.322 334.058 274.869 331.237 275.194 328.386L265.984 327.742Z" fill="#BDBDBD" stroke="#263238" stroke-width="0.919183" stroke-miterlimit="10"/>
<path d="M269.689 336.807C269.689 336.807 267.75 341.403 267.621 342.193C267.492 342.984 264.863 345.19 265.213 346.954C265.562 348.719 269.441 348.25 271.353 343.029" fill="#BDBDBD"/>
<path d="M269.689 336.807C269.689 336.807 267.75 341.403 267.621 342.193C267.492 342.984 264.863 345.19 265.213 346.954C265.562 348.719 269.441 348.25 271.353 343.029" stroke="#263238" stroke-width="0.919183" stroke-miterlimit="10"/>
<path d="M278.374 257.039C278.374 257.039 276.747 283.585 276.131 285.929C275.516 288.273 268.125 309.681 266.498 316.262C265.5 320.337 264.791 324.478 264.375 328.653L274.293 330.739L279.863 306.27C279.863 306.27 287.143 283.971 285.663 273.52C284.905 267.43 282.369 261.698 278.374 257.039Z" fill="#3FBCFC" stroke="#263238" stroke-width="0.919183" stroke-miterlimit="10"/>
<path d="M330.043 382.444C330.163 376.672 330.402 368.886 330.963 364.428C331.882 356.725 335.172 351.964 338.555 342.368C341.938 332.771 342.232 320.16 342.232 320.16L281.658 322.274C281.658 322.274 274.635 348.315 270.379 367.47C269.224 372.384 268.55 377.399 268.366 382.444" fill="#3FBCFC"/>
<path d="M330.043 382.444C330.163 376.672 330.402 368.886 330.963 364.428C331.882 356.725 335.172 351.964 338.555 342.368C341.938 332.771 342.232 320.16 342.232 320.16L281.658 322.274C281.658 322.274 274.635 348.315 270.379 367.47C269.224 372.384 268.55 377.399 268.366 382.444" stroke="#263238" stroke-width="0.919183" stroke-miterlimit="10"/>
<path d="M289.59 332.036L339.989 333.452L341.055 329.555L289.59 332.036Z" fill="#263238" stroke="#263238" stroke-width="0.919183" stroke-linecap="round" stroke-linejoin="round"/>
<path d="M287.043 381.525C287.043 381.525 286.05 350.006 286.022 332.9L287.043 381.525Z" fill="white"/>
<path d="M287.043 381.525C287.043 381.525 286.05 350.006 286.022 332.9" stroke="#263238" stroke-width="0.919183" stroke-miterlimit="10"/>
<path d="M325.676 190.362L333.029 195.307C333.029 195.307 341.734 203.084 343.875 209.518C346.017 215.952 344.464 254.162 342.304 266.507C340.144 278.852 345.539 294.23 347.46 302.907C349.381 311.584 350.218 327.725 350.218 327.725C350.218 327.725 351.578 329.618 327.974 330.436C304.369 331.254 287.906 332.486 285.976 332.872C284.81 333.111 283.627 333.262 282.437 333.322L281.518 324.94L279.229 331.843L274.33 330.721C274.33 330.721 277.373 315.72 278.135 309.874C278.898 304.028 283.715 284.137 283.779 276.655C283.844 269.173 277.593 257.131 276.371 249.723C275.148 242.314 277.612 229.611 283.724 220.015C289.837 210.419 293.936 206.705 305.886 196.907C317.835 187.108 325.676 190.362 325.676 190.362Z" fill="#3FBCFC" stroke="#263238" stroke-width="0.919183" stroke-miterlimit="10"/>
<path d="M306.521 302.365L331.182 305.159L329.794 298.706L314.407 297.383" stroke="#263238" stroke-width="0.919183" stroke-miterlimit="10"/>
<path d="M297.899 297.023L296.648 301.252L302.835 301.95" stroke="#263238" stroke-width="0.919183" stroke-miterlimit="10"/>
<path d="M307.154 254.77C305.995 253.696 304.931 252.524 303.974 251.268" stroke="#263238" stroke-width="0.919183" stroke-miterlimit="10"/>
<path d="M315.731 262.012C315.731 262.012 313.13 260.045 310.28 257.6" stroke="#263238" stroke-width="0.919183" stroke-miterlimit="10"/>
<path d="M325.676 190.363C325.676 190.363 317.835 187.1 305.886 196.907C293.936 206.715 289.846 210.438 283.706 220.016C280.038 225.937 277.599 232.536 276.536 239.419C276.683 240.136 276.839 240.863 277.014 241.607C280.433 256.057 284.239 263.042 284.239 263.042C284.239 263.042 290.857 230.117 302.374 216.771C313.892 203.424 333.02 195.308 333.02 195.308L325.676 190.363Z" fill="#3FBCFC" stroke="#263238" stroke-width="0.919183" stroke-miterlimit="10"/>
<path d="M296.932 126.138C296.932 126.138 288.301 134.2 287.658 140.551C287.014 146.903 286.343 152.381 285.268 154.431C284.192 156.481 278.769 157.823 280.608 160.92C282.446 164.018 284.165 163.954 284.165 163.954C284.165 163.954 286.922 177.659 289.018 179.58C291.114 181.501 298.532 180.398 298.532 180.398L300.83 197.017C300.83 197.017 285.397 210.703 282.391 229.776C279.385 248.849 282.823 259.732 282.823 259.732C282.823 259.732 284.836 229.684 291.785 218.434C298.734 207.183 314.875 196.529 317.255 194.608C319.636 192.687 325.675 190.343 325.675 190.343C325.675 190.343 322.807 183.909 322.421 181.004C322.035 178.1 322.164 173.826 322.706 172.658C323.248 171.491 332.891 167.989 336.494 156.94C340.097 145.892 334.793 132.848 329.14 127.297C323.487 121.745 304.157 118.987 296.932 126.138Z" fill="#BDBDBD" stroke="#263238" stroke-width="0.919183" stroke-miterlimit="10"/>
<path d="M336.531 156.959C340.208 145.929 334.831 132.868 329.178 127.316C323.525 121.764 304.167 118.988 296.942 126.139C296.942 126.139 296.483 126.571 295.766 127.316C298.512 126.629 301.373 126.535 304.158 127.04C309.939 127.959 309.811 132.555 308.239 136.958C306.667 141.361 307.853 142.142 310.803 144.311C313.754 146.481 310.73 150.644 312.807 152.299C314.885 153.954 316.576 144.946 321.08 151.435C325.584 157.924 322.56 160.866 319.747 162.686C318.172 163.738 316.462 164.572 314.664 165.168C314.664 165.168 318.92 170.159 323.121 172.218C325.134 170.719 333.259 166.886 336.531 156.959Z" fill="#263238" stroke="#263238" stroke-width="0.919183" stroke-linecap="round" stroke-linejoin="round"/>
<path d="M288.845 166.382C288.845 166.382 294.865 165.885 297.651 163.201" stroke="#263238" stroke-width="0.919183" stroke-miterlimit="10"/>
<path d="M292.668 152.162C292.714 153.587 292.172 154.764 291.464 154.791C290.756 154.819 290.131 153.679 290.076 152.254C290.021 150.83 290.572 149.653 291.28 149.625C291.988 149.598 292.613 150.738 292.668 152.162Z" fill="#263238"/>
<path d="M290.076 146.343C290.076 146.343 292.016 143.733 294.792 146.812" stroke="#263238" stroke-width="0.919183" stroke-miterlimit="10"/>
<path d="M298.532 180.417L305.711 177.715L300.711 186.695L298.532 180.417Z" fill="#263238" stroke="#263238" stroke-width="0.919183" stroke-miterlimit="10"/>
<path d="M277.861 312.346L268.448 351.99L276.896 353.957L281.547 324.966L277.861 312.346Z" fill="white" stroke="#263238" stroke-width="0.919183" stroke-miterlimit="10"/>
<path d="M286.179 217.432C284.371 221.366 283.098 225.523 282.392 229.795C279.386 248.859 282.824 259.751 282.824 259.751C282.824 259.751 284.818 230.107 291.648 218.691C289.783 218.48 287.948 218.058 286.179 217.432Z" fill="white" stroke="#263238" stroke-width="0.919183" stroke-miterlimit="10"/>
<path d="M315.262 229.804L314.619 263.446L255.745 273.153L257.032 289.009C257.032 289.009 289.709 289.652 304.912 288.356C320.115 287.06 333.407 286.095 335.319 284.477C337.231 282.859 342.773 251.589 345.034 229.593C347.296 207.597 342.773 200.179 333.719 201.447" fill="#3FBCFC"/>
<path d="M315.262 229.804L314.619 263.446L255.745 273.153L257.032 289.009C257.032 289.009 289.709 289.652 304.912 288.356C320.115 287.06 333.407 286.095 335.319 284.477C337.231 282.859 342.773 251.589 345.034 229.593C347.296 207.597 342.773 200.179 333.719 201.447" stroke="#263238" stroke-width="0.919183" stroke-miterlimit="10"/>
<path d="M220.521 271.729L215.806 286.031L220.402 288.531C220.402 288.531 226.238 293.054 229.437 295.499C232.636 297.944 235.09 297.944 236.791 297.19C238.491 296.436 246.203 285.516 247.141 283.448C248.078 281.38 243.565 275.175 239.052 272.528C234.539 269.881 230.779 269.899 228.132 270.69C225.626 271.235 223.081 271.582 220.521 271.729Z" fill="white" stroke="#263238" stroke-width="0.919183" stroke-miterlimit="10"/>
<path d="M255.744 273.152L248.299 272.509C245.963 271.9 243.585 271.466 241.185 271.213C239.245 271.213 236.653 273.152 235.357 274.127C234.061 275.101 219.832 290.626 219.832 290.626C219.832 290.626 221.128 293.209 223.068 292.566C225.007 291.922 228.583 290.295 228.583 290.295C228.583 290.295 224.704 294.183 226.643 296.123C228.583 298.062 231.818 298.062 231.818 298.062L234.089 296.766C235.043 297.519 236.141 298.07 237.315 298.384C238.933 298.706 241.525 298.062 243.749 296.766C245.974 295.47 251.755 288.723 251.755 288.723L256.719 286.802L255.744 273.152Z" fill="#BDBDBD" stroke="#263238" stroke-width="0.919183" stroke-miterlimit="10"/>
<path d="M223.085 272.345C223.085 272.345 232.497 266.885 236.634 268.392C240.77 269.9 246.239 279.119 244.732 280.443C243.224 281.766 240.779 281.187 239.465 279.873C238.365 278.875 237.167 277.991 235.889 277.235C233.41 278.627 230.633 279.403 227.791 279.496" fill="white"/>
<path d="M223.085 272.345C223.085 272.345 232.497 266.885 236.634 268.392C240.77 269.9 246.239 279.119 244.732 280.443C243.224 281.766 240.779 281.187 239.465 279.873C238.365 278.875 237.167 277.991 235.889 277.235C233.41 278.627 230.633 279.403 227.791 279.496" stroke="#263238" stroke-width="0.919183" stroke-miterlimit="10"/>
<path d="M251.157 293.716L248.17 292.117C247.929 291.989 247.716 291.815 247.543 291.605C247.37 291.395 247.24 291.153 247.16 290.893C247.081 290.632 247.054 290.358 247.08 290.087C247.107 289.816 247.187 289.553 247.315 289.313C247.443 289.073 247.618 288.861 247.828 288.689C248.039 288.517 248.281 288.387 248.541 288.309C248.802 288.23 249.075 288.204 249.346 288.231C249.617 288.258 249.879 288.339 250.119 288.468L253.106 290.058C253.59 290.317 253.952 290.758 254.112 291.283C254.272 291.808 254.218 292.376 253.961 292.861C253.701 293.345 253.261 293.707 252.736 293.867C252.21 294.028 251.643 293.973 251.157 293.716Z" fill="white" stroke="#263238" stroke-width="0.919183" stroke-miterlimit="10"/>
<path d="M248.52 296.914L245.533 295.315C245.061 295.055 244.708 294.623 244.548 294.109C244.389 293.594 244.435 293.038 244.678 292.557C244.939 292.086 245.372 291.735 245.886 291.578C246.401 291.42 246.956 291.468 247.436 291.711L250.423 293.302C250.897 293.559 251.252 293.991 251.411 294.506C251.571 295.022 251.523 295.579 251.278 296.059C251.02 296.533 250.588 296.888 250.073 297.047C249.558 297.207 249.001 297.159 248.52 296.914Z" fill="white" stroke="#263238" stroke-width="0.919183" stroke-miterlimit="10"/>
<path d="M245.506 299.738L242.519 298.138C242.278 298.011 242.065 297.837 241.892 297.627C241.719 297.416 241.589 297.174 241.511 296.913C241.432 296.652 241.406 296.379 241.434 296.108C241.462 295.837 241.543 295.574 241.673 295.335C241.801 295.095 241.976 294.883 242.186 294.71C242.397 294.538 242.639 294.409 242.899 294.33C243.16 294.252 243.433 294.225 243.704 294.253C243.974 294.28 244.237 294.36 244.477 294.489L247.464 296.088C247.704 296.217 247.916 296.391 248.088 296.602C248.261 296.812 248.39 297.054 248.468 297.315C248.547 297.575 248.573 297.849 248.546 298.119C248.519 298.39 248.438 298.652 248.31 298.892C248.181 299.132 248.007 299.344 247.796 299.516C247.586 299.689 247.344 299.818 247.083 299.896C246.823 299.975 246.549 300.001 246.279 299.974C246.008 299.947 245.746 299.866 245.506 299.738Z" fill="white" stroke="#263238" stroke-width="0.919183" stroke-miterlimit="10"/>
<path d="M239.163 299.874L238.382 299.461C238.141 299.333 237.928 299.159 237.755 298.949C237.582 298.739 237.452 298.497 237.372 298.236C237.293 297.976 237.266 297.702 237.292 297.431C237.319 297.16 237.399 296.897 237.527 296.657C237.786 296.173 238.227 295.811 238.752 295.651C239.278 295.491 239.845 295.545 240.331 295.802L241.112 296.225C241.353 296.352 241.566 296.526 241.739 296.736C241.912 296.946 242.042 297.189 242.122 297.449C242.201 297.71 242.228 297.983 242.202 298.254C242.175 298.525 242.095 298.788 241.967 299.028C241.838 299.268 241.664 299.481 241.454 299.653C241.243 299.825 241.001 299.954 240.74 300.033C240.48 300.111 240.207 300.138 239.936 300.111C239.665 300.083 239.403 300.003 239.163 299.874Z" fill="white" stroke="#263238" stroke-width="0.919183" stroke-miterlimit="10"/>
<path d="M220.521 271.729L181.015 255.027L182.476 281.196L215.098 288.669L220.521 271.729Z" fill="#263238" stroke="#263238" stroke-width="0.919183" stroke-linecap="round" stroke-linejoin="round"/>
<path d="M215.098 288.669L220.521 271.728L214.997 269.283L214.887 269.844L209.831 287.391L215.098 288.669Z" fill="white" stroke="#263238" stroke-width="0.919183" stroke-miterlimit="10"/>
<path d="M158.816 167.051L168.927 171.748C168.927 171.748 173.174 183.78 171.758 184.129C170.343 184.478 159.726 175.994 159.726 175.994L158.816 167.051Z" fill="white" stroke="#263238" stroke-width="0.919183" stroke-linecap="round" stroke-linejoin="round"/>
<path d="M164.691 164.644L165.399 160.59C165.399 160.59 174.775 161.233 178.525 161.206C182.275 161.178 185.547 160.7 185.52 156.72C185.492 152.74 183.305 139.164 183.305 139.164C183.305 139.164 187.514 138.199 189.141 136.314C190.768 134.43 188.415 132.104 186.292 129.301C184.169 126.497 182.266 123.473 182.018 120.192C181.77 116.91 176.071 106.174 176.071 106.174C176.071 106.174 176.99 104.529 173.929 101.036C170.868 97.5432 155.168 96.9365 145.122 101.955C135.075 106.974 132.786 114.217 132.832 122.177C132.878 130.137 137.428 141.361 137.428 141.361C137.428 141.361 134.459 153.558 134.229 154.229C134 154.9 131.334 160.13 131.334 160.13C131.334 160.13 143.899 168.89 148.486 172.824C153.073 176.758 163.432 183.487 163.496 179.847C163.561 176.207 163.974 167.989 163.974 167.989L164.691 164.644Z" fill="white" stroke="#263238" stroke-width="0.919183" stroke-linecap="round" stroke-linejoin="round"/>
<path d="M178.543 126.627C178.598 127.987 178.285 129.099 177.835 129.118C177.385 129.136 176.962 128.061 176.916 126.7C176.87 125.34 177.164 124.228 177.624 124.209C178.083 124.191 178.478 125.266 178.543 126.627Z" fill="#263238"/>
<path d="M171.952 122.131C171.952 122.131 174.039 118.601 179.443 120.678" stroke="#263238" stroke-width="1.83837" stroke-linecap="round" stroke-linejoin="round"/>
<path d="M185.519 156.72C185.519 152.731 183.304 139.164 183.304 139.164C183.304 139.164 180.721 137.776 175.804 138.971C170.886 140.166 169.544 148.163 168.606 149.082C167.669 150.001 161.556 144.486 159.185 140.708C156.813 136.93 155.14 130.468 154.883 126.69C154.626 122.913 163.514 121.01 164.902 117.499C166.29 113.987 159.736 110.246 162.025 107.902C164.314 105.558 169.048 106.459 171.391 106.91C172.989 107.126 174.616 106.87 176.07 106.174C176.07 106.174 176.989 104.529 173.928 101.036C170.868 97.5432 155.168 96.9365 145.121 101.955C135.075 106.974 132.786 114.217 132.832 122.177C132.878 128.612 135.856 137.215 136.977 140.248C137.926 140.659 138.949 140.871 139.983 140.873C140.902 140.634 141.601 137.822 142.051 135C142.502 132.178 149.276 128.869 149.276 128.869C149.276 128.869 150.498 137.298 150.508 138.934C150.517 140.57 149.588 148.778 154.111 152.722C157.652 155.657 161.427 158.298 165.398 160.618C165.398 160.618 174.774 161.261 178.524 161.233C182.275 161.206 185.547 160.7 185.519 156.72Z" fill="#263238" stroke="#263238" stroke-width="0.919183" stroke-linecap="round" stroke-linejoin="round"/>
<path d="M150.718 134.679C150.718 134.679 148.77 123.446 145.497 123.933C142.225 124.421 140.368 128.649 142.041 134.044C143.714 139.44 146.996 138.934 148.862 138.456" fill="white"/>
<path d="M150.718 134.679C150.718 134.679 148.77 123.446 145.497 123.933C142.225 124.421 140.368 128.649 142.041 134.044C143.714 139.44 146.996 138.934 148.862 138.456" stroke="#263238" stroke-width="0.919183" stroke-linecap="round" stroke-linejoin="round"/>
<path d="M173.726 143.199C173.726 143.199 175.61 145.534 180.528 145.506" stroke="white" stroke-width="0.919183" stroke-linecap="round" stroke-linejoin="round"/>
<path d="M121.13 382.443H170.765C170.931 379.833 172.861 369.796 172.861 363.214C172.861 355.613 178.091 306.574 178.091 306.574L113.537 305.729L115.651 335.74L121.13 382.443Z" fill="#263238" stroke="#263238" stroke-width="0.919183" stroke-linecap="round" stroke-linejoin="round"/>
<path d="M127.565 161.84C127.565 161.84 116.25 176.354 113.06 184.489C109.87 192.623 107.398 194.039 108.106 204.297C108.813 214.555 113.777 255.596 113.777 255.596L103.868 309.029C115.563 313.218 127.891 315.37 140.314 315.389C160.83 315.389 169.728 313.624 171.097 312.917C172.467 312.209 184.885 309.029 184.885 309.029C184.885 309.029 184.885 248.528 180.988 227.653C177.09 206.779 172.145 190.886 170.38 186.961C168.615 183.036 162.944 170.333 162.944 170.333L127.565 161.84Z" fill="#263238" stroke="#263238" stroke-width="0.919183" stroke-linecap="round" stroke-linejoin="round"/>
<path d="M170.407 186.961C168.633 183.073 162.971 170.333 162.971 170.333L127.564 161.84C127.564 161.84 125.174 164.91 122.278 169.019C129.99 173.495 149.082 184.562 150.212 184.838C151.628 185.196 158.706 184.489 158.706 184.489L155.544 188.377C155.544 188.377 164.037 195.105 166.868 197.927C168.357 199.416 172.677 203.35 176.446 206.751C173.881 196.585 171.51 189.406 170.407 186.961Z" fill="#263238" stroke="#263238" stroke-width="0.919183" stroke-linecap="round" stroke-linejoin="round"/>
<path d="M154.129 178.119L166.161 187.669L176.061 205.363L169.7 179.534L156.611 172.107L154.129 178.119Z" fill="white" stroke="#263238" stroke-width="0.919183" stroke-linecap="round" stroke-linejoin="round"/>
<path d="M130.075 155.121L167.118 171.813V184.903L124.762 163.256L130.075 155.121Z" fill="white" stroke="#263238" stroke-width="0.919183" stroke-linecap="round" stroke-linejoin="round"/>
<path d="M179.058 289.02H115.046V340.815H179.058V289.02Z" fill="#3FBCFC" stroke="#263238" stroke-width="0.919183" stroke-miterlimit="10"/>
<path d="M150.976 313.707C150.976 313.707 155.738 319.912 157.604 320.537C159.175 321.182 160.474 322.351 161.28 323.846C162.108 325.087 163.119 334.398 163.762 335.023C164.406 335.648 164.387 337.091 162.108 336.052C159.828 335.014 158.431 331.456 158.431 331.456L159.258 339.729C159.258 339.729 161.096 340.143 159.672 341.181C158.247 342.22 156.979 343.663 155.738 343.02C154.634 342.362 153.596 341.599 152.64 340.74C151.162 341.236 149.587 341.378 148.044 341.154C145.774 340.74 146.206 341.567 144.119 340.115C142.033 338.663 142.042 340.327 141.012 337.633C139.409 332.814 138.095 327.903 137.078 322.926C136.665 320.233 136.251 316.492 136.251 316.492L150.976 313.707Z" fill="white" stroke="#263238" stroke-width="0.919183" stroke-linecap="round" stroke-linejoin="round"/>
<path d="M151.813 309.773L153.256 316.189L135.461 318.671L134.634 312.255L151.813 309.773Z" fill="white" stroke="#263238" stroke-width="0.919183" stroke-linecap="round" stroke-linejoin="round"/>
<path d="M129.007 174.59C129.007 174.59 116.625 178.478 116.276 184.14C115.927 189.802 111.818 258.474 113.592 263.07C115.366 267.666 132.766 314.241 132.766 314.241L152.933 311.769C152.933 311.769 142.601 257.757 142.27 256.691C141.94 255.625 149.201 195.455 149.201 195.455" fill="#263238"/>
<path d="M129.007 174.59C129.007 174.59 116.625 178.478 116.276 184.14C115.927 189.802 111.818 258.474 113.592 263.07C115.366 267.666 132.766 314.241 132.766 314.241L152.933 311.769C152.933 311.769 142.601 257.757 142.27 256.691C141.94 255.625 149.201 195.455 149.201 195.455" stroke="#263238" stroke-width="0.919183" stroke-linecap="round" stroke-linejoin="round"/>
<path d="M146.803 212.736L142.244 256.692L146.592 284.001" stroke="#878787" stroke-width="0.919183" stroke-linecap="round" stroke-linejoin="round"/>
<path d="M147.503 206.008L147.264 208.343" stroke="#878787" stroke-width="0.919183" stroke-linecap="round" stroke-linejoin="round"/>
<path d="M114.853 199.205L113.492 240.476" stroke="#878787" stroke-width="0.919183" stroke-linecap="round" stroke-linejoin="round"/>
<path d="M161.106 276.793L174.71 276.297L175.933 281.196L153.395 282.639" stroke="#878787" stroke-width="0.919183" stroke-linecap="round" stroke-linejoin="round"/>
<path d="M149.771 277.197L157.015 276.939" stroke="#878787" stroke-width="0.919183" stroke-linecap="round" stroke-linejoin="round"/>
<path d="M125.286 170.186L150.242 184.837L158.735 184.488L155.546 188.376L171.99 201.475" stroke="#878787" stroke-width="0.919183" stroke-linecap="round" stroke-linejoin="round"/>
</svg>
