<svg width="711" height="474" viewBox="0 0 711 474" fill="none" xmlns="http://www.w3.org/2000/svg">
<path d="M411.271 210.325C411.271 210.325 411.271 210.239 411.271 210.097V209.472C411.271 208.903 411.271 208.097 411.271 207.073C411.271 204.969 411.271 201.935 411.195 198.124L411.337 198.266L365.217 198.352C365.321 198.247 364.98 198.589 365.454 198.124V204.305C365.454 206.334 365.454 208.343 365.454 210.306L365.227 210.069L398.094 210.173L407.792 210.239H410.418H411.1C411.182 210.231 411.265 210.231 411.347 210.239H411.138H410.475H407.906L398.16 210.457L365.132 210.562H364.904V210.334C364.904 208.372 364.904 206.362 364.904 204.333V198.133L365.141 197.896L411.261 197.982H411.432V198.133C411.432 201.982 411.375 205.044 411.356 207.168C411.356 208.182 411.356 208.969 411.356 209.538C411.356 209.784 411.356 209.983 411.356 210.135C411.336 210.202 411.307 210.266 411.271 210.325Z" fill="#E0E0E0"/>
<path d="M499.984 82.707C499.976 82.6346 499.976 82.5614 499.984 82.489C499.984 82.3278 499.984 82.1192 499.984 81.8633C499.984 81.285 499.984 80.4887 499.984 79.4553C499.984 77.3508 499.937 74.3267 499.908 70.5062L500.051 70.6484L453.93 70.7432C454.035 70.639 453.693 70.9802 454.158 70.5062V82.707L453.921 82.4795L486.788 82.5838L496.496 82.6501H499.122H499.804H500.051C499.978 82.659 499.905 82.659 499.833 82.6501H499.178H496.6L486.949 82.7165L453.921 82.8208H453.693V70.5252C454.158 70.0607 453.817 70.3925 453.93 70.2882L500.051 70.383H500.193V70.5252C500.193 74.3836 500.126 77.4361 500.107 79.5596C500.107 80.574 500.107 81.3703 500.107 81.9296C500.107 82.1761 500.107 82.3752 500.107 82.5364C500.072 82.5968 500.03 82.6539 499.984 82.707Z" fill="#E0E0E0"/>
<path d="M671.023 265.441C671.014 265.369 671.014 265.296 671.023 265.223V264.598C671.023 264.029 671.023 263.223 671.023 262.199C671.023 260.095 671.023 257.061 670.947 253.241L671.089 253.383L624.969 253.478L625.206 253.241V265.441L624.978 265.214L657.845 265.318L667.543 265.385H670.169H670.852H671.098C671.098 265.385 671.032 265.385 670.88 265.385H670.226H667.657L658.006 265.451L624.978 265.555H624.741V253.288L624.978 253.061L671.098 253.146H671.184V253.288C671.184 257.146 671.127 260.199 671.108 262.332C671.108 263.346 671.108 264.133 671.108 264.702V265.299C671.083 265.349 671.054 265.396 671.023 265.441Z" fill="#E0E0E0"/>
<path d="M677.281 253.279C677.268 253.204 677.268 253.127 677.281 253.052C677.281 252.871 677.281 252.663 677.281 252.407C677.281 251.8 677.281 250.985 677.281 249.961C677.281 247.819 677.234 244.795 677.196 241.078L677.366 241.249L649.656 241.315C649.438 241.524 649.941 241.031 649.884 241.078V247.354C649.884 249.402 649.884 251.374 649.884 253.27L649.656 253.052L669.489 253.156L675.262 253.222H676.817H677.376C677.209 253.235 677.041 253.235 676.873 253.222H675.357L669.669 253.289L649.694 253.393H649.381V253.165C649.381 251.269 649.381 249.298 649.381 247.25V240.974C649.325 241.031 649.827 240.529 649.618 240.747L677.328 240.803H677.499V240.965C677.499 244.757 677.433 247.781 677.414 249.942C677.414 250.957 677.414 251.762 677.414 252.36C677.387 252.668 677.343 252.975 677.281 253.279Z" fill="#E0E0E0"/>
<path d="M241.315 402.542L230.887 407.026L231.588 345.169C231.91 337.765 228.507 334.608 226.658 332.503C209.869 313.411 184.833 327.261 184.615 346.61L183.989 401.887L173.836 401.774L174.841 343.946C174.917 337.433 179.979 326.133 185.089 322.085C213.339 299.703 242.244 322.824 241.969 347.283L241.315 402.542Z" fill="#F5F5F5"/>
<path d="M241.313 402.54V401.431C241.313 400.701 241.313 399.63 241.313 398.227C241.313 395.383 241.37 391.259 241.408 385.903C241.446 380.547 241.512 374.053 241.579 366.478C241.617 362.686 241.655 358.651 241.693 354.372C241.693 350.087 242.081 345.527 241.2 340.844C240.317 335.94 238.33 331.301 235.388 327.278C235 326.757 234.63 326.226 234.222 325.714C233.815 325.202 233.35 324.766 232.914 324.245C232.023 323.256 231.073 322.323 230.07 321.448C229.587 320.984 229.018 320.614 228.487 320.187C227.956 319.761 227.435 319.325 226.837 318.983C225.689 318.218 224.492 317.528 223.254 316.917C220.721 315.643 218.04 314.687 215.272 314.073L213.129 313.722L212.058 313.542L210.968 313.476L208.769 313.333C208.029 313.333 207.29 313.381 206.55 313.409C200.422 313.687 194.489 315.656 189.41 319.097C184.066 322.716 179.876 327.798 177.342 333.734C176.07 336.797 175.234 340.023 174.859 343.319C174.574 346.637 174.65 350.059 174.584 353.481C174.432 367.199 174.271 381.4 174.11 395.952C174.11 397.892 174.088 399.826 174.043 401.753L173.806 401.507L183.959 401.621L183.722 401.858C183.843 390.861 183.966 380.117 184.092 369.626C184.149 364.405 184.209 359.258 184.272 354.183C184.272 351.655 184.301 349.142 184.358 346.646C184.412 344.154 184.827 341.682 185.59 339.309C187.146 334.69 190.077 330.658 193.989 327.752C194.453 327.387 194.937 327.048 195.44 326.738L196.956 325.79C197.986 325.245 199.054 324.776 200.151 324.387C201.236 323.992 202.348 323.675 203.479 323.439C204.038 323.316 204.607 323.268 205.166 323.174L206.01 323.06H206.863C209.09 322.936 211.324 323.125 213.499 323.619C215.619 324.128 217.665 324.909 219.585 325.942C225.05 328.975 229.127 334.007 230.961 339.982C231.497 341.834 231.815 343.743 231.909 345.67C231.909 346.144 231.909 346.618 231.957 347.082C232.004 347.547 231.957 348.03 231.957 348.476C231.957 349.424 231.957 350.315 231.957 351.225C231.957 353.036 231.957 354.818 231.89 356.562C231.795 363.539 231.72 369.948 231.644 375.731C231.483 387.287 231.359 396.331 231.274 402.341L231.208 402.275L238.868 402.398H240.764H241.38H238.896L231.198 402.351H231.132V402.284C231.132 396.274 231.265 387.23 231.369 375.674C231.426 369.891 231.492 363.473 231.558 356.496C231.558 354.751 231.559 352.969 231.615 351.159C231.615 350.211 231.615 349.338 231.615 348.409C231.615 347.954 231.615 347.461 231.615 347.025L231.558 345.632C231.417 341.747 230.264 337.966 228.212 334.663C226.073 331.127 223.042 328.214 219.424 326.217C217.536 325.205 215.525 324.44 213.442 323.941C211.294 323.46 209.089 323.281 206.892 323.411H206.057L205.233 323.534C204.673 323.619 204.114 323.667 203.564 323.79C201.337 324.265 199.184 325.04 197.165 326.093L195.677 326.985C195.185 327.273 194.71 327.589 194.255 327.933C190.409 330.792 187.534 334.763 186.017 339.309C185.27 341.639 184.868 344.066 184.822 346.513C184.822 349.003 184.794 351.516 184.737 354.05C184.68 359.106 184.623 364.254 184.566 369.493C184.452 379.921 184.329 390.7 184.206 401.725V401.962H183.969L173.806 401.848H173.569V401.611C173.569 399.715 173.591 397.781 173.636 395.809C173.806 381.267 173.967 367.066 174.129 353.339C174.195 349.907 174.129 346.523 174.404 343.129C174.79 339.791 175.642 336.523 176.935 333.421C178.256 330.457 179.965 327.68 182.016 325.164C184.094 322.713 186.488 320.549 189.135 318.727C194.281 315.238 200.292 313.243 206.503 312.964C207.252 312.964 208.001 312.878 208.75 312.897L211.3 313.049L212.703 313.21L214.826 313.561L215.774 313.769C218.407 314.385 220.954 315.321 223.358 316.557C224.614 317.173 225.827 317.873 226.989 318.652C227.586 319.002 228.098 319.476 228.648 319.875C229.198 320.273 229.757 320.68 230.26 321.145C231.263 322.036 232.213 322.985 233.104 323.989L234.431 325.477C234.839 325.999 235.208 326.539 235.597 327.07C238.565 331.138 240.566 335.829 241.446 340.787C242.328 345.527 241.882 350.116 241.911 354.401C241.939 358.686 241.797 362.762 241.749 366.554C241.645 374.138 241.55 380.66 241.475 385.998C241.399 391.335 241.342 395.478 241.294 398.265C241.294 399.649 241.294 400.72 241.238 401.44C241.181 402.161 241.313 402.54 241.313 402.54Z" fill="#E0E0E0"/>
<path d="M162.237 365.664L254.187 366.707C255.128 366.718 256.025 367.102 256.683 367.774C257.34 368.446 257.703 369.352 257.692 370.293L256.886 441.36C256.876 442.215 256.528 443.03 255.916 443.628C255.305 444.226 254.481 444.556 253.627 444.546L161.392 443.5L162.275 365.664L162.237 365.664Z" fill="#E0E0E0"/>
<path d="M162.239 365.466L243.103 366.275C244.124 366.285 245.099 366.7 245.813 367.429C246.528 368.158 246.924 369.141 246.913 370.162L246.221 439.366C246.209 440.623 245.697 441.824 244.799 442.704C243.902 443.584 242.691 444.071 241.434 444.059L161.593 443.26C160.537 443.25 159.529 442.82 158.79 442.066C158.05 441.312 157.641 440.295 157.652 439.239L158.351 369.277C158.361 368.256 158.777 367.281 159.506 366.566C160.235 365.852 161.218 365.456 162.239 365.466Z" fill="#EBEBEB"/>
<path d="M214.107 398.304C214.124 396.85 213.848 395.407 213.297 394.061C212.745 392.716 211.928 391.495 210.896 390.471C209.863 389.447 208.635 388.641 207.284 388.1C205.934 387.56 204.489 387.297 203.035 387.326C200.237 387.41 197.578 388.558 195.599 390.537C193.62 392.516 192.472 395.175 192.389 397.972C192.345 400.344 193.082 402.665 194.487 404.577C195.891 406.488 197.886 407.885 200.162 408.552L192.91 423.455L211.633 424.014L206.097 408.59C208.368 407.979 210.378 406.644 211.824 404.788C213.269 402.932 214.071 400.656 214.107 398.304Z" fill="#E0E0E0"/>
<path d="M245.702 437.115C245.569 437.115 245.702 423.568 245.939 406.865C246.176 390.161 246.517 376.604 246.65 376.604C246.783 376.604 246.65 390.151 246.413 406.865C246.176 423.578 245.835 437.125 245.702 437.115Z" fill="#FAFAFA"/>
<path d="M225.946 368.775C225.946 368.908 214.03 369.041 199.327 369.069C184.623 369.097 172.697 369.012 172.697 368.879C172.697 368.747 184.614 368.623 199.327 368.595C214.04 368.567 225.946 368.623 225.946 368.775Z" fill="white"/>
<path d="M191.972 403.907C191.787 403.706 191.636 403.475 191.527 403.224C191.186 402.565 190.913 401.872 190.711 401.158C190.033 398.777 190.096 396.246 190.892 393.903C191.688 391.559 193.179 389.513 195.167 388.038C195.758 387.591 196.393 387.207 197.063 386.89C197.299 386.759 197.555 386.67 197.821 386.625C197.821 386.701 196.788 387.146 195.366 388.303C193.498 389.794 192.097 391.79 191.329 394.053C190.562 396.317 190.459 398.753 191.034 401.073C191.498 402.902 192.048 403.85 191.972 403.907Z" fill="white"/>
<path d="M196.236 409.1C196.17 409.214 195.535 408.939 194.814 408.493C194.094 408.048 193.572 407.593 193.639 407.479C193.705 407.365 194.35 407.64 195.07 408.086C195.79 408.531 196.236 408.986 196.236 409.1Z" fill="white"/>
<path d="M205.261 315.849C204.656 315.964 204.045 316.043 203.431 316.086C201.776 316.307 200.14 316.659 198.54 317.138C193.222 318.681 188.454 321.706 184.793 325.859C181.131 330.013 178.728 335.123 177.864 340.591C177.579 342.238 177.436 343.907 177.437 345.578C177.437 346.753 177.437 347.417 177.437 347.417C177.386 347.264 177.361 347.104 177.361 346.943C177.361 346.63 177.267 346.175 177.257 345.578C177.19 343.892 177.285 342.203 177.541 340.535C178.332 334.974 180.734 329.766 184.451 325.554C188.167 321.343 193.035 318.311 198.454 316.835C200.076 316.359 201.739 316.041 203.422 315.887C204.01 315.82 204.474 315.83 204.787 315.82C204.946 315.814 205.104 315.823 205.261 315.849Z" fill="white"/>
<path d="M176.935 355.804C176.719 354.872 176.661 353.911 176.764 352.96C176.7 352.002 176.799 351.041 177.058 350.116C177.344 352.005 177.302 353.929 176.935 355.804Z" fill="white"/>
<path d="M235.36 91.7383H189.24V103.939H235.36V91.7383Z" fill="#F5F5F5"/>
<path d="M215.862 116.796C215.862 116.796 215.862 116.72 215.862 116.578V115.952C215.862 115.374 215.862 114.568 215.862 113.544C215.862 111.439 215.862 108.415 215.786 104.595L215.928 104.737L169.808 104.832C169.912 104.728 169.571 105.059 170.045 104.595V110.776C170.045 112.811 170.045 114.811 170.045 116.777L169.817 116.549L202.685 116.653L212.383 116.72H215.009H215.691C215.773 116.712 215.856 116.712 215.938 116.72H215.729H215.065H212.496L202.846 116.786L169.817 116.89H169.59V116.663C169.59 114.697 169.59 112.697 169.59 110.662V104.481L169.827 104.244L215.947 104.339H216.089V104.481C216.089 108.33 216.032 111.392 216.013 113.516C216.013 114.53 216.013 115.317 216.013 115.886C216.013 116.132 216.013 116.331 216.013 116.483C216.013 116.635 215.871 116.796 215.862 116.796Z" fill="#E0E0E0"/>
<path d="M664.226 59.8877H618.105V72.0885H664.226V59.8877Z" fill="#F5F5F5"/>
<path d="M644.727 84.9413C644.72 84.8688 644.72 84.7957 644.727 84.7232V84.0975C644.727 83.5193 644.727 82.7229 644.727 81.6896C644.727 79.5851 644.727 76.5609 644.651 72.7405L644.793 72.8827L598.673 72.9775C598.777 72.8732 598.436 73.205 598.91 72.7405V74.2857C598.91 74.8071 598.91 75.3285 598.91 75.8405V84.9413L598.682 84.7137L631.549 84.818L641.247 84.8844H643.873H644.556H644.802H644.584H643.93H641.361L631.711 84.9507L598.682 85.055H598.445V72.7595L598.682 72.5225L644.802 72.6173H644.945V72.7595C644.945 76.6083 644.888 79.6704 644.869 81.7939C644.869 82.8083 644.869 83.5951 644.869 84.1639C644.869 84.4104 644.869 84.6095 644.869 84.7706C644.869 84.9318 644.736 84.9413 644.727 84.9413Z" fill="#E0E0E0"/>
<path d="M401.204 302.442H355.084V314.643H401.204V302.442Z" fill="#F5F5F5"/>
<path d="M381.702 327.496C381.695 327.42 381.695 327.344 381.702 327.268V326.643C381.702 326.074 381.702 325.268 381.702 324.244C381.702 322.14 381.655 319.116 381.626 315.295L381.769 315.437L335.648 315.532C335.753 315.428 335.411 315.76 335.876 315.295V327.477L335.648 327.249L368.516 327.354L378.214 327.42H380.84H381.522H381.769H381.551H380.896H378.327L368.677 327.486L335.591 327.723H335.354V315.314L335.591 315.077L381.712 315.172H381.854V315.314C381.854 319.163 381.797 322.225 381.778 324.349C381.778 325.363 381.778 326.15 381.778 326.719C381.778 326.965 381.778 327.164 381.778 327.316C381.757 327.377 381.731 327.438 381.702 327.496Z" fill="#E0E0E0"/>
<path d="M98.8396 72.6268C98.8312 72.5544 98.8312 72.4812 98.8396 72.4088C98.8396 72.2476 98.8396 72.0391 98.8396 71.7831C98.8396 71.2048 98.8396 70.4085 98.8396 69.3752C98.8396 67.2706 98.8396 64.2465 98.7638 60.4261L98.906 60.5682L52.7194 60.6725C52.8237 60.5682 52.4824 60.9095 52.9469 60.4355V72.6268L52.7194 72.3993L85.5866 72.5036L95.2846 72.5699H97.9106H98.5931H98.8396C98.7672 72.5789 98.694 72.5789 98.6216 72.5699H97.9675H95.3889L85.7477 72.6363L52.7194 72.7406H52.4824V60.445L52.7194 60.208L98.8396 60.3028H98.9818V60.445C98.9818 64.3034 98.9249 67.3559 98.906 69.4795C98.906 70.4938 98.906 71.2901 98.906 71.8495C98.906 72.0959 98.906 72.295 98.906 72.4562C98.8884 72.5147 98.8662 72.5718 98.8396 72.6268Z" fill="#E0E0E0"/>
<path d="M558.761 424.449C558.761 424.449 558.761 424.373 558.761 424.231V423.605C558.761 423.027 558.761 422.231 558.761 421.197C558.761 419.093 558.761 416.069 558.685 412.248L558.827 412.39L512.707 412.485L512.944 412.248V418.429C512.944 420.471 512.944 422.471 512.944 424.43L512.717 424.203L545.584 424.307L555.282 424.373H557.908H558.6H558.837C558.837 424.373 558.771 424.373 558.628 424.373H557.965H555.396L545.745 424.44L512.717 424.544H512.489V424.316C512.489 422.351 512.489 420.35 512.489 418.315V412.134L512.726 411.897L558.846 411.992H558.989V412.134C558.989 415.983 558.932 419.045 558.913 421.169C558.913 422.183 558.913 422.97 558.913 423.539C558.913 423.785 558.913 423.984 558.913 424.146C558.913 424.307 558.771 424.458 558.761 424.449Z" fill="#E0E0E0"/>
<path d="M373.855 55.1083C373.855 55.1083 373.855 55.0229 373.855 54.8807V54.2551C373.855 53.6863 373.855 52.8805 373.855 51.8566C373.855 49.7521 373.855 46.7185 373.779 42.9075L373.921 43.0497L327.801 43.135L328.038 42.9075V49.1074C328.038 51.1488 328.038 53.1491 328.038 55.1083L327.811 54.8807L360.678 54.985L370.376 55.0419H373.002H373.694C373.773 55.0341 373.852 55.0341 373.931 55.0419H373.722H373.059H370.489L360.839 55.1083L327.811 55.2125H327.583V54.985C327.583 53.0227 327.583 51.0224 327.583 48.9842V42.9265L327.82 42.6895L373.94 42.7843H374.082V42.9265C374.082 46.7753 374.026 49.8374 374.007 51.9609C374.007 52.9753 374.007 53.7621 374.007 54.3309V54.9281C373.965 54.9953 373.914 55.056 373.855 55.1083Z" fill="#E0E0E0"/>
<path d="M380.151 42.908C380.144 42.8291 380.144 42.7498 380.151 42.671C380.151 42.5003 380.151 42.2823 380.151 42.0263C380.151 41.4291 380.151 40.6138 380.151 39.5805C380.151 37.438 380.094 34.4234 380.056 30.7072L380.226 30.8684L352.516 30.9347L352.744 30.7072V36.9735C352.744 39.0117 352.744 40.993 352.744 42.889L352.526 42.6615L372.349 42.7658L378.122 42.8321H379.677H380.236C380.069 42.8457 379.901 42.8457 379.733 42.8321H378.217L372.529 42.889L352.554 42.9933H352.327V42.7753C352.327 40.8793 352.327 38.8979 352.327 36.8597V30.7262C352.27 30.7262 352.772 30.2806 352.564 30.4892L380.274 30.5555H380.444V30.7262C380.444 34.5182 380.369 37.5328 380.35 39.7037C380.35 40.7181 380.35 41.5144 380.35 42.1117C380.35 42.7089 380.151 42.9175 380.151 42.908Z" fill="#E0E0E0"/>
<path d="M82.8178 346.022C82.8137 345.95 82.8137 345.877 82.8178 345.804C82.8178 345.643 82.8178 345.434 82.8178 345.178C82.8178 344.6 82.8178 343.804 82.8178 342.78C82.8178 340.675 82.8178 337.642 82.7419 333.821L82.8841 333.964L36.7639 334.058L37.0009 333.821V340.012C37.0009 342.047 37.0009 344.047 37.0009 346.013L36.7734 345.785L69.6406 345.889L79.3386 345.956H81.9646H82.6566H82.8936C82.8936 345.956 82.8273 345.956 82.6851 345.956H82.0215H79.4524L69.8017 346.022L36.7734 346.126H36.5459V346.022C36.5459 344.06 36.5459 342.06 36.5459 340.021V333.831C37.0199 333.366 36.6786 333.708 36.7829 333.603L82.9031 333.689H83.0453V333.831C83.0453 337.689 82.9884 340.742 82.9695 342.875C82.9695 343.889 82.9695 344.676 82.9695 345.245V345.842C82.8273 346.022 82.8273 346.022 82.8178 346.022Z" fill="#E0E0E0"/>
<path d="M89.1119 333.838C89.1044 333.762 89.1044 333.686 89.1119 333.61C89.1119 333.43 89.1119 333.222 89.1119 332.966C89.1119 332.359 89.1119 331.544 89.1119 330.52C89.1119 328.377 89.055 325.353 89.0171 321.637L89.1877 321.808L61.4777 321.874C61.2691 322.083 61.7621 321.59 61.7052 321.637V327.913C61.7052 329.961 61.7052 331.932 61.7052 333.828L61.4872 333.61L81.3098 333.715L87.0832 333.781H88.6379H89.1972C89.03 333.795 88.862 333.795 88.6948 333.781H87.178L81.49 333.847L61.5156 333.952H61.2881V333.724C61.2881 331.828 61.2881 329.856 61.2881 327.809V321.533L61.5251 321.296L89.1119 321.467H89.2825V321.637C89.2825 325.429 89.2067 328.453 89.1877 330.615C89.1877 331.629 89.1877 332.435 89.1877 333.032C89.1877 333.629 89.1119 333.857 89.1119 333.838Z" fill="#E0E0E0"/>
<path d="M228.052 245.714C228.043 245.642 228.043 245.568 228.052 245.496V244.87C228.052 244.292 228.052 243.496 228.052 242.472C228.052 240.358 228.004 237.334 227.976 233.513L228.118 233.655L181.998 233.75C182.102 233.646 181.761 233.987 182.225 233.513V245.695L181.998 245.468L214.865 245.572L224.563 245.638H227.189H227.871H228.118H227.9H227.246H224.667L215.026 245.695L181.998 245.799H181.761V233.381L181.998 233.144L228.118 233.238H228.26V233.381C228.26 237.239 228.203 240.291 228.184 242.424C228.184 243.429 228.184 244.226 228.184 244.785V245.392C228.156 245.505 228.112 245.614 228.052 245.714Z" fill="#E0E0E0"/>
<path d="M234.308 233.513C234.295 233.438 234.295 233.361 234.308 233.286C234.308 233.106 234.308 232.897 234.308 232.632L234.261 230.186C234.261 228.053 234.261 225.029 234.176 221.313L234.346 221.483L206.627 221.55L206.864 221.313V227.588C206.864 229.627 206.864 231.608 206.864 233.504L206.636 233.286L226.459 233.39L232.242 233.447H233.796H234.356C234.185 233.46 234.014 233.46 233.844 233.447H232.336L226.648 233.513L206.674 233.618H206.456V233.39C206.456 231.494 206.456 229.513 206.456 227.475V221.199C206.456 221.246 206.911 220.753 206.693 220.962L234.413 221.028H234.583V221.199C234.583 224.991 234.517 228.015 234.498 230.176C234.498 231.191 234.498 231.997 234.45 232.584C234.403 233.172 234.318 233.523 234.308 233.513Z" fill="#E0E0E0"/>
<path d="M658.252 444.508C658.252 444.641 523.115 444.755 356.466 444.755C189.817 444.755 54.6416 444.612 54.6416 444.508C54.6416 444.404 189.751 444.262 356.466 444.262C523.181 444.262 658.252 444.375 658.252 444.508Z" fill="#263238"/>
<path d="M568.959 130.661L561.47 129.107L570.95 83.4984C571.303 81.107 570.778 78.6688 569.471 76.6348C557.536 60.1112 538.121 66.823 535.144 81.0999L526.612 121.864L519.123 120.3L528.688 74.3976C529.181 72.0229 530.197 69.7878 531.661 67.8545C533.125 65.9213 535.002 64.3383 537.154 63.2206C561.271 50.7924 581.511 70.1126 577.387 89.9163L568.959 130.661Z" fill="#E0E0E0"/>
<path d="M568.958 130.661C568.958 130.661 569.005 130.377 569.119 129.846C569.233 129.315 569.384 128.509 569.593 127.476L571.489 118.404C572.304 114.47 573.29 109.663 574.437 104.079L576.333 95.1493C576.921 91.983 577.897 88.6649 577.935 85.0815C577.992 81.3301 577.195 77.6149 575.603 74.2174C575.395 73.7813 575.195 73.3263 574.977 72.8902L574.219 71.6104C573.703 70.753 573.136 69.9268 572.522 69.1361C572.219 68.719 571.858 68.3588 571.527 67.9701C571.195 67.5814 570.873 67.1833 570.484 66.842C569.747 66.1074 568.962 65.4233 568.133 64.7943C566.451 63.4781 564.61 62.3793 562.653 61.5237L561.127 60.9549L560.264 60.6705L559.468 60.4619L557.866 60.0448C557.316 59.9216 556.766 59.8647 556.216 59.7699C551.644 59.089 546.972 59.6862 542.717 61.4953C539.339 62.9304 536.316 65.0869 533.86 67.8135C531.404 70.5401 529.573 73.7709 528.497 77.2795C527.805 79.6969 527.359 82.228 526.819 84.7497C524.714 94.8649 522.525 105.34 520.297 116.034C519.993 117.465 519.7 118.878 519.406 120.309L519.263 120.091L526.753 121.655L526.544 121.798C528.232 113.692 529.891 105.757 531.493 98.0975C532.295 94.2487 533.088 90.4567 533.872 86.7215L535.029 81.1663C535.435 79.3313 536.099 77.5631 537.001 75.9143C538.828 72.7324 541.578 70.1802 544.888 68.5958C545.296 68.4157 545.684 68.1976 546.111 68.0554L547.362 67.6193C548.201 67.3672 549.056 67.1739 549.922 67.0411C550.782 66.9104 551.65 66.8407 552.519 66.8325C552.946 66.8325 553.382 66.8325 553.809 66.8894H554.444L555.079 66.9937C556.747 67.221 558.375 67.6839 559.914 68.3683C561.4 69.0529 562.793 69.9259 564.056 70.9658C566.473 73.006 568.313 75.6437 569.394 78.6161C570.437 81.3981 570.741 84.4032 570.275 87.3377L570.105 88.39C570.038 88.7313 569.962 89.0726 569.896 89.4139L569.47 91.4426C569.185 92.7793 568.91 94.0875 568.645 95.3768C567.564 100.515 566.569 105.245 565.678 109.502C563.876 118.034 562.473 124.67 561.544 129.116L561.497 129.05L567.185 130.254L568.569 130.557L569.024 130.661L568.578 130.576L567.204 130.311L561.516 129.154V129.097L565.554 109.474C566.436 105.208 567.45 100.477 568.484 95.3294C568.749 94.0496 569.024 92.7319 569.299 91.3952C569.432 90.7316 569.574 90.049 569.716 89.3759C569.792 89.0347 569.858 88.6934 569.934 88.3426C570.01 87.9919 570.038 87.6506 570.095 87.3093C570.549 84.4183 570.246 81.4589 569.214 78.7204C568.144 75.7968 566.327 73.2047 563.943 71.2028C562.693 70.1806 561.316 69.3235 559.847 68.6527C558.337 67.9871 556.742 67.5341 555.107 67.3065L554.482 67.2117H553.846C553.429 67.2117 553.012 67.1548 552.586 67.2117C550.87 67.2311 549.166 67.4928 547.523 67.9891L546.291 68.4251C545.883 68.5787 545.484 68.7559 545.096 68.956C541.845 70.5105 539.146 73.0209 537.361 76.1514C536.483 77.7666 535.845 79.5005 535.465 81.299C535.086 83.1381 534.7 84.9899 534.308 86.8543C533.531 90.5894 532.741 94.3814 531.938 98.2303L526.999 121.93V122.11H526.819L519.33 120.546H519.159V120.366C519.453 118.954 519.747 117.522 520.05 116.091C522.288 105.369 524.468 94.8933 526.582 84.8066C527.122 82.2754 527.53 79.7632 528.269 77.2984C529.039 74.8891 530.14 72.5984 531.54 70.4918C534.314 66.4179 538.205 63.2314 542.745 61.3151C547.055 59.4881 551.786 58.8877 556.416 59.5803C556.975 59.6751 557.534 59.7415 558.084 59.8552L559.98 60.3482L560.994 60.6705L562.511 61.2393L563.213 61.5332C565.067 62.3737 566.815 63.4336 568.417 64.69C569.248 65.3338 570.04 66.0271 570.787 66.7661C571.086 67.0916 571.371 67.43 571.64 67.7805C571.972 68.1787 572.342 68.5389 572.636 68.956C573.26 69.7585 573.836 70.5974 574.361 71.4682L575.12 72.7575C575.347 73.2031 575.537 73.7055 575.755 74.1037C577.354 77.5421 578.148 81.2997 578.077 85.091C578.077 88.7123 577.044 92.0398 576.447 95.2156C575.85 98.3914 575.148 101.378 574.551 104.174C573.375 109.758 572.351 114.602 571.527 118.499C570.702 122.395 570.048 125.466 569.631 127.533L569.128 129.875C569.024 130.405 568.958 130.661 568.958 130.661Z" fill="#263238"/>
<path d="M515.893 91.9023L582.797 105.843C583.718 106.035 584.524 106.584 585.039 107.371C585.555 108.157 585.736 109.116 585.545 110.037L574.975 160.765C574.8 161.602 574.301 162.335 573.586 162.804C572.871 163.272 571.999 163.438 571.162 163.263L503.942 149.257L515.893 91.9023Z" fill="#455A64"/>
<g opacity="0.3">
<path d="M515.927 91.959L582.479 105.826C583.493 106.037 584.381 106.643 584.949 107.509C585.517 108.376 585.717 109.432 585.505 110.446L575.082 160.469C574.889 161.4 574.333 162.215 573.538 162.736C572.743 163.257 571.774 163.44 570.843 163.246L503.976 149.314L515.927 91.959Z" fill="black"/>
</g>
<path d="M516.459 92.0254L574.167 104.05C575.166 104.258 576.042 104.854 576.601 105.708C577.16 106.562 577.358 107.603 577.149 108.603L566.945 157.577C566.689 158.807 565.954 159.886 564.902 160.575C563.851 161.264 562.568 161.507 561.338 161.25L504.67 149.443C504.158 149.336 503.672 149.13 503.24 148.835C502.808 148.541 502.438 148.164 502.152 147.727C501.865 147.289 501.667 146.8 501.57 146.286C501.473 145.772 501.478 145.244 501.584 144.733L511.943 95.016C512.15 94.0231 512.741 93.1519 513.586 92.5919C514.432 92.0319 515.464 91.8283 516.459 92.0254Z" fill="#455A64"/>
<g opacity="0.3">
<path d="M549.47 123.582C549.693 122.51 549.7 121.404 549.488 120.33C549.276 119.255 548.851 118.234 548.238 117.327C547.624 116.42 546.835 115.645 545.916 115.049C544.998 114.453 543.969 114.047 542.891 113.855C540.81 113.513 538.677 113.976 536.927 115.151C535.176 116.325 533.939 118.123 533.467 120.179C533.094 121.926 533.304 123.748 534.066 125.365C534.828 126.982 536.1 128.304 537.686 129.128L530.149 139.091L543.905 142.22L542.009 130.038C543.787 129.925 545.479 129.232 546.827 128.066C548.174 126.901 549.102 125.325 549.47 123.582Z" fill="black"/>
</g>
<path d="M567.178 156.845C567.083 156.845 569.131 146.834 571.747 134.529C574.364 122.224 576.573 112.251 576.667 112.27C576.762 112.289 574.715 122.29 572.098 134.614C569.482 146.938 567.273 156.863 567.178 156.845Z" fill="#263238"/>
<path d="M562.513 103.466C562.513 103.56 553.669 101.92 542.804 99.8063C531.94 97.6922 523.133 95.9005 523.152 95.8057C523.171 95.7109 531.997 97.3415 542.871 99.4555C553.744 101.57 562.532 103.333 562.513 103.466Z" fill="white"/>
<path d="M532.301 124.5C532.301 124.5 532.187 124.31 532.074 123.931C531.911 123.398 531.809 122.847 531.77 122.291C531.62 120.433 532.033 118.574 532.955 116.954C533.893 115.344 535.289 114.05 536.965 113.238C537.47 112.996 537.997 112.806 538.539 112.669C538.735 112.608 538.94 112.579 539.146 112.583C539.146 112.65 538.302 112.82 537.079 113.465C535.488 114.303 534.169 115.576 533.274 117.135C532.38 118.694 531.947 120.476 532.026 122.272C532.074 123.656 532.368 124.481 532.301 124.5Z" fill="white"/>
<path d="M534.671 128.925C534.605 129.001 534.168 128.707 533.723 128.271C533.277 127.835 532.936 127.427 533.002 127.323C533.069 127.219 533.505 127.551 533.95 127.977C534.396 128.404 534.737 128.925 534.671 128.925Z" fill="white"/>
<path d="M554.909 61.3702C554.909 61.3702 554.416 61.3702 553.525 61.2754C552.261 61.1964 550.993 61.2186 549.733 61.3417C545.585 61.7167 541.628 63.2621 538.324 65.7979C535.019 68.3338 532.503 71.7559 531.067 75.666C530.627 76.8438 530.282 78.0548 530.034 79.2874C529.863 80.1595 529.787 80.6525 529.759 80.6525C529.744 80.5329 529.744 80.4119 529.759 80.2923C529.759 80.0553 529.759 79.7045 529.882 79.2589C530.084 78.0063 530.402 76.775 530.83 75.5807C532.224 71.5844 534.756 68.083 538.115 65.5075C541.473 62.9321 545.512 61.3951 549.733 61.0858C550.996 60.984 552.266 61.0031 553.525 61.1427C553.971 61.1427 554.312 61.2564 554.549 61.2849C554.672 61.296 554.794 61.3247 554.909 61.3702Z" fill="white"/>
<path d="M528.176 86.7799C528.153 86.0612 528.249 85.3435 528.461 84.6564C528.555 83.947 528.766 83.2582 529.086 82.6182C529.116 83.3334 529.023 84.0483 528.812 84.7322C528.718 85.4459 528.503 86.1384 528.176 86.7799Z" fill="white"/>
<path d="M57.2768 392.095L40.2412 415.226L68.9277 436.575C70.8237 433.731 60.0449 417.16 60.0449 417.16L71.5726 402.788L57.2768 392.095Z" fill="#455A64"/>
<path d="M52.1408 409.328C51.8035 409.205 51.4326 409.212 51.0999 409.346C50.7672 409.481 50.4963 409.735 50.3396 410.058C50.2064 410.392 50.2058 410.765 50.3379 411.099C50.4701 411.434 50.725 411.706 51.0506 411.859C51.4081 411.985 51.7994 411.974 52.1494 411.829C52.4994 411.684 52.7834 411.414 52.9466 411.072C53.0514 410.709 53.0111 410.319 52.8343 409.985C52.6575 409.651 52.3579 409.398 51.9986 409.28" fill="white"/>
<path d="M40.2051 415.282L42.0158 412.798L68.8157 434.374C68.8157 434.374 69.6689 435.891 68.8157 436.678L40.2051 415.282Z" fill="#263238"/>
<path d="M60.6728 417.365C60.5685 417.508 59.8196 417.053 58.7768 416.986C57.734 416.92 56.9472 417.242 56.8808 417.09C56.8144 416.939 57.6108 416.285 58.8432 416.379C60.0756 416.474 60.7486 417.261 60.6728 417.365Z" fill="#263238"/>
<path d="M62.7118 420.854C62.636 421.015 61.8586 420.797 60.939 421.034C60.0195 421.271 59.4222 421.802 59.28 421.688C59.1378 421.575 59.6498 420.74 60.7968 420.446C61.9439 420.153 62.8066 420.721 62.7118 420.854Z" fill="#263238"/>
<path d="M61.7335 425.728C61.5818 425.662 61.9136 424.78 62.8427 424.315C63.7717 423.851 64.6533 424.003 64.6249 424.164C64.5965 424.325 63.8855 424.429 63.1365 424.856C62.3876 425.282 61.8852 425.813 61.7335 425.728Z" fill="#263238"/>
<path d="M62.8908 413.803C62.7296 413.888 62.2366 413.215 61.4024 412.684C60.5682 412.153 59.7719 411.935 59.7813 411.736C59.7908 411.537 60.7293 411.499 61.7342 412.144C62.7391 412.788 63.0424 413.746 62.8908 413.803Z" fill="#263238"/>
<path d="M126.635 295.265C127.146 298.166 127.962 322.843 128.483 335.859C129.005 348.875 127.706 355.274 126.217 358.193C124.729 361.113 68.598 402.475 64.3225 412.381L50.1025 400.92C50.1025 400.92 70.9585 363.483 79.8508 356.677C88.743 349.87 105.854 343.623 105.854 343.623L100.991 272.343L124.302 271.072L126.635 295.265Z" fill="#263238"/>
<path d="M74.4672 414.966L74.2207 443.662L109.97 444.155C109.809 440.742 91.4079 433.622 91.4079 433.622L92.3559 415.222L74.4672 414.966Z" fill="#455A64"/>
<path d="M80.3708 431.966C80.0258 432.066 79.7297 432.289 79.5391 432.593C79.3485 432.898 79.2767 433.262 79.3375 433.616C79.4254 433.964 79.6431 434.266 79.9461 434.46C80.2491 434.654 80.6146 434.725 80.968 434.658C81.3323 434.55 81.6439 434.311 81.8433 433.988C82.0426 433.664 82.1158 433.279 82.0487 432.905C81.9217 432.55 81.6617 432.259 81.3238 432.092C80.9859 431.926 80.5965 431.898 80.2381 432.013" fill="white"/>
<path d="M74.209 443.769V440.688L108.574 442.471C108.574 442.471 110.148 443.201 109.949 444.319L74.209 443.769Z" fill="#263238"/>
<path d="M91.9548 433.489C91.9548 433.67 91.0731 433.736 90.2104 434.286C89.3478 434.836 88.8738 435.556 88.7126 435.49C88.5514 435.423 88.8264 434.409 89.8881 433.764C90.9499 433.12 92.0306 433.328 91.9548 433.489Z" fill="#263238"/>
<path d="M95.7491 435.132C95.7491 435.302 95.0191 435.587 94.4219 436.317C93.8247 437.047 93.6351 437.833 93.4739 437.814C93.3127 437.796 93.199 436.819 93.9669 435.918C94.7347 435.018 95.7491 434.933 95.7491 435.132Z" fill="#263238"/>
<path d="M97.7856 439.617C97.6245 439.617 97.397 438.773 97.852 437.825C98.307 436.877 99.1413 436.507 99.2076 436.65C99.274 436.792 98.7716 437.304 98.4018 438.091C98.0321 438.877 97.9563 439.598 97.7856 439.617Z" fill="#263238"/>
<path d="M91.7294 429.273C91.6536 429.434 90.8573 429.178 89.8334 429.273C88.8096 429.368 88.0701 429.624 87.9374 429.472C87.8047 429.32 88.5915 428.714 89.7576 428.666C90.9236 428.619 91.8147 429.14 91.7294 429.273Z" fill="#263238"/>
<path d="M129.214 268.123C129.214 269.801 131.935 312.281 118.046 343.015C118.046 343.015 113.24 352.627 112.358 356.827C111.477 361.027 93.5122 430.686 93.5122 430.686L72.751 429.927C72.751 429.927 69.433 395.032 72.751 374.83C76.069 354.628 82.231 356.998 82.231 343.953C82.231 330.909 79.1311 303.862 79.1311 303.862C79.1311 303.862 74.5996 296.477 73.0544 282.153C71.7936 270.521 77.273 258.055 77.273 258.055L82.6861 248.471L128.484 246.072L129.214 268.123Z" fill="#263238"/>
<path d="M129.212 268.123C129.212 268.123 129.212 267.63 129.212 266.673C129.212 265.715 129.155 264.293 129.117 262.426C129.031 258.681 128.889 253.164 128.719 246.035V245.931H128.605L82.807 248.263H82.7122L82.6553 248.348C80.9773 251.325 79.1287 254.576 77.2327 257.932C75.8226 261.334 74.7216 264.856 73.9432 268.455C73.0831 272.245 72.6978 276.127 72.7961 280.011C73.0846 284.068 73.719 288.093 74.6921 292.041C75.6309 296.187 77.1064 300.193 79.0813 303.958V303.863C79.8682 310.935 80.5981 318.263 81.2143 325.809C81.5177 329.601 81.7831 333.393 81.9727 337.289C82.0675 339.185 82.1434 341.176 82.1528 343.139C82.1528 344.087 82.1528 345.101 82.096 346.077C82.0285 347.056 81.9082 348.031 81.7357 348.997C81.3477 350.943 80.6601 352.817 79.6975 354.552C78.7495 356.325 77.8015 358.079 76.8535 359.928C75.1366 363.679 73.8854 367.627 73.1279 371.683C71.4784 379.836 71.1466 388.311 71.0518 396.852C71.0518 408.124 71.5826 419.197 72.5117 429.9V430.127H72.7297L93.4909 430.885H93.69L93.7374 430.686C99.7572 407.356 105.369 385.552 110.318 365.947L112.11 358.695C112.422 357.491 112.622 356.297 112.991 355.159C113.361 354.022 113.778 352.893 114.214 351.794C115.105 349.594 116.11 347.461 117.058 345.385L117.798 343.84C118.06 343.335 118.294 342.816 118.499 342.285C118.926 341.233 119.352 340.2 119.779 339.166C122.727 331.521 124.921 323.605 126.33 315.533C128.36 304.033 129.407 292.381 129.458 280.703C129.515 272.532 129.183 268.095 129.183 268.095C129.183 268.095 129.183 268.37 129.183 268.91C129.183 269.451 129.183 270.275 129.24 271.337C129.297 273.47 129.335 276.617 129.24 280.703C129.152 292.371 128.096 304.011 126.083 315.504C124.642 323.551 122.42 331.438 119.447 339.053L118.177 342.153C117.968 342.684 117.731 343.186 117.475 343.698C117.219 344.21 116.973 344.731 116.726 345.253C115.778 347.329 114.774 349.462 113.882 351.671C113.437 352.78 113.01 353.908 112.641 355.064C112.271 356.221 112.053 357.444 111.749 358.619C111.152 361.008 110.555 363.416 109.939 365.872C104.905 385.457 99.3022 407.261 93.3013 430.592L93.5478 430.411L72.7866 429.644L73.0331 429.871C72.0851 419.187 71.5352 408.124 71.5732 396.871C71.668 388.339 71.9998 379.902 73.6398 371.806C74.395 367.788 75.6333 363.876 77.3275 360.155C78.1807 358.326 79.2235 356.591 80.1715 354.789C81.1277 353.007 81.8055 351.089 82.1813 349.101C82.361 348.114 82.4845 347.117 82.551 346.115C82.551 345.167 82.6458 344.124 82.6079 343.148C82.6079 341.176 82.5226 339.214 82.4278 337.27C82.2382 333.384 81.9632 329.554 81.6504 325.781C81.0184 318.197 80.3011 310.875 79.4984 303.816V303.759C77.5228 300.043 76.0409 296.084 75.0902 291.984C74.1226 288.063 73.4883 284.068 73.1942 280.04C73.0922 276.191 73.4679 272.344 74.3129 268.588C75.0767 265.024 76.1521 261.535 77.5266 258.16L82.9302 248.566L82.7785 248.661L128.576 246.187L128.453 246.082C128.681 253.202 128.851 258.719 128.965 262.464C129.031 264.36 129.079 265.744 129.117 266.711C129.155 267.678 129.212 268.123 129.212 268.123Z" fill="#455A64"/>
<path d="M114.321 181.135C114.321 181.135 101.997 178.954 103.144 194.814C103.864 204.294 106.651 220.562 108.197 230.943C108.727 234.535 109.903 240.963 114.652 244.736L148.686 268.284L159.426 255.439L129.034 226.496L124.294 197.867L114.321 181.135Z" fill="#455A64"/>
<path d="M115.769 123.972C117.723 125.545 119.268 127.565 120.275 129.862C121.281 132.16 121.719 134.665 121.552 137.168C121.362 139.595 120.689 142.353 122.272 144.202C123.856 146.051 126.889 145.984 128.387 147.861C130.141 150.08 128.671 153.379 129.335 156.137C129.673 157.426 130.459 158.552 131.551 159.315C132.644 160.077 133.972 160.426 135.298 160.299C132.187 162.845 128.434 164.485 124.453 165.039L121.343 161.162C122.5 162.527 122.187 164.698 121.078 166.091C119.873 167.388 118.319 168.31 116.603 168.746C112.519 170.002 108.2 170.299 103.983 169.613C99.7652 168.928 95.7628 167.278 92.2871 164.793" fill="#263238"/>
<path d="M70.2373 145.367C70.844 143.471 71.8678 141.793 72.2755 139.887C73.1476 135.782 71.1474 131.156 73.1382 127.459C74.5602 124.833 77.5748 123.544 80.4378 122.662C83.3007 121.781 86.3533 121.041 88.4863 118.946C90.041 117.41 90.9321 115.287 92.4868 113.751C94.7052 111.552 97.9852 110.803 101.095 110.613C104.305 110.303 107.542 110.829 110.489 112.139C111.953 112.807 113.239 113.81 114.244 115.066C115.248 116.323 115.943 117.798 116.272 119.373C116.519 120.908 116.329 122.529 116.822 124.018C117.353 125.648 118.633 126.919 119.429 128.445C120.227 130.084 120.457 131.942 120.085 133.726C119.713 135.51 118.758 137.121 117.372 138.304L95.3972 166.687C90.7804 168.432 79.594 166.327 76.0296 162.895C72.4651 159.464 68.711 150.059 70.2373 145.367Z" fill="#263238"/>
<path d="M116.791 134.702C115.843 128.255 110.98 120.643 104.581 121.818L84.8247 128.454C82.9287 128.815 84.2749 131.99 84.4645 133.953L88.7589 178.509C88.7589 178.509 86.0856 180.405 85.1376 180.045C85.0836 180.026 85.0251 180.024 84.9701 180.04C84.9152 180.056 84.8667 180.089 84.8312 180.134C84.7957 180.178 84.7751 180.233 84.7723 180.29C84.7694 180.347 84.7844 180.404 84.8152 180.452C87.2137 183.912 98.3906 198.957 109.966 194.34C112.544 193.307 109.691 185.183 109.966 182.178L109.624 174.489C109.368 170.565 109.245 168.953 109.245 168.991C109.245 169.029 117.417 166.981 118.299 156.051C118.744 150.638 117.796 141.859 116.791 134.702Z" fill="#FFBF9D"/>
<path d="M115.421 144.619C115.451 144.98 115.339 145.338 115.109 145.618C114.879 145.897 114.549 146.076 114.189 146.117C114.014 146.145 113.835 146.138 113.662 146.096C113.49 146.053 113.328 145.977 113.186 145.871C113.043 145.765 112.924 145.631 112.834 145.478C112.744 145.325 112.686 145.155 112.663 144.979C112.633 144.619 112.746 144.261 112.976 143.981C113.206 143.701 113.535 143.522 113.895 143.482C114.07 143.453 114.25 143.461 114.422 143.503C114.594 143.545 114.756 143.622 114.899 143.728C115.041 143.834 115.161 143.968 115.25 144.121C115.34 144.274 115.398 144.443 115.421 144.619Z" fill="#263238"/>
<path d="M101.957 145.46C101.989 145.82 101.879 146.178 101.65 146.458C101.422 146.738 101.093 146.917 100.734 146.958C100.559 146.985 100.38 146.976 100.208 146.934C100.037 146.891 99.8749 146.814 99.7329 146.708C99.5909 146.602 99.4713 146.469 99.3812 146.317C99.291 146.164 99.2321 145.996 99.2077 145.82C99.1783 145.459 99.2905 145.101 99.5206 144.822C99.7506 144.542 100.08 144.363 100.44 144.322C100.615 144.294 100.793 144.302 100.965 144.344C101.137 144.386 101.298 144.463 101.44 144.569C101.582 144.675 101.7 144.809 101.789 144.962C101.878 145.115 101.935 145.284 101.957 145.46Z" fill="#263238"/>
<path d="M115.912 140.049C115.76 140.305 114.471 139.489 112.859 139.726C111.248 139.963 110.214 141.063 110.015 140.864C109.816 140.665 110.015 140.333 110.48 139.831C111.063 139.176 111.861 138.75 112.729 138.63C113.598 138.51 114.481 138.704 115.22 139.176C115.751 139.546 115.988 139.935 115.912 140.049Z" fill="#263238"/>
<path d="M101.436 141.253C101.246 141.49 99.9853 140.57 98.2505 140.646C96.5156 140.722 95.2832 141.698 95.0841 141.48C94.8851 141.262 95.1695 140.968 95.7098 140.532C96.4191 139.947 97.3027 139.613 98.222 139.584C99.1369 139.548 100.038 139.818 100.782 140.352C101.322 140.741 101.521 141.139 101.436 141.253Z" fill="#263238"/>
<path d="M106.868 151.464C107.633 151.151 108.436 150.941 109.257 150.838C109.626 150.772 109.987 150.667 110.025 150.402C110.03 150.006 109.91 149.618 109.683 149.293C109.257 148.402 108.811 147.463 108.337 146.449C106.441 142.439 105.067 139.14 105.228 139.064C105.389 138.988 107.048 142.173 108.925 146.174C109.38 147.169 109.816 148.07 110.224 149.018C110.501 149.458 110.612 149.982 110.536 150.497C110.493 150.635 110.418 150.762 110.318 150.867C110.218 150.973 110.095 151.053 109.958 151.103C109.753 151.174 109.539 151.218 109.323 151.236C108.516 151.409 107.692 151.485 106.868 151.464Z" fill="#263238"/>
<path d="M109.249 169.011C104.172 169.477 99.0659 168.525 94.498 166.262C94.498 166.262 98.7166 173.561 109.439 171.722L109.249 169.011Z" fill="#FF9A6C"/>
<path d="M102.327 155.804C102.496 155.429 102.757 155.103 103.086 154.856C103.488 154.664 103.944 154.621 104.375 154.732C105.015 154.826 105.608 155.125 106.062 155.586C106.286 155.818 106.443 156.105 106.518 156.419C106.593 156.732 106.583 157.06 106.489 157.368C106.318 157.993 105.389 158.316 104.754 158.449C104.096 158.545 103.425 158.407 102.858 158.06C102.611 157.947 102.396 157.776 102.231 157.562C102.066 157.347 101.955 157.095 101.91 156.827C101.952 156.454 102.097 156.1 102.327 155.804Z" fill="#FF9A6C"/>
<path d="M102.631 153.708C102.868 153.708 103.001 155.291 104.47 156.334C105.94 157.377 107.646 157.064 107.675 157.282C107.703 157.5 107.324 157.623 106.594 157.699C105.647 157.786 104.7 157.534 103.921 156.988C103.169 156.469 102.651 155.676 102.48 154.779C102.385 154.125 102.518 153.708 102.631 153.708Z" fill="#263238"/>
<path d="M101.303 135.42C101.18 135.828 99.6821 135.752 97.9472 136.103C96.2124 136.454 94.8378 137.051 94.5818 136.681C94.4681 136.52 94.6766 136.122 95.217 135.686C95.9408 135.146 96.7788 134.781 97.6663 134.616C98.5538 134.452 99.4672 134.493 100.336 134.738C101 134.927 101.351 135.221 101.303 135.42Z" fill="#263238"/>
<path d="M114.993 134.618C114.718 134.978 113.524 134.722 112.149 134.817C110.775 134.912 109.561 135.244 109.258 134.912C109.125 134.751 109.258 134.39 109.779 134.03C110.465 133.578 111.262 133.326 112.083 133.3C112.898 133.241 113.714 133.416 114.434 133.803C114.927 134.087 115.117 134.428 114.993 134.618Z" fill="#263238"/>
<path d="M80.4565 130.008C81.4045 128.472 83.2436 127.685 84.95 127.031C92.3196 124.186 100.002 122.229 107.835 121.201C108.783 122.803 107.911 124.993 106.441 126.159C104.972 127.325 103.076 127.79 101.322 128.444C99.5682 129.098 97.7575 130.122 97.0275 131.857C96.2976 133.592 96.9138 135.876 96.2312 137.753C95.0652 140.995 90.5432 142.038 89.4151 145.271C88.5429 147.726 89.9649 150.333 90.3631 152.912C90.5451 154.22 90.446 155.553 90.0722 156.82C89.6984 158.087 89.0586 159.26 88.1955 160.261C87.3324 161.261 86.2658 162.066 85.0669 162.622C83.8681 163.177 82.5645 163.47 81.2433 163.482C80.7124 154.198 80.1784 144.92 79.6412 135.649C79.48 133.715 79.4042 131.629 80.4565 130.008Z" fill="#263238"/>
<path d="M61.7611 153.453C63.2305 152.135 65.0696 150.997 65.6479 149.12C66.5011 146.381 64.3017 143.167 65.7237 140.674C67.013 138.398 70.8145 138.522 72.0184 136.199C72.9664 134.379 71.8762 132.777 72.227 131.184C72.5778 129.591 74.853 128.198 76.4646 128.387L89.1109 146.75C90.2864 152.912 91.4714 156.23 90.1537 159.795C89.2821 161.714 88.6241 163.723 88.1913 165.786C87.9069 167.872 88.4473 170.232 90.1442 171.474C82.5602 172.071 75.4692 168.109 68.909 164.269L61.9981 160.212C61.2415 159.85 60.5892 159.302 60.1021 158.619C59.0688 156.932 60.3012 154.761 61.7611 153.453Z" fill="#263238"/>
<path d="M68.749 162.402C69.0136 162.487 69.2872 162.541 69.5643 162.563C70.3551 162.639 71.1531 162.581 71.9248 162.393C73.1567 162.097 74.2905 161.486 75.2144 160.62C76.4347 159.445 77.2003 157.877 77.3758 156.193C77.4898 155.216 77.406 154.226 77.1293 153.282C76.7894 152.276 76.3176 151.32 75.7263 150.438C75.0993 149.543 74.6104 148.559 74.2759 147.518C74.0982 146.986 74.0426 146.421 74.1132 145.865C74.1837 145.309 74.3787 144.775 74.6835 144.305C75.3661 143.357 76.6459 143.158 77.8403 142.684C78.4855 142.452 79.0467 142.033 79.4519 141.48C79.8251 140.888 80.0072 140.197 79.9733 139.498C79.8094 138.16 79.5206 136.839 79.1107 135.555C78.9651 134.931 78.9651 134.282 79.1107 133.659C79.2776 133.03 79.6644 132.482 80.2009 132.113C81.3544 131.448 82.6614 131.095 83.9929 131.09C85.3709 131.044 86.7148 130.649 87.8986 129.942C89.0506 129.24 89.9857 128.233 90.6004 127.032C91.105 125.879 91.4249 124.654 91.5484 123.401C91.6799 122.242 91.9277 121.098 92.2879 119.988C92.6871 118.979 93.2944 118.065 94.0701 117.306C95.5009 115.948 97.3481 115.113 99.3125 114.936C100.95 114.796 102.594 115.124 104.053 115.884C105.149 116.445 106.138 117.196 106.972 118.102C107.67 118.893 108.274 119.761 108.774 120.69C108.774 120.69 108.774 120.624 108.707 120.491C108.629 120.303 108.541 120.119 108.442 119.941C108.08 119.253 107.637 118.61 107.124 118.026C106.29 117.084 105.295 116.297 104.185 115.704C102.712 114.894 101.038 114.522 99.3599 114.632C97.3012 114.783 95.3567 115.636 93.8521 117.05C93.023 117.85 92.3764 118.82 91.9561 119.894C91.5802 121.024 91.3198 122.19 91.1787 123.373C91.0472 124.584 90.7273 125.768 90.2307 126.88C89.6526 127.999 88.7809 128.94 87.709 129.601C86.5795 130.264 85.3017 130.632 83.9929 130.672C82.5664 130.669 81.1652 131.049 79.9354 131.772C79.3202 132.191 78.876 132.817 78.6841 133.535C78.5179 134.237 78.5179 134.967 78.6841 135.668C79.0855 136.929 79.3711 138.224 79.5373 139.536C79.5763 140.146 79.4239 140.752 79.1012 141.271C78.735 141.752 78.238 142.117 77.6697 142.323C77.1104 142.56 76.5037 142.722 75.9159 142.968C75.3039 143.199 74.7641 143.588 74.3517 144.096C74.0169 144.62 73.8024 145.211 73.7237 145.827C73.645 146.444 73.7041 147.07 73.8967 147.661C74.2516 148.734 74.7627 149.75 75.4135 150.675C75.9909 151.513 76.4532 152.425 76.7881 153.387C77.0567 154.283 77.1469 155.223 77.0535 156.155C76.8981 157.776 76.1804 159.292 75.0248 160.44C74.1402 161.296 73.0496 161.91 71.8585 162.222C70.8441 162.487 69.7872 162.548 68.749 162.402Z" fill="#455A64"/>
<path d="M58.6421 149.347C58.5181 149.534 58.4342 149.743 58.3956 149.964C58.2696 150.614 58.3841 151.288 58.718 151.86C58.9493 152.268 59.2742 152.616 59.666 152.874C60.1543 153.169 60.7164 153.321 61.287 153.31C61.9806 153.295 62.6566 153.09 63.2416 152.717C63.8267 152.344 64.2983 151.818 64.605 151.196C64.9656 150.482 65.1509 149.692 65.1454 148.892C65.1225 148.033 64.9426 147.185 64.6145 146.39C64.0173 144.75 62.9176 143.148 62.8986 141.233C62.8628 140.761 62.9224 140.287 63.0739 139.839C63.2254 139.391 63.4656 138.979 63.7803 138.626C64.5489 137.991 65.5366 137.684 66.5295 137.772C67.6344 137.853 68.7449 137.738 69.8096 137.431C70.3674 137.204 70.8388 136.806 71.1557 136.294C71.4609 135.784 71.6517 135.215 71.715 134.625C71.7697 133.493 71.6773 132.359 71.4401 131.25C71.2704 130.21 71.3319 129.145 71.6202 128.131C72.1576 126.196 73.4163 124.54 75.1373 123.505C76.771 122.673 78.5846 122.256 80.4177 122.292C82.0468 122.295 83.6661 122.039 85.2146 121.533C86.4736 121.071 87.6275 120.362 88.6084 119.448C89.3596 118.754 89.9991 117.948 90.5044 117.059C90.9491 116.321 91.2544 115.508 91.405 114.66C91.1228 115.461 90.7706 116.235 90.3527 116.973C89.1584 118.967 87.3187 120.492 85.1387 121.296C83.6032 121.766 82.0044 121.996 80.3987 121.979C78.5123 121.926 76.6423 122.343 74.9572 123.192C73.1474 124.253 71.8113 125.966 71.2221 127.98C70.9187 129.049 70.8508 130.171 71.023 131.269C71.2449 132.341 71.3372 133.436 71.2979 134.53C71.2755 135.05 71.1107 135.554 70.8215 135.987C70.5323 136.42 70.1298 136.766 69.6579 136.986C68.6449 137.273 67.5889 137.379 66.539 137.298C65.4394 137.202 64.3463 137.543 63.4959 138.246C63.1486 138.642 62.8855 139.104 62.7225 139.604C62.5596 140.104 62.5001 140.633 62.5479 141.157C62.5898 142.141 62.8249 143.107 63.2399 144.001C63.6096 144.854 64.0173 145.65 64.3301 146.447C64.6482 147.202 64.8281 148.008 64.861 148.826C64.874 149.574 64.7116 150.314 64.387 150.988C64.1119 151.569 63.6828 152.063 63.1463 152.418C62.6098 152.772 61.9864 152.972 61.3439 152.997C60.8169 153.016 60.295 152.888 59.8366 152.628C59.4442 152.399 59.1176 152.072 58.8886 151.68C58.5563 151.152 58.4188 150.525 58.4999 149.907C58.5473 149.566 58.6706 149.357 58.6421 149.347Z" fill="#263238"/>
<path d="M138.494 153.87C138.719 154.512 138.719 155.21 138.494 155.852C138.369 156.22 138.162 156.555 137.89 156.832C137.617 157.11 137.286 157.322 136.92 157.454C136.432 157.598 135.914 157.603 135.424 157.469C134.933 157.335 134.49 157.067 134.143 156.695C133.744 156.258 133.513 155.694 133.488 155.103C133.47 154.458 133.57 153.816 133.782 153.207C134.181 151.927 135.005 150.533 134.882 148.855C134.822 148.005 134.586 147.176 134.187 146.422C133.789 145.668 133.238 145.005 132.569 144.476C131.868 143.915 131.067 143.493 130.208 143.234C129.331 142.991 128.426 142.86 127.516 142.845C126.634 142.838 125.755 142.746 124.89 142.57C124.083 142.404 123.361 141.957 122.852 141.309C122.401 140.645 122.148 139.865 122.122 139.063C122.08 138.28 122.144 137.496 122.312 136.73C122.728 135.287 122.957 133.796 122.994 132.294C122.918 130.96 122.446 129.68 121.638 128.616C120.956 127.771 120.119 127.064 119.174 126.53C118.483 126.121 117.821 125.665 117.192 125.165C116.677 124.724 116.258 124.182 115.96 123.572C115.96 123.572 115.96 123.572 115.96 123.705C115.997 123.833 116.048 123.957 116.112 124.075C116.348 124.535 116.67 124.947 117.06 125.288C117.674 125.823 118.33 126.308 119.022 126.739C119.926 127.277 120.724 127.977 121.373 128.805C122.124 129.825 122.554 131.047 122.605 132.313C122.549 133.781 122.31 135.236 121.894 136.645C121.711 137.447 121.638 138.27 121.676 139.091C121.712 139.976 121.994 140.833 122.492 141.565C123.057 142.297 123.863 142.804 124.767 142.997C125.656 143.179 126.561 143.278 127.469 143.291C128.346 143.302 129.219 143.423 130.066 143.651C130.871 143.901 131.622 144.296 132.285 144.817C132.908 145.308 133.422 145.923 133.796 146.623C134.169 147.323 134.394 148.093 134.455 148.884C134.588 150.41 133.83 151.728 133.413 153.102C133.194 153.762 133.097 154.456 133.128 155.15C133.17 155.813 133.441 156.44 133.896 156.923C134.286 157.331 134.782 157.621 135.328 157.76C135.875 157.899 136.45 157.882 136.987 157.71C137.379 157.558 137.731 157.318 138.017 157.009C138.303 156.7 138.515 156.33 138.636 155.927C138.808 155.433 138.834 154.9 138.712 154.392C138.671 154.206 138.597 154.03 138.494 153.87Z" fill="#263238"/>
<path d="M129.429 228.125V217.64C130.605 211.753 130.046 204.776 127.306 199.401C125.318 195.936 123.121 192.596 120.727 189.4L110.299 175.853C104.554 180.033 95.5573 177.009 87.8406 174.203C87.8406 174.203 80.2566 178.422 76.6732 182.384C72.9475 186.556 85.6887 238.743 85.6887 238.743C79.9153 250.29 72.4641 260.547 71.3359 271.07L131.629 273.392L129.069 245.749L129.429 228.125Z" fill="#455A64"/>
<path d="M128.597 246.045C128.537 245.653 128.521 245.256 128.55 244.86C128.55 243.997 128.55 242.964 128.55 241.646C128.597 238.802 128.654 235.134 128.72 231.048C128.787 226.962 128.91 223.16 129.043 220.449C129.109 219.093 129.176 217.994 129.232 217.235C129.239 216.842 129.29 216.451 129.384 216.069C129.422 216.46 129.422 216.854 129.384 217.245C129.384 218.108 129.384 219.141 129.384 220.459C129.337 223.303 129.27 226.971 129.204 231.057C129.138 235.143 129.024 238.945 128.891 241.656C128.825 243.012 128.758 244.111 128.692 244.87C128.707 245.264 128.675 245.658 128.597 246.045Z" fill="#263238"/>
<path d="M156.137 255.582C156.137 255.582 162.015 255.904 165.617 258.18C169.219 260.455 175.097 264 177.514 268.389C178.624 270.409 175.467 270.835 173.903 269.669C172.338 268.503 169.959 266.285 168.774 266.019L167.589 265.745C168.671 268.193 169.876 270.585 171.201 272.911C172.424 274.807 173.485 277.955 169.807 278.097C169.807 278.097 167.333 281.32 164.83 278.931C164.83 278.931 162.877 281.861 159.73 277.803C159.73 277.803 157.891 280.126 157.132 279.235C156.374 278.343 153.862 276.94 153.132 274.04C152.037 270.663 150.771 267.344 149.34 264.095L156.137 255.582Z" fill="#FFBF9D"/>
<path d="M287.73 174.112C288.384 174.112 315.297 171.268 315.297 171.268C315.297 171.268 317.582 160.328 317.459 157.484C317.336 154.64 315.421 135.822 315.421 135.822L325.498 131.082C325.498 131.082 338.969 176.51 336.03 180.283C333.091 184.056 327.565 187.441 327.091 187.46C326.617 187.479 301.011 198.836 283.198 192.93C265.385 187.023 287.73 174.112 287.73 174.112Z" fill="#FFBF9D"/>
<path d="M264.143 198.635C268.105 202.57 274.931 205.84 286.326 202.996C308.85 197.365 325.734 192.568 332.446 188.966C339.158 185.363 336.541 169.266 337.11 168.536C338.807 166.337 336.939 161.616 334.522 160.877C327.63 158.791 315.638 159.616 315.031 160.241C311.495 163.958 314.718 168.47 314.718 168.47L285.018 172.366C281.366 172.195 277.707 172.427 274.106 173.058" fill="#455A64"/>
<path d="M274.108 173.059L274.819 172.907C275.293 172.822 275.994 172.699 276.923 172.585C279.611 172.247 282.322 172.132 285.029 172.244L314.72 168.262L314.578 168.594C313.602 167.159 313.123 165.444 313.213 163.712C313.294 162.816 313.586 161.951 314.066 161.19C314.307 160.808 314.58 160.446 314.881 160.109C315 160.021 315.131 159.951 315.27 159.901L315.611 159.815C315.839 159.759 316.057 159.74 316.275 159.692C319.953 159.268 323.664 159.192 327.357 159.465C329.296 159.583 331.223 159.849 333.121 160.261C333.595 160.365 334.069 160.507 334.562 160.631C335.067 160.792 335.53 161.064 335.917 161.427C336.671 162.143 337.246 163.027 337.595 164.006C337.971 164.986 338.105 166.043 337.984 167.087C337.897 167.63 337.693 168.147 337.387 168.603C337.301 168.698 337.311 168.954 337.301 169.201V169.959C337.368 171.997 337.463 174.073 337.406 176.159C337.421 179.12 336.937 182.062 335.974 184.862C335.48 186.264 334.631 187.515 333.509 188.492C332.929 188.946 332.291 189.322 331.613 189.611C330.988 189.943 330.324 190.199 329.717 190.502C327.12 191.611 324.513 192.521 321.944 193.346C319.375 194.171 316.853 194.967 314.36 195.697C304.444 198.541 295.4 200.845 287.873 202.731C286.074 203.207 284.252 203.583 282.412 203.86C280.764 204.089 279.099 204.178 277.435 204.125C274.763 204.068 272.126 203.495 269.671 202.438C268.131 201.758 266.695 200.864 265.405 199.783C264.951 199.416 264.526 199.013 264.135 198.579C264.135 198.579 264.571 198.996 265.471 199.707C266.778 200.749 268.219 201.61 269.756 202.267C272.197 203.274 274.805 203.811 277.445 203.85C279.09 203.89 280.736 203.788 282.365 203.547C284.192 203.258 286.002 202.872 287.787 202.39C295.371 200.494 304.339 198.162 314.227 195.261C316.701 194.531 319.223 193.754 321.811 192.901C324.399 192.047 326.968 191.147 329.537 190.057C330.163 189.763 330.817 189.507 331.433 189.175C332.066 188.896 332.662 188.54 333.206 188.113C334.264 187.194 335.065 186.014 335.529 184.691C336.463 181.928 336.927 179.028 336.903 176.112C336.96 174.035 336.903 171.978 336.799 169.931V169.153C336.799 169.021 336.799 168.888 336.799 168.746C336.791 168.67 336.791 168.594 336.799 168.518C336.82 168.46 336.846 168.403 336.875 168.347L336.922 168.272C337.189 167.883 337.364 167.439 337.434 166.973C337.545 166.009 337.418 165.032 337.064 164.129C336.746 163.224 336.22 162.405 335.529 161.74C335.193 161.425 334.791 161.189 334.353 161.048C333.879 160.925 333.405 160.792 332.941 160.678C331.067 160.272 329.166 160.009 327.253 159.891C323.598 159.612 319.925 159.682 316.284 160.1C316.066 160.1 315.848 160.157 315.64 160.214L315.336 160.28C315.27 160.306 315.207 160.338 315.147 160.375C314.861 160.686 314.604 161.022 314.379 161.38C313.927 162.077 313.654 162.875 313.582 163.702C313.5 165.332 313.946 166.944 314.853 168.3L315.042 168.594H314.711L285 172.386C282.309 172.249 279.612 172.325 276.933 172.613C275.985 172.708 275.293 172.813 274.819 172.879C274.345 172.945 274.108 173.059 274.108 173.059Z" fill="#263238"/>
<path d="M193.69 203.932L181.592 182.197L410.411 54.8373C413.048 53.37 416.159 53.01 419.061 53.8365C421.962 54.6631 424.417 56.6085 425.884 59.2448L426.921 61.1085C428.389 63.7448 428.749 66.856 427.922 69.7576C427.096 72.6593 425.15 75.1138 422.514 76.5811L193.694 203.94L193.69 203.932Z" fill="#3FBCFC"/>
<path d="M385.565 88.9814L357.548 38.6434C357.412 38.3998 357.326 38.1318 357.294 37.8548C357.262 37.5778 357.284 37.2971 357.361 37.0289C357.437 36.7607 357.566 36.5102 357.739 36.2917C357.912 36.0731 358.127 35.8909 358.37 35.7552L371.226 28.5998C371.47 28.4642 371.738 28.3779 372.015 28.3458C372.292 28.3138 372.572 28.3366 372.841 28.413C373.109 28.4894 373.359 28.6179 373.578 28.7911C373.796 28.9643 373.979 29.1789 374.114 29.4225L402.132 79.7605L385.565 88.9814Z" fill="#3FBCFC"/>
<path d="M330.447 65.5413L350.867 102.228C351.692 103.711 353.562 104.243 355.044 103.418L366.243 97.185C367.725 96.36 368.258 94.4896 367.433 93.0074L347.014 56.3204C346.189 54.8381 344.318 54.3053 342.836 55.1303L331.637 61.3637C330.155 62.1887 329.622 64.0591 330.447 65.5413Z" fill="#3FBCFC"/>
<path d="M348.477 63.3993L361.119 86.1123L386.847 71.7922L374.205 49.0792L348.477 63.3993Z" fill="#3FBCFC"/>
<path d="M407.062 56.7485C407.129 56.8623 362.222 81.9843 306.783 112.851C251.344 143.718 206.295 168.65 206.295 168.527C206.295 168.404 251.126 143.291 306.584 112.415C362.042 81.5387 406.996 56.6253 407.062 56.7485Z" fill="#263238"/>
<path d="M101.02 245.921C117.894 276.257 153.473 288.581 180.491 273.556C207.509 258.53 215.756 221.747 198.882 191.449C182.008 161.151 146.439 148.789 119.411 163.815C92.3837 178.841 84.1551 215.623 101.02 245.921ZM184.245 199.602C196.066 220.837 190.293 246.594 171.352 257.127C152.411 267.659 127.488 259.023 115.667 237.769C103.845 216.514 109.618 190.776 128.55 180.234C147.481 169.693 172.423 178.367 184.245 199.602Z" fill="#3FBCFC"/>
<path d="M220.109 160.494L232.595 182.925C234.255 185.908 238.019 186.98 241.001 185.32L242.012 184.758C244.995 183.097 246.067 179.334 244.407 176.351L231.922 153.92C230.261 150.937 226.498 149.865 223.515 151.525L222.504 152.087C219.521 153.747 218.449 157.511 220.109 160.494Z" fill="#3FBCFC"/>
<path d="M244.088 147.149L256.573 169.581C258.233 172.563 261.997 173.636 264.98 171.975L265.99 171.413C268.973 169.753 270.045 165.989 268.385 163.006L255.9 140.575C254.24 137.592 250.476 136.52 247.493 138.18L246.483 138.743C243.5 140.403 242.428 144.167 244.088 147.149Z" fill="#3FBCFC"/>
<path d="M231.653 153.576C231.777 153.509 234.668 158.6 238.128 164.952C241.589 171.303 244.29 176.48 244.167 176.546C244.044 176.612 241.152 171.531 237.692 165.17C234.232 158.809 231.53 153.576 231.653 153.576Z" fill="#263238"/>
<path d="M220.648 161.397C220.771 161.331 223.596 166.194 226.971 172.242C230.346 178.291 232.972 183.268 232.858 183.334C232.744 183.4 229.91 178.537 226.573 172.536C223.236 166.535 220.534 161.464 220.648 161.397Z" fill="#263238"/>
<path d="M255.781 140.371C255.904 140.304 258.852 145.367 262.369 151.68C265.886 157.994 268.636 163.18 268.512 163.246C268.389 163.312 265.45 158.241 261.933 151.927C258.416 145.613 255.667 140.437 255.781 140.371Z" fill="#263238"/>
<path d="M244.205 147.356C244.319 147.29 247.21 152.324 250.642 158.599C254.074 164.875 256.776 169.975 256.652 170.08C256.529 170.184 253.657 165.112 250.216 158.836C246.774 152.561 244.082 147.422 244.205 147.356Z" fill="#263238"/>
<path d="M312.966 113.164C314.069 113.294 315.182 113.009 316.087 112.363C316.992 111.718 317.624 110.759 317.861 109.673C318.097 108.587 317.921 107.452 317.367 106.489C316.812 105.525 315.919 104.803 314.862 104.462C315.545 103.762 315.991 102.864 316.137 101.896C316.282 100.929 316.12 99.9395 315.672 99.0693C315.224 98.1991 314.514 97.4917 313.642 97.0473C312.77 96.603 311.781 96.4442 310.814 96.5934C310.774 95.6308 310.486 94.6949 309.977 93.8767C309.468 93.0585 308.757 92.3858 307.911 91.9239C307.066 91.4621 306.115 91.2268 305.152 91.241C304.189 91.2552 303.246 91.5185 302.414 92.005C301.33 91.1187 299.981 90.6203 298.581 90.5894C297.18 90.5585 295.81 90.9967 294.688 91.8344C293.745 91.6544 292.769 91.7831 291.905 92.2013C291.041 92.6196 290.335 93.3052 289.891 94.1564C289.448 95.0077 289.29 95.9792 289.442 96.9271C289.594 97.8749 290.047 98.7485 290.735 99.4184" fill="#263238"/>
<path d="M293.727 96.252H294.675C299.455 96.256 304.058 98.0599 307.568 101.305C311.078 104.549 313.238 108.997 313.616 113.762C314.327 122.948 314.991 133.101 314.915 138.03C314.735 148.269 304.554 149.786 304.554 149.786L305.378 162.053L280.607 161.247L278.55 116.786C277.678 106.178 283.11 96.8397 293.727 96.252Z" fill="#FFBF9D"/>
<path d="M304.64 149.784C299.901 149.771 295.265 148.399 291.282 145.831C291.282 145.831 294.562 153.557 304.744 152.666L304.64 149.784Z" fill="#FF9A6C"/>
<path d="M308.016 123.383C308.018 123.763 307.872 124.129 307.608 124.402C307.344 124.675 306.983 124.833 306.603 124.843C306.418 124.856 306.232 124.832 306.057 124.773C305.881 124.713 305.719 124.619 305.579 124.497C305.44 124.374 305.326 124.225 305.245 124.059C305.164 123.892 305.116 123.711 305.105 123.525C305.105 123.145 305.252 122.78 305.516 122.506C305.779 122.232 306.138 122.071 306.518 122.056C306.704 122.043 306.89 122.068 307.067 122.128C307.243 122.188 307.406 122.282 307.545 122.406C307.685 122.529 307.798 122.679 307.879 122.847C307.96 123.015 308.006 123.197 308.016 123.383Z" fill="#263238"/>
<path d="M311.408 118.775C311.228 118.965 310.119 118.15 308.564 118.15C307.009 118.15 305.843 118.927 305.673 118.737C305.502 118.548 305.777 118.311 306.279 117.941C306.959 117.474 307.768 117.229 308.593 117.24C309.408 117.236 310.202 117.495 310.858 117.979C311.332 118.349 311.493 118.7 311.408 118.775Z" fill="#263238"/>
<path d="M293.881 122.698C293.888 123.084 293.743 123.457 293.477 123.736C293.21 124.015 292.844 124.177 292.459 124.187C292.274 124.2 292.088 124.176 291.912 124.116C291.736 124.057 291.574 123.963 291.435 123.841C291.296 123.718 291.182 123.569 291.101 123.402C291.019 123.236 290.972 123.054 290.961 122.869C290.958 122.488 291.104 122.122 291.368 121.847C291.632 121.573 291.993 121.412 292.373 121.4C292.558 121.385 292.743 121.408 292.919 121.465C293.095 121.523 293.257 121.615 293.397 121.736C293.537 121.856 293.652 122.004 293.735 122.169C293.818 122.334 293.868 122.514 293.881 122.698Z" fill="#263238"/>
<path d="M295.994 119.021C295.814 119.211 294.705 118.396 293.15 118.396C291.595 118.396 290.429 119.173 290.259 118.984C290.088 118.794 290.363 118.557 290.865 118.187C291.545 117.72 292.354 117.475 293.179 117.486C293.994 117.482 294.788 117.742 295.444 118.225C295.918 118.595 296.079 118.936 295.994 119.021Z" fill="#263238"/>
<path d="M301.646 130.674C302.473 130.414 303.33 130.262 304.196 130.219C304.594 130.219 304.973 130.106 305.049 129.831C305.082 129.418 304.99 129.005 304.784 128.646L303.608 125.593C301.977 121.242 300.764 117.668 300.973 117.611C301.181 117.554 302.613 121.014 304.243 125.356C304.632 126.427 305.011 127.451 305.371 128.428C305.617 128.914 305.687 129.47 305.57 130.001C305.511 130.142 305.42 130.267 305.305 130.367C305.19 130.467 305.054 130.54 304.907 130.58C304.688 130.645 304.462 130.676 304.234 130.674C303.374 130.782 302.505 130.782 301.646 130.674Z" fill="#263238"/>
<path d="M297.369 112.992C297.161 113.391 295.824 112.992 294.165 112.898C292.506 112.803 291.122 113.116 290.97 112.699C290.904 112.499 291.198 112.149 291.795 111.826C292.565 111.446 293.421 111.27 294.279 111.314C295.129 111.345 295.957 111.6 296.677 112.054C297.217 112.424 297.464 112.812 297.369 112.992Z" fill="#263238"/>
<path d="M311.505 112.318C311.173 112.669 309.874 112.318 308.32 112.318C306.765 112.318 305.476 112.555 305.144 112.176C305.011 111.996 305.22 111.636 305.798 111.304C306.595 110.886 307.488 110.687 308.386 110.725C309.28 110.737 310.154 110.99 310.917 111.455C311.467 111.778 311.647 112.138 311.505 112.318Z" fill="#263238"/>
<path d="M312.65 109.114C312.65 109.114 309.977 102.715 306.896 101.218C303.17 99.3974 301.559 103.483 298.004 102.478C294.449 101.473 290.894 99.7386 287.253 102.478C283.272 105.474 285.13 107.588 284.864 112.12C283.821 130.473 280.447 135.649 279.527 127.003C279.423 126.055 276.797 125.297 276.418 121.315C275.925 116.13 275.744 109.825 276.92 106.147C277.868 103.047 279.679 100.905 282.854 98.5631C287.879 94.847 294.761 94.7711 299.435 95.2736C304.109 95.776 313.096 101.113 312.65 109.114Z" fill="#263238"/>
<path d="M280.172 126.72C280.161 126.346 280.075 125.977 279.918 125.637C279.761 125.297 279.536 124.992 279.258 124.741C278.98 124.49 278.653 124.299 278.299 124.178C277.944 124.057 277.569 124.009 277.195 124.037C275.299 124.217 273.166 125.289 273.28 129.223C273.479 136.2 280.447 134.56 280.456 134.351C280.466 134.143 280.285 129.64 280.172 126.72Z" fill="#FFBF9D"/>
<path d="M278.855 131.771C278.855 131.771 278.741 131.866 278.533 131.961C278.25 132.091 277.928 132.108 277.632 132.008C277.172 131.736 276.793 131.345 276.534 130.877C276.276 130.408 276.148 129.879 276.163 129.344C276.126 128.749 276.224 128.153 276.447 127.6C276.508 127.381 276.62 127.181 276.775 127.016C276.931 126.85 277.124 126.726 277.338 126.652C277.477 126.61 277.627 126.618 277.761 126.675C277.894 126.732 278.003 126.835 278.068 126.965C278.163 127.154 278.125 127.297 278.163 127.306C278.201 127.316 278.305 127.183 278.239 126.899C278.201 126.726 278.1 126.573 277.955 126.472C277.859 126.402 277.75 126.351 277.634 126.323C277.519 126.296 277.399 126.291 277.282 126.311C276.996 126.375 276.732 126.512 276.514 126.708C276.297 126.904 276.133 127.152 276.04 127.429C275.758 128.04 275.631 128.711 275.67 129.382C275.755 130.785 276.514 132.084 277.566 132.35C277.754 132.399 277.95 132.405 278.141 132.367C278.331 132.33 278.511 132.249 278.666 132.131C278.855 131.942 278.884 131.771 278.855 131.771Z" fill="#FF9A6C"/>
<path d="M280.352 113.2C281.206 113.896 282.219 114.368 283.3 114.574C283.844 114.66 284.399 114.545 284.864 114.252C285.33 113.96 285.673 113.508 285.832 112.982C285.917 112.498 285.832 111.93 286.116 111.56C286.4 111.19 287.206 111.256 287.784 111.323C289.813 111.541 292.193 109.304 292.714 107.332C292.977 107.71 293.375 107.973 293.826 108.068C294.277 108.164 294.747 108.083 295.141 107.844C295.786 107.45 296.357 106.946 296.828 106.355C297.103 105.979 297.465 105.675 297.882 105.469C298.3 105.262 298.761 105.16 299.227 105.17C299.718 105.34 300.227 105.451 300.744 105.502C301.692 105.426 302.109 104.355 302.251 103.445C302.393 102.535 302.507 101.483 303.284 100.99C304.082 100.677 304.964 100.654 305.778 100.923C306.621 101.056 307.674 100.857 307.929 100.032C307.964 99.8117 307.955 99.5866 307.901 99.37C307.847 99.1534 307.75 98.9498 307.617 98.7713C307.053 97.9257 306.22 97.2953 305.253 96.9821C304.286 96.669 303.241 96.6915 302.289 97.0459C301.953 95.8792 301.278 94.8388 300.349 94.0571C299.42 93.2755 298.28 92.7881 297.073 92.6569C295.866 92.5257 294.648 92.7568 293.572 93.3206C292.497 93.8845 291.614 94.7556 291.036 95.823C290.298 95.1468 289.407 94.6592 288.439 94.4017C287.472 94.1442 286.456 94.1245 285.48 94.3442C284.503 94.564 283.594 95.0167 282.83 95.6637C282.065 96.3108 281.469 97.133 281.092 98.0603C280.238 97.8326 279.337 97.861 278.499 98.1418C277.662 98.4227 276.925 98.9436 276.382 99.6398C275.838 100.336 275.511 101.177 275.442 102.057C275.373 102.938 275.564 103.819 275.991 104.592C275.342 104.913 274.784 105.393 274.371 105.989C273.959 106.584 273.704 107.274 273.631 107.995C273.631 109.436 275.005 110.839 276.399 110.498C276.11 111.066 276.049 111.723 276.229 112.334C276.41 112.945 276.817 113.464 277.368 113.784C277.918 114.105 278.571 114.202 279.191 114.056C279.811 113.91 280.352 113.533 280.703 113.001" fill="#263238"/>
<path d="M302.801 99.0967C302.801 99.0967 302.801 99.0967 302.801 99.2294C302.801 99.3621 302.801 99.438 302.754 99.5991C302.656 100.072 302.483 100.527 302.242 100.945C301.857 101.601 301.329 102.162 300.697 102.585C299.861 103.155 298.863 103.438 297.853 103.391L297.967 103.239C298.172 103.865 298.12 104.547 297.824 105.135C297.511 105.759 297.109 106.334 296.63 106.842C296.397 107.138 296.134 107.408 295.843 107.648C295.327 107.987 294.708 108.132 294.095 108.058C293.482 107.983 292.916 107.693 292.497 107.24L292.753 107.164C292.655 107.889 292.406 108.584 292.022 109.207C291.638 109.829 291.128 110.363 290.525 110.776C289.862 111.269 289.057 111.532 288.231 111.525C287.456 111.483 286.694 111.313 285.974 111.023L286.164 110.937C285.799 111.781 285.228 112.521 284.505 113.089C284.175 113.372 283.785 113.578 283.366 113.691C282.946 113.804 282.506 113.822 282.078 113.743C281.345 113.584 280.674 113.213 280.149 112.678C279.623 112.142 279.266 111.465 279.12 110.729L279.282 110.804C278.544 111.187 277.698 111.307 276.883 111.146C276.276 111.03 275.705 110.773 275.215 110.397C274.91 110.158 274.647 109.869 274.437 109.544C274.361 109.431 274.303 109.306 274.267 109.174C274.532 109.61 274.876 109.992 275.281 110.302C275.764 110.651 276.323 110.882 276.912 110.975C277.686 111.122 278.487 110.994 279.177 110.615L279.31 110.539V110.691C279.454 111.376 279.794 112.004 280.289 112.499C280.783 112.994 281.412 113.334 282.097 113.478C282.488 113.546 282.889 113.526 283.271 113.42C283.653 113.313 284.007 113.122 284.306 112.862C284.985 112.322 285.519 111.621 285.861 110.823L285.918 110.7H286.05C286.736 110.976 287.464 111.136 288.202 111.174C288.966 111.18 289.712 110.937 290.326 110.482C290.894 110.092 291.374 109.588 291.737 109.002C292.099 108.416 292.335 107.761 292.43 107.079V106.747L292.648 107.003C292.895 107.275 293.204 107.483 293.55 107.609C293.895 107.734 294.266 107.774 294.63 107.723C294.969 107.678 295.294 107.555 295.578 107.363C295.852 107.143 296.1 106.891 296.317 106.614C296.786 106.131 297.182 105.581 297.493 104.984C297.632 104.718 297.718 104.426 297.744 104.127C297.77 103.827 297.736 103.526 297.644 103.239L297.587 103.069H297.768C298.736 103.129 299.697 102.873 300.507 102.339C301.129 101.938 301.654 101.404 302.043 100.775C302.393 100.265 302.65 99.6964 302.801 99.0967Z" fill="#455A64"/>
<path d="M301.626 135.877C301.569 135.621 299.872 136.038 298.299 134.881C296.725 133.725 296.469 131.867 296.232 131.914C295.995 131.961 295.995 132.407 296.166 133.175C296.399 134.177 296.98 135.063 297.806 135.678C298.594 136.265 299.58 136.523 300.555 136.398C301.285 136.284 301.664 135.99 301.626 135.877Z" fill="#263238"/>
<path d="M354.203 401.12L360.934 424.052C360.934 424.052 386.53 424.905 388.17 429.029L344.126 443.666L332.162 408.353L354.203 401.12Z" fill="#455A64"/>
<path d="M346.695 426.678C346.315 426.948 346.048 427.349 345.944 427.803C345.841 428.258 345.909 428.735 346.135 429.143C346.39 429.532 346.785 429.81 347.238 429.917C347.692 430.025 348.169 429.955 348.572 429.721C348.975 429.434 349.257 429.007 349.364 428.524C349.471 428.041 349.394 427.535 349.15 427.104C348.841 426.724 348.397 426.479 347.911 426.419C347.425 426.359 346.935 426.489 346.543 426.782" fill="#E0E0E0"/>
<path d="M385.685 427.368C385.685 427.368 387.931 427.567 388.168 429.027L344.124 443.664L343.062 440.052L385.647 427.349" fill="#263238"/>
<path d="M361.567 423.587C361.633 423.805 360.619 424.26 359.766 425.302C358.913 426.345 358.676 427.435 358.448 427.416C358.221 427.397 358.135 426.051 359.159 424.809C360.183 423.568 361.548 423.378 361.567 423.587Z" fill="white"/>
<path d="M366.82 423.956C366.943 424.155 366.137 424.828 365.701 425.976C365.265 427.123 365.388 428.165 365.17 428.222C364.952 428.279 364.412 427.113 364.971 425.691C365.531 424.269 366.754 423.757 366.82 423.956Z" fill="white"/>
<path d="M371.284 428.61C371.104 428.724 370.45 427.747 370.611 426.392C370.772 425.036 371.616 424.221 371.768 424.373C371.919 424.524 371.502 425.321 371.389 426.477C371.275 427.634 371.493 428.496 371.284 428.61Z" fill="white"/>
<path d="M359.452 418.533C359.452 418.76 358.343 418.789 357.158 419.272C355.973 419.756 355.148 420.457 354.978 420.315C354.807 420.173 355.461 419.102 356.874 418.542C358.286 417.983 359.509 418.324 359.452 418.533Z" fill="white"/>
<path d="M251.497 401.317L241.912 423.216C241.912 423.216 260.958 440.28 259.583 444.527L216.449 427.463L229.977 392.729L251.497 401.317Z" fill="#455A64"/>
<path d="M229.312 416.076C228.848 416.04 228.387 416.175 228.016 416.456C227.645 416.738 227.391 417.146 227.302 417.602C227.249 418.065 227.374 418.531 227.653 418.904C227.931 419.278 228.341 419.531 228.8 419.612C229.292 419.649 229.781 419.503 230.173 419.202C230.564 418.901 230.831 418.467 230.923 417.982C230.923 417.034 230.061 415.953 229.132 416.086" fill="#E0E0E0"/>
<path d="M258.739 441.664C258.739 441.664 260.332 443.266 259.583 444.508L216.449 427.444L217.957 424.003L258.721 441.636" fill="#263238"/>
<path d="M242.69 423.273C242.604 423.482 241.514 423.159 240.206 423.425C238.898 423.69 237.997 424.373 237.836 424.202C237.675 424.031 238.471 422.951 240.054 422.657C241.637 422.363 242.822 423.093 242.69 423.273Z" fill="white"/>
<path d="M246.479 426.932C246.479 427.15 245.399 427.15 244.327 427.756C243.256 428.363 242.687 429.226 242.431 429.14C242.175 429.055 242.564 427.804 243.901 427.074C245.238 426.344 246.555 426.732 246.479 426.932Z" fill="white"/>
<path d="M246.918 433.359C246.71 433.359 246.833 432.164 247.866 431.226C248.9 430.287 250.028 430.211 250.047 430.42C250.066 430.628 249.212 431.008 248.407 431.794C247.601 432.581 247.136 433.425 246.918 433.359Z" fill="white"/>
<path d="M244.329 418.066C244.168 418.218 243.315 417.554 242.092 417.118C240.869 416.682 239.798 416.739 239.76 416.521C239.722 416.303 240.907 415.895 242.338 416.369C243.77 416.843 244.5 417.914 244.329 418.066Z" fill="white"/>
<path d="M267.64 281.016L252.529 342.313C252.529 342.313 225.274 388.197 220.657 411.157L245.59 420.959C245.59 420.959 263.725 376.735 269.043 368.62C271.436 364.984 274.186 361.595 277.253 358.505C279.247 356.527 280.677 354.053 281.396 351.338L292.838 307.607L267.64 281.016Z" fill="#263238"/>
<path d="M261.202 271.215C261.202 271.215 263.307 287.634 279.11 294.915L312.404 349.141C312.404 349.141 315.011 366.773 319.988 381.628C324.965 396.484 335.023 425.113 335.023 425.113L362.411 414.875L344.958 355.208L342.114 334.513L314.944 265.309L291.605 251.316L261.202 271.215Z" fill="#263238"/>
<path d="M261.202 271.215L261.705 270.873L263.212 269.868L269.127 265.963L291.557 251.221L291.633 251.174L291.709 251.221L315.068 265.185V265.242L342.294 334.38V334.427C343.195 340.968 344.19 347.974 345.138 355.122C349.878 371.238 354.902 388.482 360.098 406.248C360.938 409.111 361.772 411.955 362.6 414.78L362.667 414.998L362.449 415.074L335.061 425.312L334.824 425.397L334.748 425.16C330.008 411.405 325.42 398.161 321.087 385.6C319.997 382.462 318.926 379.353 318.035 376.243C317.144 373.134 316.338 370.044 315.608 366.991C314.167 360.886 313.01 354.923 312.1 349.14V349.216L278.996 294.971L279.053 295.019C275.049 293.147 271.493 290.438 268.625 287.075C266.523 284.606 264.798 281.839 263.506 278.865C262.706 277.029 262.072 275.125 261.61 273.177C261.449 272.532 261.354 272.03 261.297 271.689C261.24 271.347 261.231 271.177 261.231 271.177C261.231 271.177 261.231 271.347 261.335 271.679C261.439 272.011 261.496 272.513 261.676 273.167C262.165 275.091 262.819 276.968 263.629 278.78C264.937 281.723 266.668 284.46 268.767 286.904C271.646 290.232 275.201 292.908 279.195 294.753L312.555 348.941V348.988C313.503 354.752 314.641 360.706 316.082 366.801C316.812 369.844 317.608 372.925 318.509 376.025C319.409 379.125 320.471 382.216 321.561 385.354C325.913 397.915 330.491 411.158 335.25 424.904L334.938 424.762L362.325 414.524L362.174 414.818C361.352 411.993 360.518 409.149 359.671 406.286L344.73 355.15C343.782 348.003 342.778 340.997 341.886 334.456V334.512L314.764 265.308L314.84 265.394L291.519 251.373H291.661L269.232 266.048L263.259 269.897L261.724 270.892L261.202 271.215Z" fill="#455A64"/>
<path d="M275.869 154.068C275.869 154.068 267.887 160.211 264.009 167.075C259.364 175.294 258.862 187.476 258.72 206.398C258.577 223.898 261.194 228.761 260.189 235.359C258.208 248.242 256.738 291.481 256.738 291.481C256.738 291.481 282.334 281.65 287.302 277.261L292.298 272.919L324.331 283.508L317.865 244.147L313.429 195.088L307.741 169.065L306.793 158.855L279.282 147.802L275.869 154.068Z" fill="#455A64"/>
<path d="M305.759 158.314C306.091 158.381 304.972 160.627 303 163.926L302.915 164.059L302.763 164.002C299.986 162.922 296.308 161.566 292.288 160.097C287.757 158.447 283.661 156.911 280.732 155.717C279.263 155.119 278.087 154.617 277.281 154.247C276.853 154.082 276.441 153.879 276.049 153.641C276.499 153.741 276.937 153.887 277.357 154.077L280.855 155.394L292.459 159.632C296.478 161.101 300.147 162.476 302.887 163.652L302.659 163.727C304.726 160.495 305.949 158.362 305.759 158.314Z" fill="#263238"/>
<path d="M338.865 137.875C338.865 137.875 336.836 134.718 334.921 131.808C333.006 128.897 330.105 127.466 329.641 125.949C329.176 124.432 326.626 117.673 326.218 115.995C325.864 114.37 325.699 112.709 325.725 111.046C325.725 111.046 327.821 110.155 328.825 113.151C329.432 114.952 331.366 121.067 331.783 121.37C332.2 121.674 332.731 121.228 332.731 121.228C331.87 118.939 331.127 116.607 330.503 114.241C330.409 113.132 330.797 105.776 330.797 105.776C331.317 105.671 331.857 105.756 332.32 106.015C332.782 106.274 333.137 106.69 333.319 107.188C334.314 109.084 334.352 113.824 334.352 113.824L335.86 119.114L335.329 113.881L336.087 104.259C336.824 104.364 337.51 104.693 338.053 105.202C338.596 105.711 338.968 106.375 339.121 107.103C339.756 109.7 338.912 113.322 339.339 114.09C339.765 114.857 340.23 119.503 340.23 119.503C340.23 119.503 340.751 108.221 341.955 107.899C343.159 107.577 344.145 108.771 343.974 111.046C343.804 113.322 343.756 118.138 344.382 120.261C345.008 122.385 351.426 130.689 350.904 134.329C350.585 136.529 350.385 138.744 350.307 140.965H339.31L338.865 137.875Z" fill="#FFBF9D"/>
<path d="M300.288 166.288C300.904 166.525 327.174 173.028 327.174 173.028C327.174 173.028 333.042 163.548 333.904 160.799C334.767 158.05 339.384 139.734 339.384 139.734L350.485 138.691C350.485 138.691 347.641 185.987 343.621 188.537C339.602 191.087 333.193 192.377 332.776 192.234C332.359 192.092 304.384 194.036 289.642 182.423C274.901 170.81 300.288 166.288 300.288 166.288Z" fill="#FFBF9D"/>
<g opacity="0.3">
<path d="M281.464 191.325C284.284 194.516 288.045 196.728 292.205 197.639C299.173 199.175 314.009 201.895 314.009 201.895L313.289 194.615L281.057 191.164" fill="black"/>
</g>
<path d="M269.765 181.313C272.154 186.357 277.462 191.741 289.132 192.964C312.235 195.353 329.726 196.624 337.281 195.486C344.837 194.348 347.842 178.356 348.657 177.863C351.008 176.384 350.857 171.303 348.828 169.786C343.064 165.472 331.508 162.202 330.731 162.553C326.133 164.837 327.631 170.184 327.631 170.184L298.337 163.719C294.963 162.315 291.443 161.291 287.843 160.666" fill="#455A64"/>
<path d="M287.841 160.666C287.841 160.666 288.088 160.666 288.562 160.761C289.036 160.856 289.747 160.97 290.657 161.169C293.299 161.768 295.886 162.586 298.392 163.615L327.667 169.985L327.42 170.251C326.987 168.57 327.12 166.794 327.799 165.198C328.174 164.38 328.74 163.665 329.449 163.112C329.808 162.832 330.192 162.584 330.596 162.373C330.734 162.331 330.878 162.309 331.022 162.306H331.373C331.61 162.306 331.819 162.382 332.046 162.42C335.649 163.272 339.162 164.462 342.541 165.975C344.321 166.751 346.042 167.657 347.688 168.686C348.096 168.952 348.504 169.246 348.911 169.53C349.333 169.85 349.676 170.262 349.916 170.734C350.378 171.665 350.619 172.69 350.618 173.73C350.642 174.782 350.407 175.823 349.935 176.763C349.673 177.248 349.303 177.667 348.854 177.986C348.741 178.043 348.665 178.29 348.57 178.517L348.323 179.228C347.698 181.124 347.072 183.153 346.314 185.106C345.32 187.906 343.866 190.521 342.01 192.841C341.337 193.723 340.479 194.447 339.496 194.961C338.514 195.476 337.43 195.768 336.322 195.818C335.611 195.922 334.9 195.941 334.198 195.998C331.354 196.169 328.624 196.131 325.922 196.055C323.22 195.979 320.576 195.837 318.006 195.676C307.702 195.012 298.459 194.074 290.704 193.268C288.852 193.106 287.009 192.84 285.187 192.472C283.569 192.126 281.983 191.644 280.447 191.031C277.957 190.064 275.675 188.628 273.725 186.803C272.508 185.638 271.461 184.307 270.616 182.849C270.313 182.349 270.05 181.826 269.829 181.285C269.829 181.285 270.095 181.826 270.701 182.802C271.577 184.223 272.639 185.52 273.858 186.66C275.806 188.446 278.078 189.843 280.551 190.775C282.09 191.369 283.675 191.835 285.291 192.168C287.109 192.517 288.944 192.767 290.789 192.917C298.544 193.685 307.787 194.586 318.073 195.23C320.651 195.382 323.287 195.515 325.979 195.581C328.671 195.647 331.43 195.685 334.217 195.524C334.909 195.458 335.62 195.439 336.312 195.335C337.003 195.298 337.686 195.167 338.341 194.946C339.651 194.441 340.807 193.605 341.697 192.519C343.513 190.243 344.936 187.68 345.906 184.935C346.665 183.039 347.281 181.039 347.906 179.086L348.172 178.346C348.172 178.233 348.267 178.109 348.323 177.977C348.358 177.904 348.399 177.834 348.447 177.768C348.483 177.723 348.524 177.681 348.57 177.645L348.636 177.588C349.03 177.316 349.354 176.955 349.584 176.536C350.027 175.655 350.243 174.677 350.21 173.692C350.213 172.733 349.995 171.786 349.575 170.924C349.368 170.517 349.073 170.16 348.712 169.881C348.305 169.606 347.916 169.312 347.508 169.056C345.885 168.034 344.186 167.137 342.427 166.373C339.086 164.867 335.61 163.68 332.046 162.828C331.828 162.828 331.61 162.733 331.402 162.714H331.089H330.88C330.507 162.913 330.152 163.145 329.819 163.406C329.158 163.904 328.628 164.555 328.273 165.302C327.645 166.802 327.516 168.463 327.904 170.042L327.989 170.374L327.657 170.298L298.43 163.757C295.947 162.712 293.386 161.863 290.77 161.216C289.822 160.998 289.168 160.846 288.694 160.752C288.22 160.657 287.841 160.666 287.841 160.666Z" fill="#263238"/>
<path d="M337.279 179.333C336.606 179.166 335.965 178.887 335.383 178.509C333.93 177.698 332.591 176.697 331.402 175.532C330.207 174.371 329.162 173.066 328.292 171.645C327.897 171.063 327.593 170.423 327.392 169.749C328.691 171.664 330.146 173.468 331.743 175.143C333.459 176.702 335.312 178.105 337.279 179.333Z" fill="#263238"/>
<path d="M131.033 257.41C131.033 257.41 136.911 257.723 140.513 260.008C144.116 262.292 149.993 265.819 152.411 270.218C153.52 272.237 150.363 272.663 148.808 271.488C147.254 270.312 144.855 268.113 143.67 267.838L142.485 267.573C143.566 270.019 144.771 272.408 146.097 274.73C147.32 276.626 148.382 279.773 144.713 279.925C144.713 279.925 142.229 283.148 139.727 280.759C139.727 280.759 137.774 283.679 134.626 279.631C134.626 279.631 132.797 281.944 132.029 281.063C131.261 280.181 128.758 278.769 128.028 275.868C126.939 272.489 125.673 269.169 124.236 265.923L131.033 257.41Z" fill="#FFBF9D"/>
<path d="M81.0182 180.119C78.0054 181.089 75.4051 183.042 73.6333 185.665C71.3771 189.135 70.685 195.145 71.3297 199.62C72.6948 209.052 77.0177 224.969 79.454 235.188C80.2883 238.715 82.0042 245.029 87.038 248.375L122.958 269.914L132.561 255.694L99.8171 229.008L93.3422 192.434L81.0182 180.119Z" fill="#455A64"/>
<path d="M74.8066 216.068C74.8559 216.187 74.894 216.311 74.9204 216.438L75.2238 217.547C75.4797 218.552 75.84 219.993 76.314 221.841C77.262 225.633 78.6081 231.018 80.2861 237.72C81.2603 241.371 83.3237 244.638 86.2016 247.086C87.8455 248.402 89.6031 249.57 91.4535 250.575L97.2268 254.064L123.098 269.687L122.766 269.763L126.226 264.634L132.369 255.505L132.417 255.836L99.9666 229.112H99.9097V229.046C97.7672 220.03 96.2125 212.646 95.2266 207.507C94.7431 204.938 94.4018 202.938 94.1838 201.573C94.089 200.909 94.0131 200.388 93.9562 200.018C93.8994 199.648 93.8899 199.487 93.8899 199.487C93.9414 199.658 93.9825 199.833 94.0131 200.009C94.0795 200.378 94.1743 200.89 94.288 201.554C94.544 202.91 94.9137 204.91 95.4446 207.469C96.4779 212.589 98.0895 219.955 100.279 228.961L100.213 228.856L132.72 255.457L132.891 255.599L132.767 255.78L126.624 264.909L123.164 270.037L123.041 270.227L122.832 270.113L96.9993 254.443L91.2355 250.945C89.3728 249.929 87.6027 248.752 85.9456 247.428C83.018 244.92 80.9301 241.575 79.9638 237.843C78.3427 231.122 77.0439 225.69 76.1718 221.926C75.7452 220.03 75.4039 218.618 75.1669 217.613L74.892 216.447C74.8547 216.323 74.8262 216.196 74.8066 216.068Z" fill="#263238"/>
<path d="M75.3945 185.174C75.6175 185.027 75.8647 184.921 76.1245 184.861C76.8126 184.648 77.5163 184.49 78.229 184.387C80.6068 184.02 83.0399 184.349 85.2348 185.335C87.3561 186.441 89.1579 188.073 90.4677 190.075C90.8649 190.68 91.1834 191.333 91.4157 192.018C91.5175 192.262 91.5753 192.522 91.5864 192.786C91.1767 191.916 90.7046 191.076 90.1739 190.274C88.8244 188.406 87.0589 186.877 85.0167 185.809C82.8987 184.87 80.5695 184.51 78.267 184.766C76.4942 184.908 75.423 185.259 75.3945 185.174Z" fill="#263238"/>
</svg>
