<svg width="29" height="24" viewBox="0 0 29 24" fill="none" xmlns="http://www.w3.org/2000/svg">
<path d="M6.4069 0.539062C2.91744 0.539062 0 3.25825 0 6.50833V17.1622C0 20.4113 2.91854 23.1305 6.4069 23.1305H22.2506C25.7378 23.1305 28.6563 20.4113 28.6563 17.1612V6.50833C28.6563 3.25927 25.7378 0.539062 22.2495 0.539062H6.4069ZM6.4069 2.59283H22.2506C24.4935 2.59283 26.452 4.41759 26.452 6.50833V7.72723H19.839C19.2273 7.72723 18.7368 7.27027 18.7368 6.70035C18.7368 6.13043 19.2273 5.67347 19.839 5.67347C20.1313 5.67347 20.4117 5.56528 20.6184 5.3727C20.8251 5.18013 20.9412 4.91894 20.9412 4.64659C20.9412 4.37424 20.8251 4.11305 20.6184 3.92047C20.4117 3.7279 20.1313 3.61971 19.839 3.61971C18.0259 3.61971 16.5325 5.01113 16.5325 6.70035C16.5325 8.02708 17.4627 9.15871 18.7368 9.58897V14.6905C17.4164 15.5264 16.5325 16.9291 16.5325 18.5095C16.5325 19.4573 16.8554 20.3384 17.3933 21.0767H11.2641C11.8213 20.321 12.1209 19.4263 12.1238 18.5095C12.1238 16.9301 11.2399 15.5264 9.91951 14.6905V9.58794C11.1936 9.15871 12.1238 8.02708 12.1238 6.70035C12.1238 5.01113 10.6304 3.61971 8.81734 3.61971H6.613C6.57849 3.61819 6.54392 3.61819 6.5094 3.61971C6.47525 3.61823 6.44105 3.61823 6.4069 3.61971C6.11459 3.64517 5.8451 3.77778 5.65773 3.98837C5.47036 4.19895 5.38045 4.47026 5.40778 4.7426C5.43511 5.01495 5.57745 5.26602 5.80347 5.4406C6.02949 5.61517 6.32069 5.69894 6.613 5.67347H8.81734C9.42904 5.67347 9.91951 6.13043 9.91951 6.70035C9.91951 7.27027 9.42904 7.72723 8.81734 7.72723H2.20433V6.5073C2.20433 4.41759 4.16289 2.59283 6.4069 2.59283ZM2.20433 9.781H7.71517V13.8885H2.20433V9.781ZM20.9412 9.781H26.452V13.8885H20.9412V9.781ZM2.20433 15.9423H7.16409C8.63989 15.9423 9.91951 17.1345 9.91951 18.5095C9.91951 19.8845 8.63989 21.0767 7.16409 21.0767H6.4058C4.16289 21.0767 2.20433 19.2519 2.20433 17.1612V15.9423ZM21.4923 15.9423H26.452V17.1622C26.452 19.2519 24.4935 21.0767 22.2495 21.0767H21.4923C20.0165 21.0767 18.7368 19.8845 18.7368 18.5095C18.7368 17.1345 20.0165 15.9423 21.4923 15.9423Z" fill="white"/>
</svg>
