<svg width="810" height="463" viewBox="0 0 810 463" fill="none" xmlns="http://www.w3.org/2000/svg">
<g clip-path="url(#clip0_297_2850)">
<path d="M133.088 210.328V80.3281C133.088 78.4716 133.825 76.6911 135.138 75.3784C136.451 74.0656 138.231 73.3281 140.088 73.3281C141.944 73.3281 143.725 74.0656 145.037 75.3784C146.35 76.6911 147.088 78.4716 147.088 80.3281V210.328C147.088 212.185 146.35 213.965 145.037 215.278C143.725 216.591 141.944 217.328 140.088 217.328C138.231 217.328 136.451 216.591 135.138 215.278C133.825 213.965 133.088 212.185 133.088 210.328Z" fill="#F0F0F0"/>
<path d="M116.338 210.328V80.3281C116.338 78.4716 117.075 76.6911 118.388 75.3784C119.701 74.0656 121.481 73.3281 123.338 73.3281C125.194 73.3281 126.975 74.0656 128.287 75.3784C129.6 76.6911 130.338 78.4716 130.338 80.3281V210.328C130.338 212.185 129.6 213.965 128.287 215.278C126.975 216.591 125.194 217.328 123.338 217.328C121.481 217.328 119.701 216.591 118.388 215.278C117.075 213.965 116.338 212.185 116.338 210.328Z" fill="#F0F0F0"/>
<path d="M99.5876 210.328V80.3281C99.5876 78.4716 100.325 76.6911 101.638 75.3784C102.951 74.0656 104.731 73.3281 106.588 73.3281C108.444 73.3281 110.225 74.0656 111.537 75.3784C112.85 76.6911 113.588 78.4716 113.588 80.3281V210.328C113.588 212.185 112.85 213.965 111.537 215.278C110.225 216.591 108.444 217.328 106.588 217.328C104.731 217.328 102.951 216.591 101.638 215.278C100.325 213.965 99.5876 212.185 99.5876 210.328Z" fill="#F0F0F0"/>
<path d="M731.992 417.963C729.173 417.965 726.375 417.479 723.721 416.527L723.312 416.38L723.501 415.475C718.749 405.874 720.41 392.722 727.754 381.907C734.43 372.076 744.583 364.929 753.54 358.623C754.676 357.823 756.026 357.381 757.416 357.355C758.806 357.328 760.171 357.718 761.338 358.474C762.504 359.23 763.418 360.317 763.961 361.596C764.505 362.875 764.653 364.288 764.387 365.652L761.184 382.086C758.873 393.941 756.123 405.162 747.968 412.159C743.488 415.907 737.833 417.962 731.992 417.963Z" fill="#E6E6E6"/>
<path d="M752.969 446.361C749.866 446.343 746.817 445.55 744.099 444.054C741.381 442.558 739.08 440.407 737.405 437.796L737.173 437.434L737.726 436.946C739.159 429.128 745.899 422.162 754.949 419.166C763.175 416.443 772.255 416.888 780.26 417.28C781.318 417.331 782.337 417.696 783.188 418.327C784.039 418.958 784.683 419.828 785.039 420.825C785.395 421.823 785.446 422.904 785.187 423.931C784.928 424.958 784.37 425.885 783.584 426.594L774.576 434.725C768.03 440.632 761.502 445.966 753.627 446.348C753.407 446.357 753.188 446.361 752.969 446.361Z" fill="#E6E6E6"/>
<path d="M725.014 455.053C723.683 445.148 722.315 435.116 723.248 425.104C724.077 416.213 726.731 407.529 732.133 400.408C734.987 396.648 738.476 393.416 742.443 390.857C743.474 390.191 744.423 391.862 743.397 392.524C736.52 396.988 731.23 403.513 728.285 411.164C724.995 419.719 724.466 429.045 725.033 438.132C725.376 443.628 726.103 449.087 726.835 454.54C726.894 454.785 726.859 455.042 726.737 455.262C726.615 455.482 726.414 455.649 726.175 455.728C726.055 455.76 725.929 455.768 725.805 455.752C725.682 455.735 725.562 455.695 725.454 455.632C725.346 455.569 725.252 455.486 725.176 455.387C725.101 455.287 725.045 455.174 725.014 455.053V455.053Z" fill="#F2F2F2"/>
<path d="M721.254 460.748C727.657 449.167 735.083 436.295 748.353 432.181C752.038 431.042 755.91 430.633 759.751 430.978C760.961 431.085 760.659 432.992 759.451 432.885C752.999 432.343 746.561 434.085 741.261 437.805C736.133 441.374 732.139 446.335 728.759 451.597C726.689 454.82 724.835 458.179 722.98 461.534C722.387 462.607 720.655 461.833 721.254 460.748H721.254Z" fill="#F2F2F2"/>
<path d="M718.373 460.578L724.838 460.726L685.858 252.488L679.393 253.706L689.572 307.726H656.778L666.957 253.706L660.492 252.488L621.838 460.726L627.977 460.578L648.299 352.726H698.051L718.373 460.578ZM649.806 344.726L655.271 315.726H691.079L696.543 344.726H649.806Z" fill="#CACACA"/>
<path d="M436.088 213.644V145.258C436.088 143.228 439.228 141.576 443.088 141.576C446.948 141.576 450.088 143.228 450.088 145.258V213.644C450.088 215.674 446.948 217.326 443.088 217.326C439.228 217.326 436.088 215.674 436.088 213.644Z" fill="#F0F0F0"/>
<path d="M419.338 213.644V145.258C419.338 143.228 422.478 141.576 426.338 141.576C430.198 141.576 433.338 143.228 433.338 145.258V213.644C433.338 215.674 430.198 217.326 426.338 217.326C422.478 217.326 419.338 215.674 419.338 213.644Z" fill="#F0F0F0"/>
<path d="M402.588 213.644V145.258C402.588 143.228 405.728 141.576 409.588 141.576C413.448 141.576 416.588 143.228 416.588 145.258V213.644C416.588 215.674 413.448 217.326 409.588 217.326C405.728 217.326 402.588 215.674 402.588 213.644Z" fill="#F0F0F0"/>
<path d="M543.502 163.355C543.471 163.147 543.396 162.948 543.283 162.771C543.17 162.593 543.021 162.442 542.845 162.326L490.073 127.487C490.868 127.155 491.533 126.573 491.966 125.828H491.967C492.494 124.909 492.636 123.818 492.362 122.794C492.087 121.77 491.419 120.897 490.503 120.364L486.173 117.864C485.253 117.337 484.162 117.195 483.139 117.469C482.115 117.743 481.241 118.412 480.709 119.328C480.421 119.832 480.248 120.393 480.202 120.971L442.108 95.8226C440.829 92.7242 438.889 89.9421 436.425 87.6699C433.96 85.3978 431.03 83.6903 427.838 82.6665V71.5781H413.838V82.6665C409.193 84.1518 405.14 87.0745 402.264 91.0129C399.388 94.9513 397.838 99.7015 397.838 104.578V107.578H411.838C411.838 109.965 412.786 112.254 414.474 113.942C416.162 115.63 418.451 116.578 420.838 116.578C423.225 116.578 425.514 115.63 427.202 113.942C428.889 112.254 429.838 109.965 429.838 107.578H443.838V104.578C443.836 103.14 443.701 101.705 443.433 100.292L539.802 163.912L499.771 212.582C499.46 212.581 499.151 212.578 498.838 212.578C495.644 212.578 492.549 212.654 489.6 212.784C489.778 212.289 489.856 211.765 489.829 211.24C489.771 210.182 489.296 209.189 488.508 208.48C487.721 207.77 486.685 207.401 485.626 207.453L480.633 207.714C479.575 207.772 478.582 208.247 477.873 209.034C477.163 209.822 476.794 210.858 476.846 211.916C476.883 212.542 477.069 213.149 477.388 213.688C468.559 214.627 462.838 215.92 462.838 216.578C462.838 217.656 478.201 216.63 497.43 216.581C497.518 216.831 497.671 217.053 497.874 217.224C498.076 217.395 498.32 217.51 498.581 217.556C498.842 217.601 499.111 217.577 499.36 217.485C499.608 217.393 499.828 217.236 499.996 217.031L500.366 216.581C519.539 216.634 534.838 217.654 534.838 216.578C534.838 215.564 521.236 213.04 503.612 212.635L543.177 164.531C543.311 164.368 543.409 164.18 543.465 163.977C543.52 163.774 543.533 163.562 543.502 163.355Z" fill="#CCCCCC"/>
<path d="M544.945 461.078H421.729C419.239 461.075 416.852 460.085 415.092 458.324C413.331 456.563 412.341 454.176 412.338 451.686V249.47C412.335 247.245 411.45 245.112 409.877 243.539C408.304 241.965 406.171 241.081 403.946 241.078H115.73C113.505 241.081 111.372 241.965 109.799 243.539C108.225 245.112 107.34 247.245 107.338 249.47V451.685C107.335 454.176 106.345 456.563 104.584 458.324C102.823 460.085 100.436 461.075 97.9458 461.078H93.73C91.2399 461.075 88.8526 460.085 87.0919 458.324C85.3311 456.563 84.3407 454.176 84.3379 451.686V238.578C84.3446 232.613 86.7172 226.894 90.9354 222.676C95.1535 218.457 100.873 216.085 106.838 216.078H531.838C537.803 216.085 543.522 218.458 547.74 222.676C551.958 226.894 554.331 232.613 554.338 238.578V451.685C554.335 454.176 553.344 456.563 551.584 458.324C549.823 460.085 547.435 461.075 544.945 461.078Z" fill="#E4E4E4"/>
<path d="M553.838 268.578H412.838V274.578H553.838V268.578Z" fill="white"/>
<path d="M553.838 349.578H412.838V355.578H553.838V349.578Z" fill="white"/>
<path d="M296.121 215.09L292.069 213.383L289.289 193.068H252.269L249.255 213.3L245.63 215.113C245.456 215.2 245.317 215.343 245.235 215.518C245.153 215.694 245.133 215.892 245.177 216.081C245.222 216.27 245.329 216.438 245.481 216.558C245.633 216.679 245.821 216.744 246.015 216.744H295.787C295.986 216.744 296.179 216.675 296.333 216.549C296.486 216.424 296.592 216.248 296.631 216.054C296.671 215.859 296.641 215.656 296.548 215.481C296.455 215.305 296.304 215.167 296.121 215.09Z" fill="#E6E6E6"/>
<path d="M361.909 195.772H180.055C179.101 195.77 178.187 195.389 177.513 194.714C176.839 194.038 176.46 193.123 176.46 192.169V166.525H365.504V192.169C365.504 193.123 365.125 194.038 364.451 194.714C363.777 195.389 362.863 195.77 361.909 195.772Z" fill="#CCCCCC"/>
<path d="M365.694 178.645H176.294V68.9213C176.296 67.7698 176.754 66.6658 177.568 65.8516C178.382 65.0374 179.486 64.5794 180.638 64.5781H361.35C362.502 64.5794 363.606 65.0374 364.42 65.8516C365.234 66.6658 365.692 67.7698 365.694 68.9213V178.645Z" fill="#3F3D56"/>
<path d="M354.382 170.681H187.606C186.719 170.68 185.868 170.327 185.24 169.699C184.612 169.072 184.259 168.22 184.258 167.333V75.8895C184.259 75.0017 184.612 74.1506 185.24 73.5229C185.868 72.8951 186.719 72.542 187.606 72.541H354.382C355.269 72.542 356.12 72.8951 356.748 73.5229C357.376 74.1506 357.729 75.0017 357.73 75.8895V167.333C357.729 168.22 357.376 169.072 356.748 169.699C356.12 170.327 355.269 170.68 354.382 170.681Z" fill="white"/>
<path d="M541.339 83.0385C542.935 82.8086 544.561 82.9313 546.104 83.398C547.647 83.8647 549.068 84.6639 550.269 85.7395C551.469 86.8151 552.419 88.1407 553.052 89.6232C553.685 91.1056 553.985 92.7088 553.931 94.3197L590.496 108.394L573.93 120.23L541.747 105.05C539.046 104.78 536.539 103.529 534.7 101.534C532.86 99.5391 531.816 96.9386 531.766 94.2253C531.716 91.5121 532.663 88.8746 534.427 86.8128C536.192 84.751 538.651 83.4081 541.339 83.0384V83.0385Z" fill="#9E616A"/>
<path d="M680.177 76.1289L686.363 87.3757C684.868 94.509 681.005 100.927 675.4 105.586C665.929 113.574 616.409 143.323 616.409 143.323L553.891 111.938L564.828 97.4046L613.91 113.854C632.117 96.6605 654.089 83.9584 678.074 76.7599L680.177 76.1289Z" fill="#E4E4E4"/>
<path d="M668.674 262.234C695.621 262.234 717.465 255.116 717.465 246.336C717.465 237.555 695.621 230.438 668.674 230.438C641.728 230.438 619.884 237.555 619.884 246.336C619.884 255.116 641.728 262.234 668.674 262.234Z" fill="#CACACA"/>
<path d="M559.217 447.105L546.261 443.524L553.909 391.846L573.031 397.133L559.217 447.105Z" fill="#9E616A"/>
<path d="M559.049 460.577L517.274 449.029L517.42 448.5C518.612 444.188 521.468 440.526 525.361 438.319C529.253 436.113 533.862 435.543 538.174 436.734L538.175 436.735L563.69 443.788L559.049 460.577Z" fill="#2F2E41"/>
<path d="M521.653 447.272L509.356 441.842L524.448 391.83L542.596 399.843L521.653 447.272Z" fill="#9E616A"/>
<path d="M519.526 460.577L479.877 443.069L480.098 442.567C481.906 438.474 485.265 435.267 489.437 433.651C493.609 432.035 498.252 432.142 502.345 433.949L502.346 433.949L526.562 444.642L519.526 460.577Z" fill="#2F2E41"/>
<path d="M706.646 207.467C706.646 207.467 713.164 227.66 673.175 253.198L621.674 304.516L568.161 432.522L536.392 418.279L542.623 401.647L546.804 390.487L548.943 384.777L551.236 378.656L585.248 287.87L613.818 237.846L614.646 210.703L621.674 191.569L672.657 173.479L706.646 207.467Z" fill="#2F2E41"/>
<path d="M680.646 208.467C680.646 208.467 687.164 228.66 647.175 254.198L595.674 305.516L542.161 433.522L510.392 419.279L516.623 402.647L520.804 391.487L522.943 385.777L525.236 379.656L559.248 288.87L568.814 272.121C581.433 250.025 596.768 229.594 614.46 211.306L623.838 201.612L624.838 186.612L646.657 174.479L680.646 208.467Z" fill="#2F2E41"/>
<path d="M649.838 109.612L665.838 75.6115L693.759 71.8027C693.759 71.8027 715.562 99.5798 709.838 138.612C707.691 153.248 705.942 167.821 705.838 180.612C705.81 184.015 708.787 185.535 708.838 188.612C708.887 191.634 703.194 196.558 704.838 198.612C707.187 201.443 708.587 204.941 708.838 208.612C706.856 213.328 646.882 187.778 621.674 191.569L649.838 109.612Z" fill="#E4E4E4"/>
<path d="M689.496 54.6844C696.623 42.6951 692.681 27.1982 680.692 20.0712C668.702 12.9442 653.205 16.886 646.078 28.8753C638.951 40.8647 642.893 56.3615 654.882 63.4885C666.872 70.6155 682.369 66.6738 689.496 54.6844Z" fill="#9E616A"/>
<path d="M683.933 32.713C683.885 33.3775 683.818 34.2576 683.741 35.2533C683.663 37.979 684.431 40.662 685.94 42.9332C687.353 45.3226 685.667 59.754 685.667 59.754C727.035 30.9177 694.348 1.94705 681.562 4.52234C681.829 0.855214 671.401 2.30796 671.401 2.30796C667.427 -3.87986 658.719 4.33396 658.719 4.33396L660.399 1.50702C653.638 3.22674 646.956 24.1224 646.956 24.1224C649.248 33.137 684.2 29.0458 683.933 32.713Z" fill="#2F2E41"/>
<path d="M523.453 122.986C537.668 104.077 548.906 83.1043 556.776 60.7953C557.232 59.4608 557.2 58.0079 556.685 56.6951C556.17 55.3823 555.206 54.2949 553.964 53.6264L505.319 27.5612C504.532 27.1363 503.658 26.8966 502.765 26.8603C501.871 26.824 500.981 26.9921 500.162 27.3518C499.328 27.7143 498.588 28.2622 497.997 28.954C497.407 29.6457 496.982 30.463 496.755 31.3436C491.093 52.8412 480.451 72.7042 465.688 89.3255C465.08 90.002 464.635 90.8083 464.386 91.6829C464.137 92.5576 464.091 93.4776 464.251 94.3728C464.405 95.2537 464.758 96.0879 465.283 96.8118C465.808 97.5358 466.491 98.1303 467.281 98.5502L515.927 124.616C517.171 125.279 518.61 125.479 519.988 125.181C521.367 124.883 522.594 124.105 523.453 122.986Z" fill="#CCCCCC"/>
<path d="M520.133 120.492C519.872 120.819 519.504 121.044 519.094 121.128C518.684 121.213 518.258 121.152 517.888 120.956L469.243 94.89C469.006 94.7668 468.802 94.5907 468.645 94.3753C468.488 94.1598 468.384 93.9111 468.339 93.6484C468.289 93.3711 468.303 93.0858 468.381 92.815C468.459 92.5441 468.599 92.295 468.789 92.0872C483.987 74.9763 494.943 54.528 500.772 32.397C500.839 32.1235 500.969 31.8694 501.151 31.6545C501.333 31.4396 501.563 31.2697 501.821 31.1582C502.065 31.0492 502.33 30.9983 502.597 31.0093C502.864 31.0203 503.124 31.093 503.358 31.2217L552.003 57.2868C552.371 57.4859 552.659 57.8075 552.815 58.1959C552.972 58.5844 552.988 59.0153 552.86 59.4143C545.131 81.324 534.094 101.922 520.133 120.492Z" fill="white"/>
<path d="M503.115 55.9858L536.667 75.6519C540.005 77.6086 543.028 72.4247 539.695 70.4711L506.143 50.8049C502.805 48.8482 499.782 54.0322 503.115 55.9858V55.9858Z" fill="#3FBCFC"/>
<path d="M497.115 66.9858L530.667 86.6519C534.005 88.6086 537.028 83.4247 533.695 81.4711L500.143 61.8049C496.805 59.8482 493.782 65.0322 497.115 66.9858V66.9858Z" fill="#3FBCFC"/>
<path d="M490.115 78.9858L523.667 98.6519C527.005 100.609 530.028 95.4247 526.695 93.4711L493.143 73.8049C489.805 71.8482 486.782 77.0322 490.115 78.9858V78.9858Z" fill="#3FBCFC"/>
<path d="M483.115 88.9858L516.667 108.652C520.005 110.609 523.028 105.425 519.695 103.471L486.143 83.8049C482.805 81.8482 479.782 87.0322 483.115 88.9858V88.9858Z" fill="#3FBCFC"/>
<path d="M636.069 204.664L648.666 232.989C648.969 233.667 649.099 234.41 649.044 235.151C648.988 235.892 648.749 236.608 648.347 237.233C647.874 237.98 647.19 238.57 646.382 238.929C645.574 239.289 644.678 239.401 643.807 239.252C643.51 239.206 643.219 239.129 642.939 239.02C641.825 238.59 640.927 237.737 640.442 236.646L627.846 208.321C627.606 207.781 627.474 207.199 627.459 206.608C627.444 206.017 627.545 205.429 627.757 204.878C628.185 203.764 629.038 202.865 630.129 202.38C631.22 201.895 632.458 201.864 633.572 202.292C634.686 202.72 635.584 203.573 636.069 204.664Z" fill="#3FBCFC"/>
<path d="M647.65 230.705L650.173 236.422L651.464 244.527C651.549 245.06 651.456 245.607 651.198 246.082C650.94 246.557 650.533 246.934 650.039 247.153C649.546 247.373 648.993 247.423 648.468 247.296C647.943 247.169 647.474 246.872 647.135 246.452L641.913 239.954L639.426 234.362L647.65 230.705Z" fill="#3F3D56"/>
<path d="M625.047 196.783L626.852 208.123C626.911 208.494 627.054 208.847 627.271 209.154C627.489 209.461 627.773 209.714 628.104 209.893C628.434 210.073 628.801 210.174 629.177 210.188C629.553 210.203 629.927 210.131 630.27 209.979L632.06 209.183L635.514 216.95C635.622 217.191 635.821 217.381 636.069 217.475C636.316 217.57 636.591 217.563 636.833 217.455C637.075 217.348 637.264 217.148 637.36 216.901C637.455 216.654 637.448 216.379 637.341 216.137L633.887 208.37L635.677 207.574C636.27 207.31 636.734 206.822 636.968 206.216C637.202 205.61 637.187 204.936 636.925 204.342C636.837 204.145 636.724 203.961 636.589 203.793L629.377 194.857C629.038 194.437 628.569 194.14 628.044 194.014C627.518 193.887 626.966 193.937 626.472 194.157C625.978 194.376 625.571 194.753 625.313 195.228C625.055 195.703 624.962 196.249 625.047 196.783Z" fill="#3F3D56"/>
<path d="M630.272 217.252C630.556 215.666 631.184 214.16 632.113 212.843C633.041 211.525 634.247 210.427 635.646 209.626C637.045 208.825 638.602 208.341 640.208 208.207C641.814 208.073 643.43 208.292 644.943 208.851L669.809 178.572L675.83 198.022L651.294 223.793C650.188 226.271 648.211 228.257 645.739 229.375C643.266 230.493 640.469 230.666 637.878 229.86C635.287 229.053 633.081 227.325 631.679 225.001C630.278 222.677 629.777 219.92 630.272 217.252Z" fill="#9E616A"/>
<path d="M661.577 215.284L650.625 199.465L681.724 157.999L665.703 123.669L666.87 82.8342L680.109 80.3887L680.273 80.4711C686.709 84.1759 691.684 89.971 694.372 96.8938C697.675 105.15 705.047 136.144 709.148 153.884C709.954 157.322 709.866 160.908 708.892 164.303C707.919 167.697 706.093 170.785 703.588 173.273L661.577 215.284Z" fill="#E4E4E4"/>
<path d="M353.214 138.846C353.123 139.614 353.092 140.389 353.123 141.162L297.05 181.956L281.646 175.138L268.318 197.042L294.416 211.761C296.525 212.95 298.962 213.423 301.362 213.109C303.762 212.795 305.996 211.711 307.727 210.02L364.163 154.896C367.051 155.63 370.095 155.468 372.889 154.43C375.683 153.392 378.094 151.527 379.803 149.085C381.512 146.643 382.436 143.739 382.454 140.758C382.472 137.778 381.581 134.863 379.902 132.4C378.222 129.938 375.833 128.046 373.052 126.975C370.27 125.904 367.229 125.705 364.331 126.404C361.434 127.104 358.819 128.669 356.833 130.892C354.847 133.114 353.584 135.889 353.214 138.846V138.846Z" fill="#FFB6B6"/>
<path d="M295.237 183.447L278.885 210.695C278.42 211.471 277.793 212.137 277.047 212.648C276.301 213.159 275.454 213.503 274.563 213.657C273.672 213.812 272.758 213.772 271.884 213.541C271.01 213.311 270.196 212.894 269.497 212.32L245.014 192.213C241.062 189.81 238.224 185.937 237.122 181.445C236.02 176.952 236.745 172.206 239.136 168.247C241.528 164.288 245.392 161.439 249.881 160.324C254.37 159.209 259.118 159.919 263.085 162.3L292.254 174.399C293.089 174.745 293.84 175.268 294.455 175.931C295.07 176.594 295.534 177.381 295.817 178.24C296.1 179.099 296.195 180.008 296.095 180.907C295.995 181.806 295.702 182.672 295.237 183.447L295.237 183.447Z" fill="#3FBCFC"/>
<path d="M225.174 420.283H257.227V367.168H225.174V420.283Z" fill="#CACACA"/>
<path d="M255.62 395.273L251.506 401.336L328.432 453.535L332.546 447.473L255.62 395.273Z" fill="#CACACA"/>
<path d="M226.78 395.273L149.854 447.473L153.968 453.535L230.894 401.336L226.78 395.273Z" fill="#CACACA"/>
<path d="M330.489 460.577C336.053 460.577 340.563 456.067 340.563 450.503C340.563 444.94 336.053 440.43 330.489 440.43C324.926 440.43 320.416 444.94 320.416 450.503C320.416 456.067 324.926 460.577 330.489 460.577Z" fill="#CACACA"/>
<path d="M240.742 460.577C246.306 460.577 250.816 456.067 250.816 450.503C250.816 444.94 246.306 440.43 240.742 440.43C235.179 440.43 230.669 444.94 230.669 450.503C230.669 456.067 235.179 460.577 240.742 460.577Z" fill="#CACACA"/>
<path d="M151.911 460.577C157.475 460.577 161.985 456.067 161.985 450.503C161.985 444.94 157.475 440.43 151.911 440.43C146.348 440.43 141.838 444.94 141.838 450.503C141.838 456.067 146.348 460.577 151.911 460.577Z" fill="#CACACA"/>
<path d="M244.406 398.305H237.079V450.504H244.406V398.305Z" fill="#CACACA"/>
<path d="M234.332 390.979H248.069V320.463H234.332V390.979Z" fill="#CACACA"/>
<path d="M201.822 331.451V314.967C201.825 311.932 203.032 309.022 205.178 306.876C207.324 304.73 210.234 303.523 213.269 303.52H274.626C277.661 303.523 280.571 304.73 282.717 306.876C284.863 309.022 286.07 311.932 286.074 314.967V331.451C286.07 334.486 284.863 337.396 282.717 339.542C280.571 341.688 277.661 342.895 274.626 342.898H213.269C210.234 342.895 207.324 341.688 205.178 339.542C203.032 337.396 201.825 334.486 201.822 331.451Z" fill="#3F3D56"/>
<path d="M312.641 444.129L329.609 444.128L337.683 400.117L312.639 400.118L312.641 444.129Z" fill="#FFB8B8"/>
<path d="M308.313 460.578L363.028 460.576V459.884C363.028 457.088 362.478 454.318 361.407 451.735C360.337 449.151 358.769 446.803 356.791 444.826C354.814 442.848 352.466 441.279 349.882 440.209C347.298 439.139 344.529 438.588 341.732 438.588H341.73L308.312 438.589L308.313 460.578Z" fill="#2F2E41"/>
<path d="M338.021 416.837L371.85 340.976C374.675 334.583 374.987 327.36 372.725 320.746C370.463 314.132 365.793 308.613 359.644 305.288L286.267 265.941L252.784 263.093L221.898 260.285L221.675 260.662C221.39 261.143 214.749 272.614 219.238 285.191C222.643 294.731 231.5 302.183 245.563 307.34C278.386 319.375 316.304 329.662 331.082 333.525C331.736 333.692 332.346 333.995 332.873 334.415C333.401 334.835 333.834 335.361 334.143 335.96C334.453 336.552 334.637 337.202 334.684 337.869C334.731 338.536 334.639 339.205 334.415 339.834L302.986 410.445C302.658 411.34 302.54 412.299 302.641 413.248C302.742 414.196 303.059 415.109 303.568 415.915C304.078 416.721 304.766 417.4 305.579 417.899C306.392 418.397 307.309 418.702 308.259 418.79L331.742 420.5C331.942 420.519 332.14 420.528 332.338 420.528C333.54 420.528 334.717 420.179 335.726 419.524C336.735 418.869 337.532 417.936 338.021 416.837Z" fill="#2F2E41"/>
<path d="M301.568 444.129L318.536 444.128L326.61 400.117L301.566 400.118L301.568 444.129Z" fill="#FFB8B8"/>
<path d="M297.24 460.578L351.955 460.576V459.884C351.955 457.088 351.405 454.318 350.334 451.735C349.264 449.151 347.696 446.803 345.718 444.826C343.741 442.848 341.393 441.279 338.809 440.209C336.225 439.139 333.456 438.588 330.659 438.588H330.657L297.239 438.589L297.24 460.578Z" fill="#2F2E41"/>
<path d="M325.564 420.989L359.393 345.129C362.218 338.735 362.53 331.512 360.268 324.898C358.006 318.284 353.336 312.765 347.187 309.44L273.81 270.093L240.327 267.245L216.135 265.146L216.139 264.814C215.854 265.296 209.213 276.766 213.702 289.343C217.107 298.884 219.043 306.335 233.106 311.492C265.929 323.527 303.847 333.814 318.625 337.677C319.279 337.844 319.889 338.147 320.416 338.567C320.944 338.987 321.377 339.514 321.686 340.113C321.996 340.705 322.18 341.354 322.227 342.021C322.274 342.688 322.182 343.357 321.958 343.987L290.529 414.597C290.201 415.493 290.083 416.452 290.184 417.4C290.285 418.348 290.602 419.261 291.111 420.067C291.621 420.874 292.309 421.552 293.122 422.051C293.935 422.549 294.852 422.854 295.802 422.942L319.285 424.652C319.485 424.671 319.683 424.681 319.881 424.681C321.083 424.68 322.26 424.331 323.269 423.676C324.278 423.021 325.075 422.088 325.564 420.989Z" fill="#2F2E41"/>
<path d="M304.344 94.2395C308.688 75.9738 297.402 57.6451 279.136 53.3012C260.87 48.9573 242.541 60.2432 238.198 78.509C233.854 96.7747 245.14 115.103 263.405 119.447C281.671 123.791 300 112.505 304.344 94.2395Z" fill="#FFB8B8"/>
<path d="M388.453 216.986C402.668 198.077 413.906 177.104 421.776 154.795C422.232 153.461 422.2 152.008 421.685 150.695C421.17 149.382 420.206 148.295 418.964 147.626L370.319 121.561C369.532 121.136 368.658 120.897 367.765 120.86C366.871 120.824 365.981 120.992 365.162 121.352C364.328 121.714 363.588 122.262 362.997 122.954C362.407 123.646 361.982 124.463 361.755 125.344C356.093 146.841 345.451 166.704 330.688 183.325C330.08 184.002 329.635 184.808 329.386 185.683C329.137 186.558 329.091 187.478 329.251 188.373C329.405 189.254 329.758 190.088 330.283 190.812C330.808 191.536 331.491 192.13 332.281 192.55L380.927 218.616C382.171 219.279 383.61 219.479 384.988 219.181C386.367 218.883 387.594 218.105 388.453 216.986Z" fill="#CCCCCC"/>
<path d="M385.133 214.492C384.872 214.819 384.504 215.044 384.094 215.128C383.684 215.213 383.258 215.152 382.888 214.956L334.243 188.89C334.006 188.767 333.802 188.591 333.645 188.375C333.488 188.16 333.384 187.911 333.339 187.648C333.289 187.371 333.303 187.086 333.381 186.815C333.459 186.544 333.599 186.295 333.789 186.087C348.987 168.976 359.943 148.528 365.772 126.397C365.839 126.124 365.969 125.869 366.151 125.655C366.333 125.44 366.563 125.27 366.821 125.158C367.065 125.049 367.33 124.998 367.597 125.009C367.864 125.02 368.124 125.093 368.358 125.222L417.003 151.287C417.371 151.486 417.659 151.807 417.815 152.196C417.972 152.584 417.988 153.015 417.86 153.414C410.131 175.324 399.094 195.922 385.133 214.492Z" fill="white"/>
<path d="M368.115 149.986L401.667 169.652C405.005 171.609 408.028 166.425 404.695 164.471L371.143 144.805C367.805 142.848 364.782 148.032 368.115 149.986V149.986Z" fill="#CCCCCC"/>
<path d="M362.115 160.986L395.667 180.652C399.005 182.609 402.028 177.425 398.695 175.471L365.143 155.805C361.805 153.848 358.782 159.032 362.115 160.986V160.986Z" fill="#CCCCCC"/>
<path d="M357.401 171.943L387.915 190.058C390.951 191.86 394.198 188.134 391.166 186.335L360.652 168.22C357.616 166.418 354.369 170.144 357.401 171.943Z" fill="#CCCCCC"/>
<path d="M348.115 182.986L381.667 202.652C385.005 204.609 388.028 199.425 384.695 197.471L351.143 177.805C347.805 175.848 344.782 181.032 348.115 182.986V182.986Z" fill="#CCCCCC"/>
<path d="M290.872 268.693L223.598 268.291L223.58 267.813C222.297 234.059 226.422 203.483 236.191 174.338C236.33 173.247 236.479 172.081 236.625 170.937C238.294 157.898 239.619 147.545 252.018 143.69C250.985 142.316 250.376 140.67 250.266 138.955C250.188 137.815 250.337 136.671 250.706 135.59C251.074 134.508 251.654 133.511 252.411 132.655C253.136 131.829 254.018 131.156 255.005 130.674C255.993 130.192 257.067 129.912 258.164 129.849L282.109 129.033C283.367 129.025 284.592 129.44 285.586 130.212C287.409 131.566 288.69 133.525 289.2 135.738C289.71 137.951 289.416 140.274 288.369 142.289C288.087 142.851 287.979 143.107 287.938 143.218C288.79 147.678 291.315 152.976 293.988 158.582C297.815 166.61 302.153 175.707 303.268 185.441C303.87 190.696 303.62 196.014 302.527 201.19C302.028 203.978 301.913 206.823 302.185 209.643C302.404 213.824 302.61 217.773 300.247 221.591C299.644 222.626 298.955 223.73 298.146 224.952L294.821 232.9L290.872 268.693Z" fill="#3FBCFC"/>
<path d="M189.916 315.931V178.469C189.921 173.99 191.703 169.696 194.87 166.528C198.038 163.361 202.332 161.579 206.811 161.574H211.484C215.963 161.579 220.258 163.361 223.425 166.528C226.593 169.696 228.374 173.99 228.379 178.469V315.931C228.374 320.41 226.593 324.705 223.425 327.872C220.258 331.039 215.963 332.821 211.484 332.826H206.811C202.332 332.821 198.038 331.039 194.87 327.872C191.703 324.705 189.921 320.41 189.916 315.931Z" fill="#3F3D56"/>
<path d="M370.321 192.189C369.838 192.794 369.403 193.435 369.021 194.108L299.863 199.158L290.378 185.236L267.497 196.805L281.893 223.082C283.056 225.205 284.877 226.893 287.081 227.894C289.285 228.894 291.754 229.152 294.118 228.63L371.147 211.601C373.214 213.749 375.885 215.217 378.805 215.811C381.726 216.404 384.759 216.093 387.499 214.921C390.239 213.749 392.558 211.77 394.146 209.248C395.734 206.726 396.517 203.78 396.39 200.802C396.263 197.824 395.233 194.956 393.436 192.578C391.639 190.2 389.16 188.426 386.33 187.491C383.5 186.556 380.453 186.504 377.593 187.344C374.733 188.183 372.196 189.873 370.321 192.189Z" fill="#FFB6B6"/>
<path d="M297.536 199.467L269.265 213.979C268.46 214.391 267.576 214.626 266.673 214.666C265.77 214.707 264.868 214.552 264.03 214.213C263.192 213.874 262.437 213.358 261.816 212.7C261.196 212.043 260.724 211.259 260.433 210.403L250.253 180.402C248.165 176.283 247.794 171.505 249.219 167.114C250.645 162.722 253.752 159.073 257.861 156.966C245.328 163.399 271.429 145.127 281.391 164.534L299.779 190.207C300.305 190.943 300.667 191.783 300.839 192.67C301.011 193.558 300.991 194.472 300.778 195.351C300.565 196.23 300.165 197.052 299.606 197.763C299.046 198.473 298.34 199.054 297.536 199.467H297.536Z" fill="#3FBCFC"/>
<path d="M255.913 119.438C253.867 119.438 251.61 118.451 249.064 116.453C241.574 110.572 236.22 102.395 233.824 93.1784C231.428 83.9614 232.121 74.2127 235.799 65.4279C237.65 61.0071 241.111 54.9983 247.091 51.4768C251.39 48.9465 256.44 48.0324 260.836 47.3742C264.641 46.8039 268.495 46.3498 272.289 46.0266C276.822 45.6389 282.059 45.3772 286.835 47.1916C290.334 48.5217 293.313 50.8703 296.193 53.1418C297.197 53.9328 298.235 54.7521 299.275 55.5099C301.795 57.4754 304.7 58.8867 307.803 59.6515C308.457 59.7873 309.075 60.0619 309.615 60.457C310.154 60.8521 310.602 61.3583 310.929 61.9416C311.263 62.5344 311.465 63.1919 311.523 63.8697C311.58 64.5474 311.492 65.2297 311.263 65.8703C310.814 67.13 310.408 68.2658 311.229 69.4962C311.533 69.9297 311.938 70.2821 312.41 70.5225C312.882 70.7628 313.405 70.8839 313.935 70.8751C314.214 70.8706 314.49 70.9359 314.738 71.0652C314.986 71.1945 315.197 71.3836 315.353 71.6154C315.511 71.8451 315.611 72.1101 315.644 72.3873C315.676 72.6644 315.64 72.9452 315.539 73.2052L315.407 73.5441C315.759 73.5769 316.098 73.6948 316.394 73.8875C316.69 74.0803 316.935 74.3421 317.108 74.6505C317.365 75.0897 317.464 75.6034 317.389 76.1066C317.314 76.6098 317.07 77.0725 316.697 77.4181C313.663 80.3058 309.881 82.2853 305.779 83.132C302.972 83.6826 300.084 83.676 297.28 83.1125L296.829 83.0246L296.884 82.5246C285.54 78.4787 275.3 85.3449 269.463 93.1945L268.62 92.6623C268.764 92.3697 268.849 92.0509 268.867 91.725C268.885 91.3991 268.838 91.0728 268.727 90.7658C268.609 90.3974 268.42 90.0558 268.17 89.7605C267.921 89.4652 267.615 89.2221 267.271 89.0451C266.576 88.7583 265.811 88.6838 265.074 88.831C264.336 88.9782 263.659 89.3405 263.127 89.8722C262.585 90.4399 262.168 91.1142 261.901 91.8522C261.634 92.5901 261.524 93.3755 261.578 94.1584C261.731 95.8176 262.154 97.4408 262.829 98.964C263.103 99.6926 263.387 100.446 263.618 101.206C264.91 105.522 264.566 110.163 262.651 114.241C261.767 116.102 260.169 118.474 257.575 119.209C257.034 119.362 256.475 119.439 255.913 119.438Z" fill="#2F2E41"/>
<path d="M808.485 462.577H1.19066C0.875467 462.576 0.573504 462.45 0.350952 462.227C0.1284 462.004 0.00341797 461.701 0.00341797 461.386C0.00341797 461.071 0.1284 460.768 0.350952 460.545C0.573504 460.322 0.875467 460.196 1.19066 460.195H808.485C808.8 460.195 809.103 460.321 809.327 460.544C809.55 460.767 809.675 461.07 809.675 461.386C809.675 461.702 809.55 462.005 809.327 462.228C809.103 462.451 808.8 462.577 808.485 462.577Z" fill="#CACACA"/>
</g>
<defs>
<clipPath id="clip0_297_2850">
<rect width="809.675" height="462.577" fill="white"/>
</clipPath>
</defs>
</svg>
